%TF.GenerationSoftware,KiCad,Pcbnew,8.0.3-8.0.3-0~ubuntu22.04.1*%
%TF.CreationDate,2024-07-16T05:34:00-05:00*%
%TF.ProjectId,ampli-zero,616d706c-692d-47a6-9572-6f2e6b696361,v1.0.0*%
%TF.SameCoordinates,Original*%
%TF.FileFunction,AssemblyDrawing,Top*%
%FSLAX46Y46*%
G04 Gerber Fmt 4.6, Leading zero omitted, Abs format (unit mm)*
G04 Created by KiCad (PCBNEW 8.0.3-8.0.3-0~ubuntu22.04.1) date 2024-07-16 05:34:00*
%MOMM*%
%LPD*%
G01*
G04 APERTURE LIST*
%ADD10C,0.100000*%
%ADD11C,0.150000*%
%ADD12C,0.300000*%
%ADD13C,0.400000*%
%TA.AperFunction,Profile*%
%ADD14C,0.100000*%
%TD*%
G04 APERTURE END LIST*
D10*
X157012200Y-177117000D02*
X157012200Y-194897000D01*
X174792200Y-194897000D01*
X174792200Y-177117000D01*
X157012200Y-177117000D01*
D11*
X177013200Y-174505000D02*
X285002200Y-174505000D01*
X285002200Y-198007000D01*
X177013200Y-198007000D01*
X177013200Y-174505000D01*
D10*
D11*
X10000000Y-10000000D02*
X287002200Y-10000000D01*
X287002200Y-200007200D01*
X10000000Y-200007200D01*
X10000000Y-10000000D01*
D10*
D11*
X12000000Y-12000000D02*
X285002200Y-12000000D01*
X285002200Y-198007200D01*
X12000000Y-198007200D01*
X12000000Y-12000000D01*
D10*
D11*
X60000000Y-12000000D02*
X60000000Y-10000000D01*
D10*
D11*
X110000000Y-12000000D02*
X110000000Y-10000000D01*
D10*
D11*
X160000000Y-12000000D02*
X160000000Y-10000000D01*
D10*
D11*
X210000000Y-12000000D02*
X210000000Y-10000000D01*
D10*
D11*
X260000000Y-12000000D02*
X260000000Y-10000000D01*
D10*
D11*
X36089160Y-11593604D02*
X35346303Y-11593604D01*
X35717731Y-11593604D02*
X35717731Y-10293604D01*
X35717731Y-10293604D02*
X35593922Y-10479319D01*
X35593922Y-10479319D02*
X35470112Y-10603128D01*
X35470112Y-10603128D02*
X35346303Y-10665033D01*
D10*
D11*
X85346303Y-10417414D02*
X85408207Y-10355509D01*
X85408207Y-10355509D02*
X85532017Y-10293604D01*
X85532017Y-10293604D02*
X85841541Y-10293604D01*
X85841541Y-10293604D02*
X85965350Y-10355509D01*
X85965350Y-10355509D02*
X86027255Y-10417414D01*
X86027255Y-10417414D02*
X86089160Y-10541223D01*
X86089160Y-10541223D02*
X86089160Y-10665033D01*
X86089160Y-10665033D02*
X86027255Y-10850747D01*
X86027255Y-10850747D02*
X85284398Y-11593604D01*
X85284398Y-11593604D02*
X86089160Y-11593604D01*
D10*
D11*
X135284398Y-10293604D02*
X136089160Y-10293604D01*
X136089160Y-10293604D02*
X135655826Y-10788842D01*
X135655826Y-10788842D02*
X135841541Y-10788842D01*
X135841541Y-10788842D02*
X135965350Y-10850747D01*
X135965350Y-10850747D02*
X136027255Y-10912652D01*
X136027255Y-10912652D02*
X136089160Y-11036461D01*
X136089160Y-11036461D02*
X136089160Y-11345985D01*
X136089160Y-11345985D02*
X136027255Y-11469795D01*
X136027255Y-11469795D02*
X135965350Y-11531700D01*
X135965350Y-11531700D02*
X135841541Y-11593604D01*
X135841541Y-11593604D02*
X135470112Y-11593604D01*
X135470112Y-11593604D02*
X135346303Y-11531700D01*
X135346303Y-11531700D02*
X135284398Y-11469795D01*
D10*
D11*
X185965350Y-10726938D02*
X185965350Y-11593604D01*
X185655826Y-10231700D02*
X185346303Y-11160271D01*
X185346303Y-11160271D02*
X186151064Y-11160271D01*
D10*
D11*
X236027255Y-10293604D02*
X235408207Y-10293604D01*
X235408207Y-10293604D02*
X235346303Y-10912652D01*
X235346303Y-10912652D02*
X235408207Y-10850747D01*
X235408207Y-10850747D02*
X235532017Y-10788842D01*
X235532017Y-10788842D02*
X235841541Y-10788842D01*
X235841541Y-10788842D02*
X235965350Y-10850747D01*
X235965350Y-10850747D02*
X236027255Y-10912652D01*
X236027255Y-10912652D02*
X236089160Y-11036461D01*
X236089160Y-11036461D02*
X236089160Y-11345985D01*
X236089160Y-11345985D02*
X236027255Y-11469795D01*
X236027255Y-11469795D02*
X235965350Y-11531700D01*
X235965350Y-11531700D02*
X235841541Y-11593604D01*
X235841541Y-11593604D02*
X235532017Y-11593604D01*
X235532017Y-11593604D02*
X235408207Y-11531700D01*
X235408207Y-11531700D02*
X235346303Y-11469795D01*
D10*
D11*
X285965350Y-10293604D02*
X285717731Y-10293604D01*
X285717731Y-10293604D02*
X285593922Y-10355509D01*
X285593922Y-10355509D02*
X285532017Y-10417414D01*
X285532017Y-10417414D02*
X285408207Y-10603128D01*
X285408207Y-10603128D02*
X285346303Y-10850747D01*
X285346303Y-10850747D02*
X285346303Y-11345985D01*
X285346303Y-11345985D02*
X285408207Y-11469795D01*
X285408207Y-11469795D02*
X285470112Y-11531700D01*
X285470112Y-11531700D02*
X285593922Y-11593604D01*
X285593922Y-11593604D02*
X285841541Y-11593604D01*
X285841541Y-11593604D02*
X285965350Y-11531700D01*
X285965350Y-11531700D02*
X286027255Y-11469795D01*
X286027255Y-11469795D02*
X286089160Y-11345985D01*
X286089160Y-11345985D02*
X286089160Y-11036461D01*
X286089160Y-11036461D02*
X286027255Y-10912652D01*
X286027255Y-10912652D02*
X285965350Y-10850747D01*
X285965350Y-10850747D02*
X285841541Y-10788842D01*
X285841541Y-10788842D02*
X285593922Y-10788842D01*
X285593922Y-10788842D02*
X285470112Y-10850747D01*
X285470112Y-10850747D02*
X285408207Y-10912652D01*
X285408207Y-10912652D02*
X285346303Y-11036461D01*
D10*
D11*
X60000000Y-198007200D02*
X60000000Y-200007200D01*
D10*
D11*
X110000000Y-198007200D02*
X110000000Y-200007200D01*
D10*
D11*
X160000000Y-198007200D02*
X160000000Y-200007200D01*
D10*
D11*
X210000000Y-198007200D02*
X210000000Y-200007200D01*
D10*
D11*
X260000000Y-198007200D02*
X260000000Y-200007200D01*
D10*
D11*
X36089160Y-199600804D02*
X35346303Y-199600804D01*
X35717731Y-199600804D02*
X35717731Y-198300804D01*
X35717731Y-198300804D02*
X35593922Y-198486519D01*
X35593922Y-198486519D02*
X35470112Y-198610328D01*
X35470112Y-198610328D02*
X35346303Y-198672233D01*
D10*
D11*
X85346303Y-198424614D02*
X85408207Y-198362709D01*
X85408207Y-198362709D02*
X85532017Y-198300804D01*
X85532017Y-198300804D02*
X85841541Y-198300804D01*
X85841541Y-198300804D02*
X85965350Y-198362709D01*
X85965350Y-198362709D02*
X86027255Y-198424614D01*
X86027255Y-198424614D02*
X86089160Y-198548423D01*
X86089160Y-198548423D02*
X86089160Y-198672233D01*
X86089160Y-198672233D02*
X86027255Y-198857947D01*
X86027255Y-198857947D02*
X85284398Y-199600804D01*
X85284398Y-199600804D02*
X86089160Y-199600804D01*
D10*
D11*
X135284398Y-198300804D02*
X136089160Y-198300804D01*
X136089160Y-198300804D02*
X135655826Y-198796042D01*
X135655826Y-198796042D02*
X135841541Y-198796042D01*
X135841541Y-198796042D02*
X135965350Y-198857947D01*
X135965350Y-198857947D02*
X136027255Y-198919852D01*
X136027255Y-198919852D02*
X136089160Y-199043661D01*
X136089160Y-199043661D02*
X136089160Y-199353185D01*
X136089160Y-199353185D02*
X136027255Y-199476995D01*
X136027255Y-199476995D02*
X135965350Y-199538900D01*
X135965350Y-199538900D02*
X135841541Y-199600804D01*
X135841541Y-199600804D02*
X135470112Y-199600804D01*
X135470112Y-199600804D02*
X135346303Y-199538900D01*
X135346303Y-199538900D02*
X135284398Y-199476995D01*
D10*
D11*
X185965350Y-198734138D02*
X185965350Y-199600804D01*
X185655826Y-198238900D02*
X185346303Y-199167471D01*
X185346303Y-199167471D02*
X186151064Y-199167471D01*
D10*
D11*
X236027255Y-198300804D02*
X235408207Y-198300804D01*
X235408207Y-198300804D02*
X235346303Y-198919852D01*
X235346303Y-198919852D02*
X235408207Y-198857947D01*
X235408207Y-198857947D02*
X235532017Y-198796042D01*
X235532017Y-198796042D02*
X235841541Y-198796042D01*
X235841541Y-198796042D02*
X235965350Y-198857947D01*
X235965350Y-198857947D02*
X236027255Y-198919852D01*
X236027255Y-198919852D02*
X236089160Y-199043661D01*
X236089160Y-199043661D02*
X236089160Y-199353185D01*
X236089160Y-199353185D02*
X236027255Y-199476995D01*
X236027255Y-199476995D02*
X235965350Y-199538900D01*
X235965350Y-199538900D02*
X235841541Y-199600804D01*
X235841541Y-199600804D02*
X235532017Y-199600804D01*
X235532017Y-199600804D02*
X235408207Y-199538900D01*
X235408207Y-199538900D02*
X235346303Y-199476995D01*
D10*
D11*
X285965350Y-198300804D02*
X285717731Y-198300804D01*
X285717731Y-198300804D02*
X285593922Y-198362709D01*
X285593922Y-198362709D02*
X285532017Y-198424614D01*
X285532017Y-198424614D02*
X285408207Y-198610328D01*
X285408207Y-198610328D02*
X285346303Y-198857947D01*
X285346303Y-198857947D02*
X285346303Y-199353185D01*
X285346303Y-199353185D02*
X285408207Y-199476995D01*
X285408207Y-199476995D02*
X285470112Y-199538900D01*
X285470112Y-199538900D02*
X285593922Y-199600804D01*
X285593922Y-199600804D02*
X285841541Y-199600804D01*
X285841541Y-199600804D02*
X285965350Y-199538900D01*
X285965350Y-199538900D02*
X286027255Y-199476995D01*
X286027255Y-199476995D02*
X286089160Y-199353185D01*
X286089160Y-199353185D02*
X286089160Y-199043661D01*
X286089160Y-199043661D02*
X286027255Y-198919852D01*
X286027255Y-198919852D02*
X285965350Y-198857947D01*
X285965350Y-198857947D02*
X285841541Y-198796042D01*
X285841541Y-198796042D02*
X285593922Y-198796042D01*
X285593922Y-198796042D02*
X285470112Y-198857947D01*
X285470112Y-198857947D02*
X285408207Y-198919852D01*
X285408207Y-198919852D02*
X285346303Y-199043661D01*
D10*
D11*
X10000000Y-60000000D02*
X12000000Y-60000000D01*
D10*
D11*
X10000000Y-110000000D02*
X12000000Y-110000000D01*
D10*
D11*
X10000000Y-160000000D02*
X12000000Y-160000000D01*
D10*
D11*
X10690476Y-35222176D02*
X11309523Y-35222176D01*
X10566666Y-35593604D02*
X10999999Y-34293604D01*
X10999999Y-34293604D02*
X11433333Y-35593604D01*
D10*
D11*
X11092857Y-84912652D02*
X11278571Y-84974557D01*
X11278571Y-84974557D02*
X11340476Y-85036461D01*
X11340476Y-85036461D02*
X11402380Y-85160271D01*
X11402380Y-85160271D02*
X11402380Y-85345985D01*
X11402380Y-85345985D02*
X11340476Y-85469795D01*
X11340476Y-85469795D02*
X11278571Y-85531700D01*
X11278571Y-85531700D02*
X11154761Y-85593604D01*
X11154761Y-85593604D02*
X10659523Y-85593604D01*
X10659523Y-85593604D02*
X10659523Y-84293604D01*
X10659523Y-84293604D02*
X11092857Y-84293604D01*
X11092857Y-84293604D02*
X11216666Y-84355509D01*
X11216666Y-84355509D02*
X11278571Y-84417414D01*
X11278571Y-84417414D02*
X11340476Y-84541223D01*
X11340476Y-84541223D02*
X11340476Y-84665033D01*
X11340476Y-84665033D02*
X11278571Y-84788842D01*
X11278571Y-84788842D02*
X11216666Y-84850747D01*
X11216666Y-84850747D02*
X11092857Y-84912652D01*
X11092857Y-84912652D02*
X10659523Y-84912652D01*
D10*
D11*
X11402380Y-135469795D02*
X11340476Y-135531700D01*
X11340476Y-135531700D02*
X11154761Y-135593604D01*
X11154761Y-135593604D02*
X11030952Y-135593604D01*
X11030952Y-135593604D02*
X10845238Y-135531700D01*
X10845238Y-135531700D02*
X10721428Y-135407890D01*
X10721428Y-135407890D02*
X10659523Y-135284080D01*
X10659523Y-135284080D02*
X10597619Y-135036461D01*
X10597619Y-135036461D02*
X10597619Y-134850747D01*
X10597619Y-134850747D02*
X10659523Y-134603128D01*
X10659523Y-134603128D02*
X10721428Y-134479319D01*
X10721428Y-134479319D02*
X10845238Y-134355509D01*
X10845238Y-134355509D02*
X11030952Y-134293604D01*
X11030952Y-134293604D02*
X11154761Y-134293604D01*
X11154761Y-134293604D02*
X11340476Y-134355509D01*
X11340476Y-134355509D02*
X11402380Y-134417414D01*
D10*
D11*
X10659523Y-185593604D02*
X10659523Y-184293604D01*
X10659523Y-184293604D02*
X10969047Y-184293604D01*
X10969047Y-184293604D02*
X11154761Y-184355509D01*
X11154761Y-184355509D02*
X11278571Y-184479319D01*
X11278571Y-184479319D02*
X11340476Y-184603128D01*
X11340476Y-184603128D02*
X11402380Y-184850747D01*
X11402380Y-184850747D02*
X11402380Y-185036461D01*
X11402380Y-185036461D02*
X11340476Y-185284080D01*
X11340476Y-185284080D02*
X11278571Y-185407890D01*
X11278571Y-185407890D02*
X11154761Y-185531700D01*
X11154761Y-185531700D02*
X10969047Y-185593604D01*
X10969047Y-185593604D02*
X10659523Y-185593604D01*
D10*
D11*
X287002200Y-60000000D02*
X285002200Y-60000000D01*
D10*
D11*
X287002200Y-110000000D02*
X285002200Y-110000000D01*
D10*
D11*
X287002200Y-160000000D02*
X285002200Y-160000000D01*
D10*
D11*
X285692676Y-35222176D02*
X286311723Y-35222176D01*
X285568866Y-35593604D02*
X286002199Y-34293604D01*
X286002199Y-34293604D02*
X286435533Y-35593604D01*
D10*
D11*
X286095057Y-84912652D02*
X286280771Y-84974557D01*
X286280771Y-84974557D02*
X286342676Y-85036461D01*
X286342676Y-85036461D02*
X286404580Y-85160271D01*
X286404580Y-85160271D02*
X286404580Y-85345985D01*
X286404580Y-85345985D02*
X286342676Y-85469795D01*
X286342676Y-85469795D02*
X286280771Y-85531700D01*
X286280771Y-85531700D02*
X286156961Y-85593604D01*
X286156961Y-85593604D02*
X285661723Y-85593604D01*
X285661723Y-85593604D02*
X285661723Y-84293604D01*
X285661723Y-84293604D02*
X286095057Y-84293604D01*
X286095057Y-84293604D02*
X286218866Y-84355509D01*
X286218866Y-84355509D02*
X286280771Y-84417414D01*
X286280771Y-84417414D02*
X286342676Y-84541223D01*
X286342676Y-84541223D02*
X286342676Y-84665033D01*
X286342676Y-84665033D02*
X286280771Y-84788842D01*
X286280771Y-84788842D02*
X286218866Y-84850747D01*
X286218866Y-84850747D02*
X286095057Y-84912652D01*
X286095057Y-84912652D02*
X285661723Y-84912652D01*
D10*
D11*
X286404580Y-135469795D02*
X286342676Y-135531700D01*
X286342676Y-135531700D02*
X286156961Y-135593604D01*
X286156961Y-135593604D02*
X286033152Y-135593604D01*
X286033152Y-135593604D02*
X285847438Y-135531700D01*
X285847438Y-135531700D02*
X285723628Y-135407890D01*
X285723628Y-135407890D02*
X285661723Y-135284080D01*
X285661723Y-135284080D02*
X285599819Y-135036461D01*
X285599819Y-135036461D02*
X285599819Y-134850747D01*
X285599819Y-134850747D02*
X285661723Y-134603128D01*
X285661723Y-134603128D02*
X285723628Y-134479319D01*
X285723628Y-134479319D02*
X285847438Y-134355509D01*
X285847438Y-134355509D02*
X286033152Y-134293604D01*
X286033152Y-134293604D02*
X286156961Y-134293604D01*
X286156961Y-134293604D02*
X286342676Y-134355509D01*
X286342676Y-134355509D02*
X286404580Y-134417414D01*
D10*
D11*
X285661723Y-185593604D02*
X285661723Y-184293604D01*
X285661723Y-184293604D02*
X285971247Y-184293604D01*
X285971247Y-184293604D02*
X286156961Y-184355509D01*
X286156961Y-184355509D02*
X286280771Y-184479319D01*
X286280771Y-184479319D02*
X286342676Y-184603128D01*
X286342676Y-184603128D02*
X286404580Y-184850747D01*
X286404580Y-184850747D02*
X286404580Y-185036461D01*
X286404580Y-185036461D02*
X286342676Y-185284080D01*
X286342676Y-185284080D02*
X286280771Y-185407890D01*
X286280771Y-185407890D02*
X286156961Y-185531700D01*
X286156961Y-185531700D02*
X285971247Y-185593604D01*
X285971247Y-185593604D02*
X285661723Y-185593604D01*
D10*
D11*
X261958026Y-186293128D02*
X261958026Y-184793128D01*
X261958026Y-184793128D02*
X262315169Y-184793128D01*
X262315169Y-184793128D02*
X262529455Y-184864557D01*
X262529455Y-184864557D02*
X262672312Y-185007414D01*
X262672312Y-185007414D02*
X262743741Y-185150271D01*
X262743741Y-185150271D02*
X262815169Y-185435985D01*
X262815169Y-185435985D02*
X262815169Y-185650271D01*
X262815169Y-185650271D02*
X262743741Y-185935985D01*
X262743741Y-185935985D02*
X262672312Y-186078842D01*
X262672312Y-186078842D02*
X262529455Y-186221700D01*
X262529455Y-186221700D02*
X262315169Y-186293128D01*
X262315169Y-186293128D02*
X261958026Y-186293128D01*
X264100884Y-186293128D02*
X264100884Y-185507414D01*
X264100884Y-185507414D02*
X264029455Y-185364557D01*
X264029455Y-185364557D02*
X263886598Y-185293128D01*
X263886598Y-185293128D02*
X263600884Y-185293128D01*
X263600884Y-185293128D02*
X263458026Y-185364557D01*
X264100884Y-186221700D02*
X263958026Y-186293128D01*
X263958026Y-186293128D02*
X263600884Y-186293128D01*
X263600884Y-186293128D02*
X263458026Y-186221700D01*
X263458026Y-186221700D02*
X263386598Y-186078842D01*
X263386598Y-186078842D02*
X263386598Y-185935985D01*
X263386598Y-185935985D02*
X263458026Y-185793128D01*
X263458026Y-185793128D02*
X263600884Y-185721700D01*
X263600884Y-185721700D02*
X263958026Y-185721700D01*
X263958026Y-185721700D02*
X264100884Y-185650271D01*
X264600884Y-185293128D02*
X265172312Y-185293128D01*
X264815169Y-184793128D02*
X264815169Y-186078842D01*
X264815169Y-186078842D02*
X264886598Y-186221700D01*
X264886598Y-186221700D02*
X265029455Y-186293128D01*
X265029455Y-186293128D02*
X265172312Y-186293128D01*
X266243741Y-186221700D02*
X266100884Y-186293128D01*
X266100884Y-186293128D02*
X265815170Y-186293128D01*
X265815170Y-186293128D02*
X265672312Y-186221700D01*
X265672312Y-186221700D02*
X265600884Y-186078842D01*
X265600884Y-186078842D02*
X265600884Y-185507414D01*
X265600884Y-185507414D02*
X265672312Y-185364557D01*
X265672312Y-185364557D02*
X265815170Y-185293128D01*
X265815170Y-185293128D02*
X266100884Y-185293128D01*
X266100884Y-185293128D02*
X266243741Y-185364557D01*
X266243741Y-185364557D02*
X266315170Y-185507414D01*
X266315170Y-185507414D02*
X266315170Y-185650271D01*
X266315170Y-185650271D02*
X265600884Y-185793128D01*
X266958026Y-186150271D02*
X267029455Y-186221700D01*
X267029455Y-186221700D02*
X266958026Y-186293128D01*
X266958026Y-186293128D02*
X266886598Y-186221700D01*
X266886598Y-186221700D02*
X266958026Y-186150271D01*
X266958026Y-186150271D02*
X266958026Y-186293128D01*
X266958026Y-185364557D02*
X267029455Y-185435985D01*
X267029455Y-185435985D02*
X266958026Y-185507414D01*
X266958026Y-185507414D02*
X266886598Y-185435985D01*
X266886598Y-185435985D02*
X266958026Y-185364557D01*
X266958026Y-185364557D02*
X266958026Y-185507414D01*
X268743741Y-184935985D02*
X268815169Y-184864557D01*
X268815169Y-184864557D02*
X268958027Y-184793128D01*
X268958027Y-184793128D02*
X269315169Y-184793128D01*
X269315169Y-184793128D02*
X269458027Y-184864557D01*
X269458027Y-184864557D02*
X269529455Y-184935985D01*
X269529455Y-184935985D02*
X269600884Y-185078842D01*
X269600884Y-185078842D02*
X269600884Y-185221700D01*
X269600884Y-185221700D02*
X269529455Y-185435985D01*
X269529455Y-185435985D02*
X268672312Y-186293128D01*
X268672312Y-186293128D02*
X269600884Y-186293128D01*
X270529455Y-184793128D02*
X270672312Y-184793128D01*
X270672312Y-184793128D02*
X270815169Y-184864557D01*
X270815169Y-184864557D02*
X270886598Y-184935985D01*
X270886598Y-184935985D02*
X270958026Y-185078842D01*
X270958026Y-185078842D02*
X271029455Y-185364557D01*
X271029455Y-185364557D02*
X271029455Y-185721700D01*
X271029455Y-185721700D02*
X270958026Y-186007414D01*
X270958026Y-186007414D02*
X270886598Y-186150271D01*
X270886598Y-186150271D02*
X270815169Y-186221700D01*
X270815169Y-186221700D02*
X270672312Y-186293128D01*
X270672312Y-186293128D02*
X270529455Y-186293128D01*
X270529455Y-186293128D02*
X270386598Y-186221700D01*
X270386598Y-186221700D02*
X270315169Y-186150271D01*
X270315169Y-186150271D02*
X270243740Y-186007414D01*
X270243740Y-186007414D02*
X270172312Y-185721700D01*
X270172312Y-185721700D02*
X270172312Y-185364557D01*
X270172312Y-185364557D02*
X270243740Y-185078842D01*
X270243740Y-185078842D02*
X270315169Y-184935985D01*
X270315169Y-184935985D02*
X270386598Y-184864557D01*
X270386598Y-184864557D02*
X270529455Y-184793128D01*
X271600883Y-184935985D02*
X271672311Y-184864557D01*
X271672311Y-184864557D02*
X271815169Y-184793128D01*
X271815169Y-184793128D02*
X272172311Y-184793128D01*
X272172311Y-184793128D02*
X272315169Y-184864557D01*
X272315169Y-184864557D02*
X272386597Y-184935985D01*
X272386597Y-184935985D02*
X272458026Y-185078842D01*
X272458026Y-185078842D02*
X272458026Y-185221700D01*
X272458026Y-185221700D02*
X272386597Y-185435985D01*
X272386597Y-185435985D02*
X271529454Y-186293128D01*
X271529454Y-186293128D02*
X272458026Y-186293128D01*
X273743740Y-185293128D02*
X273743740Y-186293128D01*
X273386597Y-184721700D02*
X273029454Y-185793128D01*
X273029454Y-185793128D02*
X273958025Y-185793128D01*
X274529453Y-185721700D02*
X275672311Y-185721700D01*
X276672311Y-184793128D02*
X276815168Y-184793128D01*
X276815168Y-184793128D02*
X276958025Y-184864557D01*
X276958025Y-184864557D02*
X277029454Y-184935985D01*
X277029454Y-184935985D02*
X277100882Y-185078842D01*
X277100882Y-185078842D02*
X277172311Y-185364557D01*
X277172311Y-185364557D02*
X277172311Y-185721700D01*
X277172311Y-185721700D02*
X277100882Y-186007414D01*
X277100882Y-186007414D02*
X277029454Y-186150271D01*
X277029454Y-186150271D02*
X276958025Y-186221700D01*
X276958025Y-186221700D02*
X276815168Y-186293128D01*
X276815168Y-186293128D02*
X276672311Y-186293128D01*
X276672311Y-186293128D02*
X276529454Y-186221700D01*
X276529454Y-186221700D02*
X276458025Y-186150271D01*
X276458025Y-186150271D02*
X276386596Y-186007414D01*
X276386596Y-186007414D02*
X276315168Y-185721700D01*
X276315168Y-185721700D02*
X276315168Y-185364557D01*
X276315168Y-185364557D02*
X276386596Y-185078842D01*
X276386596Y-185078842D02*
X276458025Y-184935985D01*
X276458025Y-184935985D02*
X276529454Y-184864557D01*
X276529454Y-184864557D02*
X276672311Y-184793128D01*
X278600882Y-186293128D02*
X277743739Y-186293128D01*
X278172310Y-186293128D02*
X278172310Y-184793128D01*
X278172310Y-184793128D02*
X278029453Y-185007414D01*
X278029453Y-185007414D02*
X277886596Y-185150271D01*
X277886596Y-185150271D02*
X277743739Y-185221700D01*
X279243738Y-185721700D02*
X280386596Y-185721700D01*
X281386596Y-184793128D02*
X281529453Y-184793128D01*
X281529453Y-184793128D02*
X281672310Y-184864557D01*
X281672310Y-184864557D02*
X281743739Y-184935985D01*
X281743739Y-184935985D02*
X281815167Y-185078842D01*
X281815167Y-185078842D02*
X281886596Y-185364557D01*
X281886596Y-185364557D02*
X281886596Y-185721700D01*
X281886596Y-185721700D02*
X281815167Y-186007414D01*
X281815167Y-186007414D02*
X281743739Y-186150271D01*
X281743739Y-186150271D02*
X281672310Y-186221700D01*
X281672310Y-186221700D02*
X281529453Y-186293128D01*
X281529453Y-186293128D02*
X281386596Y-186293128D01*
X281386596Y-186293128D02*
X281243739Y-186221700D01*
X281243739Y-186221700D02*
X281172310Y-186150271D01*
X281172310Y-186150271D02*
X281100881Y-186007414D01*
X281100881Y-186007414D02*
X281029453Y-185721700D01*
X281029453Y-185721700D02*
X281029453Y-185364557D01*
X281029453Y-185364557D02*
X281100881Y-185078842D01*
X281100881Y-185078842D02*
X281172310Y-184935985D01*
X281172310Y-184935985D02*
X281243739Y-184864557D01*
X281243739Y-184864557D02*
X281386596Y-184793128D01*
X283172310Y-184793128D02*
X282886595Y-184793128D01*
X282886595Y-184793128D02*
X282743738Y-184864557D01*
X282743738Y-184864557D02*
X282672310Y-184935985D01*
X282672310Y-184935985D02*
X282529452Y-185150271D01*
X282529452Y-185150271D02*
X282458024Y-185435985D01*
X282458024Y-185435985D02*
X282458024Y-186007414D01*
X282458024Y-186007414D02*
X282529452Y-186150271D01*
X282529452Y-186150271D02*
X282600881Y-186221700D01*
X282600881Y-186221700D02*
X282743738Y-186293128D01*
X282743738Y-186293128D02*
X283029452Y-186293128D01*
X283029452Y-186293128D02*
X283172310Y-186221700D01*
X283172310Y-186221700D02*
X283243738Y-186150271D01*
X283243738Y-186150271D02*
X283315167Y-186007414D01*
X283315167Y-186007414D02*
X283315167Y-185650271D01*
X283315167Y-185650271D02*
X283243738Y-185507414D01*
X283243738Y-185507414D02*
X283172310Y-185435985D01*
X283172310Y-185435985D02*
X283029452Y-185364557D01*
X283029452Y-185364557D02*
X282743738Y-185364557D01*
X282743738Y-185364557D02*
X282600881Y-185435985D01*
X282600881Y-185435985D02*
X282529452Y-185507414D01*
X282529452Y-185507414D02*
X282458024Y-185650271D01*
D10*
D11*
X177002200Y-194507200D02*
X285002200Y-194507200D01*
D10*
D11*
X178458026Y-196593328D02*
X178458026Y-195093328D01*
X179315169Y-196593328D02*
X178672312Y-195736185D01*
X179315169Y-195093328D02*
X178458026Y-195950471D01*
X179958026Y-196593328D02*
X179958026Y-195593328D01*
X179958026Y-195093328D02*
X179886598Y-195164757D01*
X179886598Y-195164757D02*
X179958026Y-195236185D01*
X179958026Y-195236185D02*
X180029455Y-195164757D01*
X180029455Y-195164757D02*
X179958026Y-195093328D01*
X179958026Y-195093328D02*
X179958026Y-195236185D01*
X181529455Y-196450471D02*
X181458027Y-196521900D01*
X181458027Y-196521900D02*
X181243741Y-196593328D01*
X181243741Y-196593328D02*
X181100884Y-196593328D01*
X181100884Y-196593328D02*
X180886598Y-196521900D01*
X180886598Y-196521900D02*
X180743741Y-196379042D01*
X180743741Y-196379042D02*
X180672312Y-196236185D01*
X180672312Y-196236185D02*
X180600884Y-195950471D01*
X180600884Y-195950471D02*
X180600884Y-195736185D01*
X180600884Y-195736185D02*
X180672312Y-195450471D01*
X180672312Y-195450471D02*
X180743741Y-195307614D01*
X180743741Y-195307614D02*
X180886598Y-195164757D01*
X180886598Y-195164757D02*
X181100884Y-195093328D01*
X181100884Y-195093328D02*
X181243741Y-195093328D01*
X181243741Y-195093328D02*
X181458027Y-195164757D01*
X181458027Y-195164757D02*
X181529455Y-195236185D01*
X182815170Y-196593328D02*
X182815170Y-195807614D01*
X182815170Y-195807614D02*
X182743741Y-195664757D01*
X182743741Y-195664757D02*
X182600884Y-195593328D01*
X182600884Y-195593328D02*
X182315170Y-195593328D01*
X182315170Y-195593328D02*
X182172312Y-195664757D01*
X182815170Y-196521900D02*
X182672312Y-196593328D01*
X182672312Y-196593328D02*
X182315170Y-196593328D01*
X182315170Y-196593328D02*
X182172312Y-196521900D01*
X182172312Y-196521900D02*
X182100884Y-196379042D01*
X182100884Y-196379042D02*
X182100884Y-196236185D01*
X182100884Y-196236185D02*
X182172312Y-196093328D01*
X182172312Y-196093328D02*
X182315170Y-196021900D01*
X182315170Y-196021900D02*
X182672312Y-196021900D01*
X182672312Y-196021900D02*
X182815170Y-195950471D01*
X184172313Y-196593328D02*
X184172313Y-195093328D01*
X184172313Y-196521900D02*
X184029455Y-196593328D01*
X184029455Y-196593328D02*
X183743741Y-196593328D01*
X183743741Y-196593328D02*
X183600884Y-196521900D01*
X183600884Y-196521900D02*
X183529455Y-196450471D01*
X183529455Y-196450471D02*
X183458027Y-196307614D01*
X183458027Y-196307614D02*
X183458027Y-195879042D01*
X183458027Y-195879042D02*
X183529455Y-195736185D01*
X183529455Y-195736185D02*
X183600884Y-195664757D01*
X183600884Y-195664757D02*
X183743741Y-195593328D01*
X183743741Y-195593328D02*
X184029455Y-195593328D01*
X184029455Y-195593328D02*
X184172313Y-195664757D01*
X186029455Y-195807614D02*
X186529455Y-195807614D01*
X186743741Y-196593328D02*
X186029455Y-196593328D01*
X186029455Y-196593328D02*
X186029455Y-195093328D01*
X186029455Y-195093328D02*
X186743741Y-195093328D01*
X187386598Y-196450471D02*
X187458027Y-196521900D01*
X187458027Y-196521900D02*
X187386598Y-196593328D01*
X187386598Y-196593328D02*
X187315170Y-196521900D01*
X187315170Y-196521900D02*
X187386598Y-196450471D01*
X187386598Y-196450471D02*
X187386598Y-196593328D01*
X188100884Y-196593328D02*
X188100884Y-195093328D01*
X188100884Y-195093328D02*
X188458027Y-195093328D01*
X188458027Y-195093328D02*
X188672313Y-195164757D01*
X188672313Y-195164757D02*
X188815170Y-195307614D01*
X188815170Y-195307614D02*
X188886599Y-195450471D01*
X188886599Y-195450471D02*
X188958027Y-195736185D01*
X188958027Y-195736185D02*
X188958027Y-195950471D01*
X188958027Y-195950471D02*
X188886599Y-196236185D01*
X188886599Y-196236185D02*
X188815170Y-196379042D01*
X188815170Y-196379042D02*
X188672313Y-196521900D01*
X188672313Y-196521900D02*
X188458027Y-196593328D01*
X188458027Y-196593328D02*
X188100884Y-196593328D01*
X189600884Y-196450471D02*
X189672313Y-196521900D01*
X189672313Y-196521900D02*
X189600884Y-196593328D01*
X189600884Y-196593328D02*
X189529456Y-196521900D01*
X189529456Y-196521900D02*
X189600884Y-196450471D01*
X189600884Y-196450471D02*
X189600884Y-196593328D01*
X190243742Y-196164757D02*
X190958028Y-196164757D01*
X190100885Y-196593328D02*
X190600885Y-195093328D01*
X190600885Y-195093328D02*
X191100885Y-196593328D01*
X191600884Y-196450471D02*
X191672313Y-196521900D01*
X191672313Y-196521900D02*
X191600884Y-196593328D01*
X191600884Y-196593328D02*
X191529456Y-196521900D01*
X191529456Y-196521900D02*
X191600884Y-196450471D01*
X191600884Y-196450471D02*
X191600884Y-196593328D01*
X193672313Y-195736185D02*
X193529456Y-195664757D01*
X193529456Y-195664757D02*
X193458027Y-195593328D01*
X193458027Y-195593328D02*
X193386599Y-195450471D01*
X193386599Y-195450471D02*
X193386599Y-195379042D01*
X193386599Y-195379042D02*
X193458027Y-195236185D01*
X193458027Y-195236185D02*
X193529456Y-195164757D01*
X193529456Y-195164757D02*
X193672313Y-195093328D01*
X193672313Y-195093328D02*
X193958027Y-195093328D01*
X193958027Y-195093328D02*
X194100885Y-195164757D01*
X194100885Y-195164757D02*
X194172313Y-195236185D01*
X194172313Y-195236185D02*
X194243742Y-195379042D01*
X194243742Y-195379042D02*
X194243742Y-195450471D01*
X194243742Y-195450471D02*
X194172313Y-195593328D01*
X194172313Y-195593328D02*
X194100885Y-195664757D01*
X194100885Y-195664757D02*
X193958027Y-195736185D01*
X193958027Y-195736185D02*
X193672313Y-195736185D01*
X193672313Y-195736185D02*
X193529456Y-195807614D01*
X193529456Y-195807614D02*
X193458027Y-195879042D01*
X193458027Y-195879042D02*
X193386599Y-196021900D01*
X193386599Y-196021900D02*
X193386599Y-196307614D01*
X193386599Y-196307614D02*
X193458027Y-196450471D01*
X193458027Y-196450471D02*
X193529456Y-196521900D01*
X193529456Y-196521900D02*
X193672313Y-196593328D01*
X193672313Y-196593328D02*
X193958027Y-196593328D01*
X193958027Y-196593328D02*
X194100885Y-196521900D01*
X194100885Y-196521900D02*
X194172313Y-196450471D01*
X194172313Y-196450471D02*
X194243742Y-196307614D01*
X194243742Y-196307614D02*
X194243742Y-196021900D01*
X194243742Y-196021900D02*
X194172313Y-195879042D01*
X194172313Y-195879042D02*
X194100885Y-195807614D01*
X194100885Y-195807614D02*
X193958027Y-195736185D01*
X194886598Y-196450471D02*
X194958027Y-196521900D01*
X194958027Y-196521900D02*
X194886598Y-196593328D01*
X194886598Y-196593328D02*
X194815170Y-196521900D01*
X194815170Y-196521900D02*
X194886598Y-196450471D01*
X194886598Y-196450471D02*
X194886598Y-196593328D01*
X195886599Y-195093328D02*
X196029456Y-195093328D01*
X196029456Y-195093328D02*
X196172313Y-195164757D01*
X196172313Y-195164757D02*
X196243742Y-195236185D01*
X196243742Y-195236185D02*
X196315170Y-195379042D01*
X196315170Y-195379042D02*
X196386599Y-195664757D01*
X196386599Y-195664757D02*
X196386599Y-196021900D01*
X196386599Y-196021900D02*
X196315170Y-196307614D01*
X196315170Y-196307614D02*
X196243742Y-196450471D01*
X196243742Y-196450471D02*
X196172313Y-196521900D01*
X196172313Y-196521900D02*
X196029456Y-196593328D01*
X196029456Y-196593328D02*
X195886599Y-196593328D01*
X195886599Y-196593328D02*
X195743742Y-196521900D01*
X195743742Y-196521900D02*
X195672313Y-196450471D01*
X195672313Y-196450471D02*
X195600884Y-196307614D01*
X195600884Y-196307614D02*
X195529456Y-196021900D01*
X195529456Y-196021900D02*
X195529456Y-195664757D01*
X195529456Y-195664757D02*
X195600884Y-195379042D01*
X195600884Y-195379042D02*
X195672313Y-195236185D01*
X195672313Y-195236185D02*
X195743742Y-195164757D01*
X195743742Y-195164757D02*
X195886599Y-195093328D01*
X197029455Y-196450471D02*
X197100884Y-196521900D01*
X197100884Y-196521900D02*
X197029455Y-196593328D01*
X197029455Y-196593328D02*
X196958027Y-196521900D01*
X196958027Y-196521900D02*
X197029455Y-196450471D01*
X197029455Y-196450471D02*
X197029455Y-196593328D01*
X197600884Y-195093328D02*
X198529456Y-195093328D01*
X198529456Y-195093328D02*
X198029456Y-195664757D01*
X198029456Y-195664757D02*
X198243741Y-195664757D01*
X198243741Y-195664757D02*
X198386599Y-195736185D01*
X198386599Y-195736185D02*
X198458027Y-195807614D01*
X198458027Y-195807614D02*
X198529456Y-195950471D01*
X198529456Y-195950471D02*
X198529456Y-196307614D01*
X198529456Y-196307614D02*
X198458027Y-196450471D01*
X198458027Y-196450471D02*
X198386599Y-196521900D01*
X198386599Y-196521900D02*
X198243741Y-196593328D01*
X198243741Y-196593328D02*
X197815170Y-196593328D01*
X197815170Y-196593328D02*
X197672313Y-196521900D01*
X197672313Y-196521900D02*
X197600884Y-196450471D01*
D10*
D12*
X264413853Y-193785528D02*
X263913853Y-193071242D01*
X263556710Y-193785528D02*
X263556710Y-192285528D01*
X263556710Y-192285528D02*
X264128139Y-192285528D01*
X264128139Y-192285528D02*
X264270996Y-192356957D01*
X264270996Y-192356957D02*
X264342425Y-192428385D01*
X264342425Y-192428385D02*
X264413853Y-192571242D01*
X264413853Y-192571242D02*
X264413853Y-192785528D01*
X264413853Y-192785528D02*
X264342425Y-192928385D01*
X264342425Y-192928385D02*
X264270996Y-192999814D01*
X264270996Y-192999814D02*
X264128139Y-193071242D01*
X264128139Y-193071242D02*
X263556710Y-193071242D01*
X265628139Y-193714100D02*
X265485282Y-193785528D01*
X265485282Y-193785528D02*
X265199568Y-193785528D01*
X265199568Y-193785528D02*
X265056710Y-193714100D01*
X265056710Y-193714100D02*
X264985282Y-193571242D01*
X264985282Y-193571242D02*
X264985282Y-192999814D01*
X264985282Y-192999814D02*
X265056710Y-192856957D01*
X265056710Y-192856957D02*
X265199568Y-192785528D01*
X265199568Y-192785528D02*
X265485282Y-192785528D01*
X265485282Y-192785528D02*
X265628139Y-192856957D01*
X265628139Y-192856957D02*
X265699568Y-192999814D01*
X265699568Y-192999814D02*
X265699568Y-193142671D01*
X265699568Y-193142671D02*
X264985282Y-193285528D01*
X266199567Y-192785528D02*
X266556710Y-193785528D01*
X266556710Y-193785528D02*
X266913853Y-192785528D01*
X267485281Y-193642671D02*
X267556710Y-193714100D01*
X267556710Y-193714100D02*
X267485281Y-193785528D01*
X267485281Y-193785528D02*
X267413853Y-193714100D01*
X267413853Y-193714100D02*
X267485281Y-193642671D01*
X267485281Y-193642671D02*
X267485281Y-193785528D01*
X267485281Y-192856957D02*
X267556710Y-192928385D01*
X267556710Y-192928385D02*
X267485281Y-192999814D01*
X267485281Y-192999814D02*
X267413853Y-192928385D01*
X267413853Y-192928385D02*
X267485281Y-192856957D01*
X267485281Y-192856957D02*
X267485281Y-192999814D01*
X269199567Y-192785528D02*
X269556710Y-193785528D01*
X269556710Y-193785528D02*
X269913853Y-192785528D01*
X271270996Y-193785528D02*
X270413853Y-193785528D01*
X270842424Y-193785528D02*
X270842424Y-192285528D01*
X270842424Y-192285528D02*
X270699567Y-192499814D01*
X270699567Y-192499814D02*
X270556710Y-192642671D01*
X270556710Y-192642671D02*
X270413853Y-192714100D01*
X271913852Y-193642671D02*
X271985281Y-193714100D01*
X271985281Y-193714100D02*
X271913852Y-193785528D01*
X271913852Y-193785528D02*
X271842424Y-193714100D01*
X271842424Y-193714100D02*
X271913852Y-193642671D01*
X271913852Y-193642671D02*
X271913852Y-193785528D01*
X272913853Y-192285528D02*
X273056710Y-192285528D01*
X273056710Y-192285528D02*
X273199567Y-192356957D01*
X273199567Y-192356957D02*
X273270996Y-192428385D01*
X273270996Y-192428385D02*
X273342424Y-192571242D01*
X273342424Y-192571242D02*
X273413853Y-192856957D01*
X273413853Y-192856957D02*
X273413853Y-193214100D01*
X273413853Y-193214100D02*
X273342424Y-193499814D01*
X273342424Y-193499814D02*
X273270996Y-193642671D01*
X273270996Y-193642671D02*
X273199567Y-193714100D01*
X273199567Y-193714100D02*
X273056710Y-193785528D01*
X273056710Y-193785528D02*
X272913853Y-193785528D01*
X272913853Y-193785528D02*
X272770996Y-193714100D01*
X272770996Y-193714100D02*
X272699567Y-193642671D01*
X272699567Y-193642671D02*
X272628138Y-193499814D01*
X272628138Y-193499814D02*
X272556710Y-193214100D01*
X272556710Y-193214100D02*
X272556710Y-192856957D01*
X272556710Y-192856957D02*
X272628138Y-192571242D01*
X272628138Y-192571242D02*
X272699567Y-192428385D01*
X272699567Y-192428385D02*
X272770996Y-192356957D01*
X272770996Y-192356957D02*
X272913853Y-192285528D01*
X274056709Y-193642671D02*
X274128138Y-193714100D01*
X274128138Y-193714100D02*
X274056709Y-193785528D01*
X274056709Y-193785528D02*
X273985281Y-193714100D01*
X273985281Y-193714100D02*
X274056709Y-193642671D01*
X274056709Y-193642671D02*
X274056709Y-193785528D01*
X275056710Y-192285528D02*
X275199567Y-192285528D01*
X275199567Y-192285528D02*
X275342424Y-192356957D01*
X275342424Y-192356957D02*
X275413853Y-192428385D01*
X275413853Y-192428385D02*
X275485281Y-192571242D01*
X275485281Y-192571242D02*
X275556710Y-192856957D01*
X275556710Y-192856957D02*
X275556710Y-193214100D01*
X275556710Y-193214100D02*
X275485281Y-193499814D01*
X275485281Y-193499814D02*
X275413853Y-193642671D01*
X275413853Y-193642671D02*
X275342424Y-193714100D01*
X275342424Y-193714100D02*
X275199567Y-193785528D01*
X275199567Y-193785528D02*
X275056710Y-193785528D01*
X275056710Y-193785528D02*
X274913853Y-193714100D01*
X274913853Y-193714100D02*
X274842424Y-193642671D01*
X274842424Y-193642671D02*
X274770995Y-193499814D01*
X274770995Y-193499814D02*
X274699567Y-193214100D01*
X274699567Y-193214100D02*
X274699567Y-192856957D01*
X274699567Y-192856957D02*
X274770995Y-192571242D01*
X274770995Y-192571242D02*
X274842424Y-192428385D01*
X274842424Y-192428385D02*
X274913853Y-192356957D01*
X274913853Y-192356957D02*
X275056710Y-192285528D01*
D10*
D11*
X263886598Y-190221700D02*
X264100884Y-190293128D01*
X264100884Y-190293128D02*
X264458026Y-190293128D01*
X264458026Y-190293128D02*
X264600884Y-190221700D01*
X264600884Y-190221700D02*
X264672312Y-190150271D01*
X264672312Y-190150271D02*
X264743741Y-190007414D01*
X264743741Y-190007414D02*
X264743741Y-189864557D01*
X264743741Y-189864557D02*
X264672312Y-189721700D01*
X264672312Y-189721700D02*
X264600884Y-189650271D01*
X264600884Y-189650271D02*
X264458026Y-189578842D01*
X264458026Y-189578842D02*
X264172312Y-189507414D01*
X264172312Y-189507414D02*
X264029455Y-189435985D01*
X264029455Y-189435985D02*
X263958026Y-189364557D01*
X263958026Y-189364557D02*
X263886598Y-189221700D01*
X263886598Y-189221700D02*
X263886598Y-189078842D01*
X263886598Y-189078842D02*
X263958026Y-188935985D01*
X263958026Y-188935985D02*
X264029455Y-188864557D01*
X264029455Y-188864557D02*
X264172312Y-188793128D01*
X264172312Y-188793128D02*
X264529455Y-188793128D01*
X264529455Y-188793128D02*
X264743741Y-188864557D01*
X265386597Y-190293128D02*
X265386597Y-189293128D01*
X265386597Y-188793128D02*
X265315169Y-188864557D01*
X265315169Y-188864557D02*
X265386597Y-188935985D01*
X265386597Y-188935985D02*
X265458026Y-188864557D01*
X265458026Y-188864557D02*
X265386597Y-188793128D01*
X265386597Y-188793128D02*
X265386597Y-188935985D01*
X265958026Y-189293128D02*
X266743741Y-189293128D01*
X266743741Y-189293128D02*
X265958026Y-190293128D01*
X265958026Y-190293128D02*
X266743741Y-190293128D01*
X267886598Y-190221700D02*
X267743741Y-190293128D01*
X267743741Y-190293128D02*
X267458027Y-190293128D01*
X267458027Y-190293128D02*
X267315169Y-190221700D01*
X267315169Y-190221700D02*
X267243741Y-190078842D01*
X267243741Y-190078842D02*
X267243741Y-189507414D01*
X267243741Y-189507414D02*
X267315169Y-189364557D01*
X267315169Y-189364557D02*
X267458027Y-189293128D01*
X267458027Y-189293128D02*
X267743741Y-189293128D01*
X267743741Y-189293128D02*
X267886598Y-189364557D01*
X267886598Y-189364557D02*
X267958027Y-189507414D01*
X267958027Y-189507414D02*
X267958027Y-189650271D01*
X267958027Y-189650271D02*
X267243741Y-189793128D01*
X268600883Y-190150271D02*
X268672312Y-190221700D01*
X268672312Y-190221700D02*
X268600883Y-190293128D01*
X268600883Y-190293128D02*
X268529455Y-190221700D01*
X268529455Y-190221700D02*
X268600883Y-190150271D01*
X268600883Y-190150271D02*
X268600883Y-190293128D01*
X268600883Y-189364557D02*
X268672312Y-189435985D01*
X268672312Y-189435985D02*
X268600883Y-189507414D01*
X268600883Y-189507414D02*
X268529455Y-189435985D01*
X268529455Y-189435985D02*
X268600883Y-189364557D01*
X268600883Y-189364557D02*
X268600883Y-189507414D01*
X270386598Y-189864557D02*
X271100884Y-189864557D01*
X270243741Y-190293128D02*
X270743741Y-188793128D01*
X270743741Y-188793128D02*
X271243741Y-190293128D01*
X272386598Y-189293128D02*
X272386598Y-190293128D01*
X272029455Y-188721700D02*
X271672312Y-189793128D01*
X271672312Y-189793128D02*
X272600883Y-189793128D01*
D10*
D11*
X263458026Y-196593328D02*
X263458026Y-195093328D01*
X264815170Y-196593328D02*
X264815170Y-195093328D01*
X264815170Y-196521900D02*
X264672312Y-196593328D01*
X264672312Y-196593328D02*
X264386598Y-196593328D01*
X264386598Y-196593328D02*
X264243741Y-196521900D01*
X264243741Y-196521900D02*
X264172312Y-196450471D01*
X264172312Y-196450471D02*
X264100884Y-196307614D01*
X264100884Y-196307614D02*
X264100884Y-195879042D01*
X264100884Y-195879042D02*
X264172312Y-195736185D01*
X264172312Y-195736185D02*
X264243741Y-195664757D01*
X264243741Y-195664757D02*
X264386598Y-195593328D01*
X264386598Y-195593328D02*
X264672312Y-195593328D01*
X264672312Y-195593328D02*
X264815170Y-195664757D01*
X265529455Y-196450471D02*
X265600884Y-196521900D01*
X265600884Y-196521900D02*
X265529455Y-196593328D01*
X265529455Y-196593328D02*
X265458027Y-196521900D01*
X265458027Y-196521900D02*
X265529455Y-196450471D01*
X265529455Y-196450471D02*
X265529455Y-196593328D01*
X265529455Y-195664757D02*
X265600884Y-195736185D01*
X265600884Y-195736185D02*
X265529455Y-195807614D01*
X265529455Y-195807614D02*
X265458027Y-195736185D01*
X265458027Y-195736185D02*
X265529455Y-195664757D01*
X265529455Y-195664757D02*
X265529455Y-195807614D01*
X268172313Y-196593328D02*
X267315170Y-196593328D01*
X267743741Y-196593328D02*
X267743741Y-195093328D01*
X267743741Y-195093328D02*
X267600884Y-195307614D01*
X267600884Y-195307614D02*
X267458027Y-195450471D01*
X267458027Y-195450471D02*
X267315170Y-195521900D01*
X269886598Y-195021900D02*
X268600884Y-196950471D01*
X271172313Y-196593328D02*
X270315170Y-196593328D01*
X270743741Y-196593328D02*
X270743741Y-195093328D01*
X270743741Y-195093328D02*
X270600884Y-195307614D01*
X270600884Y-195307614D02*
X270458027Y-195450471D01*
X270458027Y-195450471D02*
X270315170Y-195521900D01*
D10*
D11*
X177002200Y-187507200D02*
X285002200Y-187507200D01*
D10*
D13*
X178693928Y-189711438D02*
X179836785Y-189711438D01*
X179015357Y-191711438D02*
X179265357Y-189711438D01*
X180253452Y-191711438D02*
X180420119Y-190378104D01*
X180503452Y-189711438D02*
X180396309Y-189806676D01*
X180396309Y-189806676D02*
X180479643Y-189901914D01*
X180479643Y-189901914D02*
X180586786Y-189806676D01*
X180586786Y-189806676D02*
X180503452Y-189711438D01*
X180503452Y-189711438D02*
X180479643Y-189901914D01*
X181086786Y-190378104D02*
X181848690Y-190378104D01*
X181455833Y-189711438D02*
X181241548Y-191425723D01*
X181241548Y-191425723D02*
X181312976Y-191616200D01*
X181312976Y-191616200D02*
X181491548Y-191711438D01*
X181491548Y-191711438D02*
X181682024Y-191711438D01*
X182634405Y-191711438D02*
X182455833Y-191616200D01*
X182455833Y-191616200D02*
X182384405Y-191425723D01*
X182384405Y-191425723D02*
X182598690Y-189711438D01*
X184170119Y-191616200D02*
X183967738Y-191711438D01*
X183967738Y-191711438D02*
X183586785Y-191711438D01*
X183586785Y-191711438D02*
X183408214Y-191616200D01*
X183408214Y-191616200D02*
X183336785Y-191425723D01*
X183336785Y-191425723D02*
X183432024Y-190663819D01*
X183432024Y-190663819D02*
X183551071Y-190473342D01*
X183551071Y-190473342D02*
X183753452Y-190378104D01*
X183753452Y-190378104D02*
X184134404Y-190378104D01*
X184134404Y-190378104D02*
X184312976Y-190473342D01*
X184312976Y-190473342D02*
X184384404Y-190663819D01*
X184384404Y-190663819D02*
X184360595Y-190854295D01*
X184360595Y-190854295D02*
X183384404Y-191044771D01*
X185134405Y-191520961D02*
X185217738Y-191616200D01*
X185217738Y-191616200D02*
X185110595Y-191711438D01*
X185110595Y-191711438D02*
X185027262Y-191616200D01*
X185027262Y-191616200D02*
X185134405Y-191520961D01*
X185134405Y-191520961D02*
X185110595Y-191711438D01*
X185265357Y-190473342D02*
X185348690Y-190568580D01*
X185348690Y-190568580D02*
X185241548Y-190663819D01*
X185241548Y-190663819D02*
X185158214Y-190568580D01*
X185158214Y-190568580D02*
X185265357Y-190473342D01*
X185265357Y-190473342D02*
X185241548Y-190663819D01*
X187562977Y-191140009D02*
X188515358Y-191140009D01*
X187301072Y-191711438D02*
X188217739Y-189711438D01*
X188217739Y-189711438D02*
X188634405Y-191711438D01*
X189301072Y-191711438D02*
X189467739Y-190378104D01*
X189443929Y-190568580D02*
X189551072Y-190473342D01*
X189551072Y-190473342D02*
X189753453Y-190378104D01*
X189753453Y-190378104D02*
X190039167Y-190378104D01*
X190039167Y-190378104D02*
X190217739Y-190473342D01*
X190217739Y-190473342D02*
X190289167Y-190663819D01*
X190289167Y-190663819D02*
X190158215Y-191711438D01*
X190289167Y-190663819D02*
X190408215Y-190473342D01*
X190408215Y-190473342D02*
X190610596Y-190378104D01*
X190610596Y-190378104D02*
X190896310Y-190378104D01*
X190896310Y-190378104D02*
X191074882Y-190473342D01*
X191074882Y-190473342D02*
X191146310Y-190663819D01*
X191146310Y-190663819D02*
X191015358Y-191711438D01*
X192134406Y-190378104D02*
X191884406Y-192378104D01*
X192122501Y-190473342D02*
X192324882Y-190378104D01*
X192324882Y-190378104D02*
X192705834Y-190378104D01*
X192705834Y-190378104D02*
X192884406Y-190473342D01*
X192884406Y-190473342D02*
X192967739Y-190568580D01*
X192967739Y-190568580D02*
X193039168Y-190759057D01*
X193039168Y-190759057D02*
X192967739Y-191330485D01*
X192967739Y-191330485D02*
X192848692Y-191520961D01*
X192848692Y-191520961D02*
X192741549Y-191616200D01*
X192741549Y-191616200D02*
X192539168Y-191711438D01*
X192539168Y-191711438D02*
X192158215Y-191711438D01*
X192158215Y-191711438D02*
X191979644Y-191616200D01*
X194062978Y-191711438D02*
X193884406Y-191616200D01*
X193884406Y-191616200D02*
X193812978Y-191425723D01*
X193812978Y-191425723D02*
X194027263Y-189711438D01*
X194824882Y-191711438D02*
X194991549Y-190378104D01*
X195074882Y-189711438D02*
X194967739Y-189806676D01*
X194967739Y-189806676D02*
X195051073Y-189901914D01*
X195051073Y-189901914D02*
X195158216Y-189806676D01*
X195158216Y-189806676D02*
X195074882Y-189711438D01*
X195074882Y-189711438D02*
X195051073Y-189901914D01*
X195872501Y-190949533D02*
X197396311Y-190949533D01*
X198229644Y-190378104D02*
X199277263Y-190378104D01*
X199277263Y-190378104D02*
X198062977Y-191711438D01*
X198062977Y-191711438D02*
X199110596Y-191711438D01*
X200646311Y-191616200D02*
X200443930Y-191711438D01*
X200443930Y-191711438D02*
X200062977Y-191711438D01*
X200062977Y-191711438D02*
X199884406Y-191616200D01*
X199884406Y-191616200D02*
X199812977Y-191425723D01*
X199812977Y-191425723D02*
X199908216Y-190663819D01*
X199908216Y-190663819D02*
X200027263Y-190473342D01*
X200027263Y-190473342D02*
X200229644Y-190378104D01*
X200229644Y-190378104D02*
X200610596Y-190378104D01*
X200610596Y-190378104D02*
X200789168Y-190473342D01*
X200789168Y-190473342D02*
X200860596Y-190663819D01*
X200860596Y-190663819D02*
X200836787Y-190854295D01*
X200836787Y-190854295D02*
X199860596Y-191044771D01*
X201586787Y-191711438D02*
X201753454Y-190378104D01*
X201705835Y-190759057D02*
X201824882Y-190568580D01*
X201824882Y-190568580D02*
X201932025Y-190473342D01*
X201932025Y-190473342D02*
X202134406Y-190378104D01*
X202134406Y-190378104D02*
X202324882Y-190378104D01*
X203110597Y-191711438D02*
X202932025Y-191616200D01*
X202932025Y-191616200D02*
X202848692Y-191520961D01*
X202848692Y-191520961D02*
X202777263Y-191330485D01*
X202777263Y-191330485D02*
X202848692Y-190759057D01*
X202848692Y-190759057D02*
X202967739Y-190568580D01*
X202967739Y-190568580D02*
X203074882Y-190473342D01*
X203074882Y-190473342D02*
X203277263Y-190378104D01*
X203277263Y-190378104D02*
X203562977Y-190378104D01*
X203562977Y-190378104D02*
X203741549Y-190473342D01*
X203741549Y-190473342D02*
X203824882Y-190568580D01*
X203824882Y-190568580D02*
X203896311Y-190759057D01*
X203896311Y-190759057D02*
X203824882Y-191330485D01*
X203824882Y-191330485D02*
X203705835Y-191520961D01*
X203705835Y-191520961D02*
X203598692Y-191616200D01*
X203598692Y-191616200D02*
X203396311Y-191711438D01*
X203396311Y-191711438D02*
X203110597Y-191711438D01*
D10*
D11*
X177002200Y-184007000D02*
X285002200Y-184007000D01*
D10*
D11*
X178386598Y-186621700D02*
X178600884Y-186693128D01*
X178600884Y-186693128D02*
X178958026Y-186693128D01*
X178958026Y-186693128D02*
X179100884Y-186621700D01*
X179100884Y-186621700D02*
X179172312Y-186550271D01*
X179172312Y-186550271D02*
X179243741Y-186407414D01*
X179243741Y-186407414D02*
X179243741Y-186264557D01*
X179243741Y-186264557D02*
X179172312Y-186121700D01*
X179172312Y-186121700D02*
X179100884Y-186050271D01*
X179100884Y-186050271D02*
X178958026Y-185978842D01*
X178958026Y-185978842D02*
X178672312Y-185907414D01*
X178672312Y-185907414D02*
X178529455Y-185835985D01*
X178529455Y-185835985D02*
X178458026Y-185764557D01*
X178458026Y-185764557D02*
X178386598Y-185621700D01*
X178386598Y-185621700D02*
X178386598Y-185478842D01*
X178386598Y-185478842D02*
X178458026Y-185335985D01*
X178458026Y-185335985D02*
X178529455Y-185264557D01*
X178529455Y-185264557D02*
X178672312Y-185193128D01*
X178672312Y-185193128D02*
X179029455Y-185193128D01*
X179029455Y-185193128D02*
X179243741Y-185264557D01*
X179886597Y-186693128D02*
X179886597Y-185193128D01*
X180529455Y-186693128D02*
X180529455Y-185907414D01*
X180529455Y-185907414D02*
X180458026Y-185764557D01*
X180458026Y-185764557D02*
X180315169Y-185693128D01*
X180315169Y-185693128D02*
X180100883Y-185693128D01*
X180100883Y-185693128D02*
X179958026Y-185764557D01*
X179958026Y-185764557D02*
X179886597Y-185835985D01*
X181815169Y-186621700D02*
X181672312Y-186693128D01*
X181672312Y-186693128D02*
X181386598Y-186693128D01*
X181386598Y-186693128D02*
X181243740Y-186621700D01*
X181243740Y-186621700D02*
X181172312Y-186478842D01*
X181172312Y-186478842D02*
X181172312Y-185907414D01*
X181172312Y-185907414D02*
X181243740Y-185764557D01*
X181243740Y-185764557D02*
X181386598Y-185693128D01*
X181386598Y-185693128D02*
X181672312Y-185693128D01*
X181672312Y-185693128D02*
X181815169Y-185764557D01*
X181815169Y-185764557D02*
X181886598Y-185907414D01*
X181886598Y-185907414D02*
X181886598Y-186050271D01*
X181886598Y-186050271D02*
X181172312Y-186193128D01*
X183100883Y-186621700D02*
X182958026Y-186693128D01*
X182958026Y-186693128D02*
X182672312Y-186693128D01*
X182672312Y-186693128D02*
X182529454Y-186621700D01*
X182529454Y-186621700D02*
X182458026Y-186478842D01*
X182458026Y-186478842D02*
X182458026Y-185907414D01*
X182458026Y-185907414D02*
X182529454Y-185764557D01*
X182529454Y-185764557D02*
X182672312Y-185693128D01*
X182672312Y-185693128D02*
X182958026Y-185693128D01*
X182958026Y-185693128D02*
X183100883Y-185764557D01*
X183100883Y-185764557D02*
X183172312Y-185907414D01*
X183172312Y-185907414D02*
X183172312Y-186050271D01*
X183172312Y-186050271D02*
X182458026Y-186193128D01*
X183600883Y-185693128D02*
X184172311Y-185693128D01*
X183815168Y-185193128D02*
X183815168Y-186478842D01*
X183815168Y-186478842D02*
X183886597Y-186621700D01*
X183886597Y-186621700D02*
X184029454Y-186693128D01*
X184029454Y-186693128D02*
X184172311Y-186693128D01*
X184672311Y-186550271D02*
X184743740Y-186621700D01*
X184743740Y-186621700D02*
X184672311Y-186693128D01*
X184672311Y-186693128D02*
X184600883Y-186621700D01*
X184600883Y-186621700D02*
X184672311Y-186550271D01*
X184672311Y-186550271D02*
X184672311Y-186693128D01*
X184672311Y-185764557D02*
X184743740Y-185835985D01*
X184743740Y-185835985D02*
X184672311Y-185907414D01*
X184672311Y-185907414D02*
X184600883Y-185835985D01*
X184600883Y-185835985D02*
X184672311Y-185764557D01*
X184672311Y-185764557D02*
X184672311Y-185907414D01*
D10*
D12*
X178556710Y-182685328D02*
X178556710Y-181685328D01*
X178556710Y-181828185D02*
X178628139Y-181756757D01*
X178628139Y-181756757D02*
X178770996Y-181685328D01*
X178770996Y-181685328D02*
X178985282Y-181685328D01*
X178985282Y-181685328D02*
X179128139Y-181756757D01*
X179128139Y-181756757D02*
X179199568Y-181899614D01*
X179199568Y-181899614D02*
X179199568Y-182685328D01*
X179199568Y-181899614D02*
X179270996Y-181756757D01*
X179270996Y-181756757D02*
X179413853Y-181685328D01*
X179413853Y-181685328D02*
X179628139Y-181685328D01*
X179628139Y-181685328D02*
X179770996Y-181756757D01*
X179770996Y-181756757D02*
X179842425Y-181899614D01*
X179842425Y-181899614D02*
X179842425Y-182685328D01*
X181199568Y-182685328D02*
X181199568Y-181899614D01*
X181199568Y-181899614D02*
X181128139Y-181756757D01*
X181128139Y-181756757D02*
X180985282Y-181685328D01*
X180985282Y-181685328D02*
X180699568Y-181685328D01*
X180699568Y-181685328D02*
X180556710Y-181756757D01*
X181199568Y-182613900D02*
X181056710Y-182685328D01*
X181056710Y-182685328D02*
X180699568Y-182685328D01*
X180699568Y-182685328D02*
X180556710Y-182613900D01*
X180556710Y-182613900D02*
X180485282Y-182471042D01*
X180485282Y-182471042D02*
X180485282Y-182328185D01*
X180485282Y-182328185D02*
X180556710Y-182185328D01*
X180556710Y-182185328D02*
X180699568Y-182113900D01*
X180699568Y-182113900D02*
X181056710Y-182113900D01*
X181056710Y-182113900D02*
X181199568Y-182042471D01*
X181770996Y-181685328D02*
X182128139Y-182685328D01*
X182485282Y-181685328D02*
X182128139Y-182685328D01*
X182128139Y-182685328D02*
X181985282Y-183042471D01*
X181985282Y-183042471D02*
X181913853Y-183113900D01*
X181913853Y-183113900D02*
X181770996Y-183185328D01*
X183056710Y-182685328D02*
X183056710Y-181185328D01*
X183199568Y-182113900D02*
X183628139Y-182685328D01*
X183628139Y-181685328D02*
X183056710Y-182256757D01*
X184485282Y-182685328D02*
X184342425Y-182613900D01*
X184342425Y-182613900D02*
X184270996Y-182542471D01*
X184270996Y-182542471D02*
X184199568Y-182399614D01*
X184199568Y-182399614D02*
X184199568Y-181971042D01*
X184199568Y-181971042D02*
X184270996Y-181828185D01*
X184270996Y-181828185D02*
X184342425Y-181756757D01*
X184342425Y-181756757D02*
X184485282Y-181685328D01*
X184485282Y-181685328D02*
X184699568Y-181685328D01*
X184699568Y-181685328D02*
X184842425Y-181756757D01*
X184842425Y-181756757D02*
X184913854Y-181828185D01*
X184913854Y-181828185D02*
X184985282Y-181971042D01*
X184985282Y-181971042D02*
X184985282Y-182399614D01*
X184985282Y-182399614D02*
X184913854Y-182542471D01*
X184913854Y-182542471D02*
X184842425Y-182613900D01*
X184842425Y-182613900D02*
X184699568Y-182685328D01*
X184699568Y-182685328D02*
X184485282Y-182685328D01*
X185842425Y-182685328D02*
X185699568Y-182613900D01*
X185699568Y-182613900D02*
X185628139Y-182471042D01*
X185628139Y-182471042D02*
X185628139Y-181185328D01*
X187556710Y-182685328D02*
X187556710Y-181685328D01*
X187556710Y-181971042D02*
X187628139Y-181828185D01*
X187628139Y-181828185D02*
X187699568Y-181756757D01*
X187699568Y-181756757D02*
X187842425Y-181685328D01*
X187842425Y-181685328D02*
X187985282Y-181685328D01*
X189056710Y-182613900D02*
X188913853Y-182685328D01*
X188913853Y-182685328D02*
X188628139Y-182685328D01*
X188628139Y-182685328D02*
X188485281Y-182613900D01*
X188485281Y-182613900D02*
X188413853Y-182471042D01*
X188413853Y-182471042D02*
X188413853Y-181899614D01*
X188413853Y-181899614D02*
X188485281Y-181756757D01*
X188485281Y-181756757D02*
X188628139Y-181685328D01*
X188628139Y-181685328D02*
X188913853Y-181685328D01*
X188913853Y-181685328D02*
X189056710Y-181756757D01*
X189056710Y-181756757D02*
X189128139Y-181899614D01*
X189128139Y-181899614D02*
X189128139Y-182042471D01*
X189128139Y-182042471D02*
X188413853Y-182185328D01*
X189628138Y-181685328D02*
X189985281Y-182685328D01*
X190342424Y-181685328D02*
X189985281Y-182685328D01*
X189985281Y-182685328D02*
X189842424Y-183042471D01*
X189842424Y-183042471D02*
X189770995Y-183113900D01*
X189770995Y-183113900D02*
X189628138Y-183185328D01*
D10*
D13*
X178479642Y-178411438D02*
X178479642Y-176411438D01*
X178479642Y-176411438D02*
X179479642Y-177840009D01*
X179479642Y-177840009D02*
X180479642Y-176411438D01*
X180479642Y-176411438D02*
X180479642Y-178411438D01*
X181765356Y-177840009D02*
X183193928Y-177840009D01*
X181479642Y-178411438D02*
X182479642Y-176411438D01*
X182479642Y-176411438D02*
X183479642Y-178411438D01*
X185051071Y-177459057D02*
X185051071Y-178411438D01*
X184051071Y-176411438D02*
X185051071Y-177459057D01*
X185051071Y-177459057D02*
X186051071Y-176411438D01*
X187051071Y-178411438D02*
X187051071Y-176411438D01*
X188765357Y-178411438D02*
X187479643Y-177268580D01*
X188765357Y-176411438D02*
X187051071Y-177554295D01*
X190622500Y-176411438D02*
X191193928Y-176411438D01*
X191193928Y-176411438D02*
X191479643Y-176506676D01*
X191479643Y-176506676D02*
X191765357Y-176697152D01*
X191765357Y-176697152D02*
X191908214Y-177078104D01*
X191908214Y-177078104D02*
X191908214Y-177744771D01*
X191908214Y-177744771D02*
X191765357Y-178125723D01*
X191765357Y-178125723D02*
X191479643Y-178316200D01*
X191479643Y-178316200D02*
X191193928Y-178411438D01*
X191193928Y-178411438D02*
X190622500Y-178411438D01*
X190622500Y-178411438D02*
X190336786Y-178316200D01*
X190336786Y-178316200D02*
X190051071Y-178125723D01*
X190051071Y-178125723D02*
X189908214Y-177744771D01*
X189908214Y-177744771D02*
X189908214Y-177078104D01*
X189908214Y-177078104D02*
X190051071Y-176697152D01*
X190051071Y-176697152D02*
X190336786Y-176506676D01*
X190336786Y-176506676D02*
X190622500Y-176411438D01*
X194622500Y-178411438D02*
X193193928Y-178411438D01*
X193193928Y-178411438D02*
X193193928Y-176411438D01*
X197336785Y-178411438D02*
X196336785Y-177459057D01*
X195622499Y-178411438D02*
X195622499Y-176411438D01*
X195622499Y-176411438D02*
X196765356Y-176411438D01*
X196765356Y-176411438D02*
X197051071Y-176506676D01*
X197051071Y-176506676D02*
X197193928Y-176601914D01*
X197193928Y-176601914D02*
X197336785Y-176792390D01*
X197336785Y-176792390D02*
X197336785Y-177078104D01*
X197336785Y-177078104D02*
X197193928Y-177268580D01*
X197193928Y-177268580D02*
X197051071Y-177363819D01*
X197051071Y-177363819D02*
X196765356Y-177459057D01*
X196765356Y-177459057D02*
X195622499Y-177459057D01*
X198622499Y-177363819D02*
X199622499Y-177363819D01*
X200051071Y-178411438D02*
X198622499Y-178411438D01*
X198622499Y-178411438D02*
X198622499Y-176411438D01*
X198622499Y-176411438D02*
X200051071Y-176411438D01*
X201908214Y-177459057D02*
X201908214Y-178411438D01*
X200908214Y-176411438D02*
X201908214Y-177459057D01*
X201908214Y-177459057D02*
X202908214Y-176411438D01*
X203908214Y-178220961D02*
X204051071Y-178316200D01*
X204051071Y-178316200D02*
X203908214Y-178411438D01*
X203908214Y-178411438D02*
X203765357Y-178316200D01*
X203765357Y-178316200D02*
X203908214Y-178220961D01*
X203908214Y-178220961D02*
X203908214Y-178411438D01*
X207051071Y-178220961D02*
X206908214Y-178316200D01*
X206908214Y-178316200D02*
X206479642Y-178411438D01*
X206479642Y-178411438D02*
X206193928Y-178411438D01*
X206193928Y-178411438D02*
X205765357Y-178316200D01*
X205765357Y-178316200D02*
X205479642Y-178125723D01*
X205479642Y-178125723D02*
X205336785Y-177935247D01*
X205336785Y-177935247D02*
X205193928Y-177554295D01*
X205193928Y-177554295D02*
X205193928Y-177268580D01*
X205193928Y-177268580D02*
X205336785Y-176887628D01*
X205336785Y-176887628D02*
X205479642Y-176697152D01*
X205479642Y-176697152D02*
X205765357Y-176506676D01*
X205765357Y-176506676D02*
X206193928Y-176411438D01*
X206193928Y-176411438D02*
X206479642Y-176411438D01*
X206479642Y-176411438D02*
X206908214Y-176506676D01*
X206908214Y-176506676D02*
X207051071Y-176601914D01*
X208908214Y-176411438D02*
X209479642Y-176411438D01*
X209479642Y-176411438D02*
X209765357Y-176506676D01*
X209765357Y-176506676D02*
X210051071Y-176697152D01*
X210051071Y-176697152D02*
X210193928Y-177078104D01*
X210193928Y-177078104D02*
X210193928Y-177744771D01*
X210193928Y-177744771D02*
X210051071Y-178125723D01*
X210051071Y-178125723D02*
X209765357Y-178316200D01*
X209765357Y-178316200D02*
X209479642Y-178411438D01*
X209479642Y-178411438D02*
X208908214Y-178411438D01*
X208908214Y-178411438D02*
X208622500Y-178316200D01*
X208622500Y-178316200D02*
X208336785Y-178125723D01*
X208336785Y-178125723D02*
X208193928Y-177744771D01*
X208193928Y-177744771D02*
X208193928Y-177078104D01*
X208193928Y-177078104D02*
X208336785Y-176697152D01*
X208336785Y-176697152D02*
X208622500Y-176506676D01*
X208622500Y-176506676D02*
X208908214Y-176411438D01*
X211479642Y-178411438D02*
X211479642Y-176411438D01*
X211479642Y-176411438D02*
X212479642Y-177840009D01*
X212479642Y-177840009D02*
X213479642Y-176411438D01*
X213479642Y-176411438D02*
X213479642Y-178411438D01*
D10*
D11*
X154513200Y-198007000D02*
X177002200Y-198007000D01*
X177002200Y-174505000D01*
X154513200Y-174505000D01*
X154513200Y-198007000D01*
D10*
D11*
X261002200Y-184007200D02*
X261002200Y-198007200D01*
X171804761Y-81514819D02*
X171471428Y-81038628D01*
X171233333Y-81514819D02*
X171233333Y-80514819D01*
X171233333Y-80514819D02*
X171614285Y-80514819D01*
X171614285Y-80514819D02*
X171709523Y-80562438D01*
X171709523Y-80562438D02*
X171757142Y-80610057D01*
X171757142Y-80610057D02*
X171804761Y-80705295D01*
X171804761Y-80705295D02*
X171804761Y-80848152D01*
X171804761Y-80848152D02*
X171757142Y-80943390D01*
X171757142Y-80943390D02*
X171709523Y-80991009D01*
X171709523Y-80991009D02*
X171614285Y-81038628D01*
X171614285Y-81038628D02*
X171233333Y-81038628D01*
X172090476Y-80514819D02*
X172423809Y-81514819D01*
X172423809Y-81514819D02*
X172757142Y-80514819D01*
X173614285Y-81514819D02*
X173042857Y-81514819D01*
X173328571Y-81514819D02*
X173328571Y-80514819D01*
X173328571Y-80514819D02*
X173233333Y-80657676D01*
X173233333Y-80657676D02*
X173138095Y-80752914D01*
X173138095Y-80752914D02*
X173042857Y-80800533D01*
X143738095Y-127454819D02*
X143738095Y-126454819D01*
X143738095Y-126931009D02*
X144309523Y-126931009D01*
X144309523Y-127454819D02*
X144309523Y-126454819D01*
X145214285Y-126788152D02*
X145214285Y-127454819D01*
X144976190Y-126407200D02*
X144738095Y-127121485D01*
X144738095Y-127121485D02*
X145357142Y-127121485D01*
X224666666Y-89894819D02*
X224666666Y-90609104D01*
X224666666Y-90609104D02*
X224619047Y-90751961D01*
X224619047Y-90751961D02*
X224523809Y-90847200D01*
X224523809Y-90847200D02*
X224380952Y-90894819D01*
X224380952Y-90894819D02*
X224285714Y-90894819D01*
X225190476Y-90894819D02*
X225380952Y-90894819D01*
X225380952Y-90894819D02*
X225476190Y-90847200D01*
X225476190Y-90847200D02*
X225523809Y-90799580D01*
X225523809Y-90799580D02*
X225619047Y-90656723D01*
X225619047Y-90656723D02*
X225666666Y-90466247D01*
X225666666Y-90466247D02*
X225666666Y-90085295D01*
X225666666Y-90085295D02*
X225619047Y-89990057D01*
X225619047Y-89990057D02*
X225571428Y-89942438D01*
X225571428Y-89942438D02*
X225476190Y-89894819D01*
X225476190Y-89894819D02*
X225285714Y-89894819D01*
X225285714Y-89894819D02*
X225190476Y-89942438D01*
X225190476Y-89942438D02*
X225142857Y-89990057D01*
X225142857Y-89990057D02*
X225095238Y-90085295D01*
X225095238Y-90085295D02*
X225095238Y-90323390D01*
X225095238Y-90323390D02*
X225142857Y-90418628D01*
X225142857Y-90418628D02*
X225190476Y-90466247D01*
X225190476Y-90466247D02*
X225285714Y-90513866D01*
X225285714Y-90513866D02*
X225476190Y-90513866D01*
X225476190Y-90513866D02*
X225571428Y-90466247D01*
X225571428Y-90466247D02*
X225619047Y-90418628D01*
X225619047Y-90418628D02*
X225666666Y-90323390D01*
X131809580Y-113616666D02*
X131857200Y-113664285D01*
X131857200Y-113664285D02*
X131904819Y-113807142D01*
X131904819Y-113807142D02*
X131904819Y-113902380D01*
X131904819Y-113902380D02*
X131857200Y-114045237D01*
X131857200Y-114045237D02*
X131761961Y-114140475D01*
X131761961Y-114140475D02*
X131666723Y-114188094D01*
X131666723Y-114188094D02*
X131476247Y-114235713D01*
X131476247Y-114235713D02*
X131333390Y-114235713D01*
X131333390Y-114235713D02*
X131142914Y-114188094D01*
X131142914Y-114188094D02*
X131047676Y-114140475D01*
X131047676Y-114140475D02*
X130952438Y-114045237D01*
X130952438Y-114045237D02*
X130904819Y-113902380D01*
X130904819Y-113902380D02*
X130904819Y-113807142D01*
X130904819Y-113807142D02*
X130952438Y-113664285D01*
X130952438Y-113664285D02*
X131000057Y-113616666D01*
X131333390Y-113045237D02*
X131285771Y-113140475D01*
X131285771Y-113140475D02*
X131238152Y-113188094D01*
X131238152Y-113188094D02*
X131142914Y-113235713D01*
X131142914Y-113235713D02*
X131095295Y-113235713D01*
X131095295Y-113235713D02*
X131000057Y-113188094D01*
X131000057Y-113188094D02*
X130952438Y-113140475D01*
X130952438Y-113140475D02*
X130904819Y-113045237D01*
X130904819Y-113045237D02*
X130904819Y-112854761D01*
X130904819Y-112854761D02*
X130952438Y-112759523D01*
X130952438Y-112759523D02*
X131000057Y-112711904D01*
X131000057Y-112711904D02*
X131095295Y-112664285D01*
X131095295Y-112664285D02*
X131142914Y-112664285D01*
X131142914Y-112664285D02*
X131238152Y-112711904D01*
X131238152Y-112711904D02*
X131285771Y-112759523D01*
X131285771Y-112759523D02*
X131333390Y-112854761D01*
X131333390Y-112854761D02*
X131333390Y-113045237D01*
X131333390Y-113045237D02*
X131381009Y-113140475D01*
X131381009Y-113140475D02*
X131428628Y-113188094D01*
X131428628Y-113188094D02*
X131523866Y-113235713D01*
X131523866Y-113235713D02*
X131714342Y-113235713D01*
X131714342Y-113235713D02*
X131809580Y-113188094D01*
X131809580Y-113188094D02*
X131857200Y-113140475D01*
X131857200Y-113140475D02*
X131904819Y-113045237D01*
X131904819Y-113045237D02*
X131904819Y-112854761D01*
X131904819Y-112854761D02*
X131857200Y-112759523D01*
X131857200Y-112759523D02*
X131809580Y-112711904D01*
X131809580Y-112711904D02*
X131714342Y-112664285D01*
X131714342Y-112664285D02*
X131523866Y-112664285D01*
X131523866Y-112664285D02*
X131428628Y-112711904D01*
X131428628Y-112711904D02*
X131381009Y-112759523D01*
X131381009Y-112759523D02*
X131333390Y-112854761D01*
X155859580Y-84916666D02*
X155907200Y-84964285D01*
X155907200Y-84964285D02*
X155954819Y-85107142D01*
X155954819Y-85107142D02*
X155954819Y-85202380D01*
X155954819Y-85202380D02*
X155907200Y-85345237D01*
X155907200Y-85345237D02*
X155811961Y-85440475D01*
X155811961Y-85440475D02*
X155716723Y-85488094D01*
X155716723Y-85488094D02*
X155526247Y-85535713D01*
X155526247Y-85535713D02*
X155383390Y-85535713D01*
X155383390Y-85535713D02*
X155192914Y-85488094D01*
X155192914Y-85488094D02*
X155097676Y-85440475D01*
X155097676Y-85440475D02*
X155002438Y-85345237D01*
X155002438Y-85345237D02*
X154954819Y-85202380D01*
X154954819Y-85202380D02*
X154954819Y-85107142D01*
X154954819Y-85107142D02*
X155002438Y-84964285D01*
X155002438Y-84964285D02*
X155050057Y-84916666D01*
X154954819Y-84583332D02*
X154954819Y-83964285D01*
X154954819Y-83964285D02*
X155335771Y-84297618D01*
X155335771Y-84297618D02*
X155335771Y-84154761D01*
X155335771Y-84154761D02*
X155383390Y-84059523D01*
X155383390Y-84059523D02*
X155431009Y-84011904D01*
X155431009Y-84011904D02*
X155526247Y-83964285D01*
X155526247Y-83964285D02*
X155764342Y-83964285D01*
X155764342Y-83964285D02*
X155859580Y-84011904D01*
X155859580Y-84011904D02*
X155907200Y-84059523D01*
X155907200Y-84059523D02*
X155954819Y-84154761D01*
X155954819Y-84154761D02*
X155954819Y-84440475D01*
X155954819Y-84440475D02*
X155907200Y-84535713D01*
X155907200Y-84535713D02*
X155859580Y-84583332D01*
X224666666Y-119894819D02*
X224666666Y-120609104D01*
X224666666Y-120609104D02*
X224619047Y-120751961D01*
X224619047Y-120751961D02*
X224523809Y-120847200D01*
X224523809Y-120847200D02*
X224380952Y-120894819D01*
X224380952Y-120894819D02*
X224285714Y-120894819D01*
X225571428Y-119894819D02*
X225380952Y-119894819D01*
X225380952Y-119894819D02*
X225285714Y-119942438D01*
X225285714Y-119942438D02*
X225238095Y-119990057D01*
X225238095Y-119990057D02*
X225142857Y-120132914D01*
X225142857Y-120132914D02*
X225095238Y-120323390D01*
X225095238Y-120323390D02*
X225095238Y-120704342D01*
X225095238Y-120704342D02*
X225142857Y-120799580D01*
X225142857Y-120799580D02*
X225190476Y-120847200D01*
X225190476Y-120847200D02*
X225285714Y-120894819D01*
X225285714Y-120894819D02*
X225476190Y-120894819D01*
X225476190Y-120894819D02*
X225571428Y-120847200D01*
X225571428Y-120847200D02*
X225619047Y-120799580D01*
X225619047Y-120799580D02*
X225666666Y-120704342D01*
X225666666Y-120704342D02*
X225666666Y-120466247D01*
X225666666Y-120466247D02*
X225619047Y-120371009D01*
X225619047Y-120371009D02*
X225571428Y-120323390D01*
X225571428Y-120323390D02*
X225476190Y-120275771D01*
X225476190Y-120275771D02*
X225285714Y-120275771D01*
X225285714Y-120275771D02*
X225190476Y-120323390D01*
X225190476Y-120323390D02*
X225142857Y-120371009D01*
X225142857Y-120371009D02*
X225095238Y-120466247D01*
X147050057Y-86235238D02*
X147002438Y-86330476D01*
X147002438Y-86330476D02*
X146907200Y-86425714D01*
X146907200Y-86425714D02*
X146764342Y-86568571D01*
X146764342Y-86568571D02*
X146716723Y-86663809D01*
X146716723Y-86663809D02*
X146716723Y-86759047D01*
X146954819Y-86711428D02*
X146907200Y-86806666D01*
X146907200Y-86806666D02*
X146811961Y-86901904D01*
X146811961Y-86901904D02*
X146621485Y-86949523D01*
X146621485Y-86949523D02*
X146288152Y-86949523D01*
X146288152Y-86949523D02*
X146097676Y-86901904D01*
X146097676Y-86901904D02*
X146002438Y-86806666D01*
X146002438Y-86806666D02*
X145954819Y-86711428D01*
X145954819Y-86711428D02*
X145954819Y-86520952D01*
X145954819Y-86520952D02*
X146002438Y-86425714D01*
X146002438Y-86425714D02*
X146097676Y-86330476D01*
X146097676Y-86330476D02*
X146288152Y-86282857D01*
X146288152Y-86282857D02*
X146621485Y-86282857D01*
X146621485Y-86282857D02*
X146811961Y-86330476D01*
X146811961Y-86330476D02*
X146907200Y-86425714D01*
X146907200Y-86425714D02*
X146954819Y-86520952D01*
X146954819Y-86520952D02*
X146954819Y-86711428D01*
X145954819Y-85949523D02*
X145954819Y-85330476D01*
X145954819Y-85330476D02*
X146335771Y-85663809D01*
X146335771Y-85663809D02*
X146335771Y-85520952D01*
X146335771Y-85520952D02*
X146383390Y-85425714D01*
X146383390Y-85425714D02*
X146431009Y-85378095D01*
X146431009Y-85378095D02*
X146526247Y-85330476D01*
X146526247Y-85330476D02*
X146764342Y-85330476D01*
X146764342Y-85330476D02*
X146859580Y-85378095D01*
X146859580Y-85378095D02*
X146907200Y-85425714D01*
X146907200Y-85425714D02*
X146954819Y-85520952D01*
X146954819Y-85520952D02*
X146954819Y-85806666D01*
X146954819Y-85806666D02*
X146907200Y-85901904D01*
X146907200Y-85901904D02*
X146859580Y-85949523D01*
X172754819Y-107722857D02*
X172278628Y-108056190D01*
X172754819Y-108294285D02*
X171754819Y-108294285D01*
X171754819Y-108294285D02*
X171754819Y-107913333D01*
X171754819Y-107913333D02*
X171802438Y-107818095D01*
X171802438Y-107818095D02*
X171850057Y-107770476D01*
X171850057Y-107770476D02*
X171945295Y-107722857D01*
X171945295Y-107722857D02*
X172088152Y-107722857D01*
X172088152Y-107722857D02*
X172183390Y-107770476D01*
X172183390Y-107770476D02*
X172231009Y-107818095D01*
X172231009Y-107818095D02*
X172278628Y-107913333D01*
X172278628Y-107913333D02*
X172278628Y-108294285D01*
X171850057Y-107341904D02*
X171802438Y-107294285D01*
X171802438Y-107294285D02*
X171754819Y-107199047D01*
X171754819Y-107199047D02*
X171754819Y-106960952D01*
X171754819Y-106960952D02*
X171802438Y-106865714D01*
X171802438Y-106865714D02*
X171850057Y-106818095D01*
X171850057Y-106818095D02*
X171945295Y-106770476D01*
X171945295Y-106770476D02*
X172040533Y-106770476D01*
X172040533Y-106770476D02*
X172183390Y-106818095D01*
X172183390Y-106818095D02*
X172754819Y-107389523D01*
X172754819Y-107389523D02*
X172754819Y-106770476D01*
X172754819Y-105818095D02*
X172754819Y-106389523D01*
X172754819Y-106103809D02*
X171754819Y-106103809D01*
X171754819Y-106103809D02*
X171897676Y-106199047D01*
X171897676Y-106199047D02*
X171992914Y-106294285D01*
X171992914Y-106294285D02*
X172040533Y-106389523D01*
X132666666Y-81014819D02*
X132666666Y-81729104D01*
X132666666Y-81729104D02*
X132619047Y-81871961D01*
X132619047Y-81871961D02*
X132523809Y-81967200D01*
X132523809Y-81967200D02*
X132380952Y-82014819D01*
X132380952Y-82014819D02*
X132285714Y-82014819D01*
X133285714Y-81443390D02*
X133190476Y-81395771D01*
X133190476Y-81395771D02*
X133142857Y-81348152D01*
X133142857Y-81348152D02*
X133095238Y-81252914D01*
X133095238Y-81252914D02*
X133095238Y-81205295D01*
X133095238Y-81205295D02*
X133142857Y-81110057D01*
X133142857Y-81110057D02*
X133190476Y-81062438D01*
X133190476Y-81062438D02*
X133285714Y-81014819D01*
X133285714Y-81014819D02*
X133476190Y-81014819D01*
X133476190Y-81014819D02*
X133571428Y-81062438D01*
X133571428Y-81062438D02*
X133619047Y-81110057D01*
X133619047Y-81110057D02*
X133666666Y-81205295D01*
X133666666Y-81205295D02*
X133666666Y-81252914D01*
X133666666Y-81252914D02*
X133619047Y-81348152D01*
X133619047Y-81348152D02*
X133571428Y-81395771D01*
X133571428Y-81395771D02*
X133476190Y-81443390D01*
X133476190Y-81443390D02*
X133285714Y-81443390D01*
X133285714Y-81443390D02*
X133190476Y-81491009D01*
X133190476Y-81491009D02*
X133142857Y-81538628D01*
X133142857Y-81538628D02*
X133095238Y-81633866D01*
X133095238Y-81633866D02*
X133095238Y-81824342D01*
X133095238Y-81824342D02*
X133142857Y-81919580D01*
X133142857Y-81919580D02*
X133190476Y-81967200D01*
X133190476Y-81967200D02*
X133285714Y-82014819D01*
X133285714Y-82014819D02*
X133476190Y-82014819D01*
X133476190Y-82014819D02*
X133571428Y-81967200D01*
X133571428Y-81967200D02*
X133619047Y-81919580D01*
X133619047Y-81919580D02*
X133666666Y-81824342D01*
X133666666Y-81824342D02*
X133666666Y-81633866D01*
X133666666Y-81633866D02*
X133619047Y-81538628D01*
X133619047Y-81538628D02*
X133571428Y-81491009D01*
X133571428Y-81491009D02*
X133476190Y-81443390D01*
X140450057Y-105835238D02*
X140402438Y-105930476D01*
X140402438Y-105930476D02*
X140307200Y-106025714D01*
X140307200Y-106025714D02*
X140164342Y-106168571D01*
X140164342Y-106168571D02*
X140116723Y-106263809D01*
X140116723Y-106263809D02*
X140116723Y-106359047D01*
X140354819Y-106311428D02*
X140307200Y-106406666D01*
X140307200Y-106406666D02*
X140211961Y-106501904D01*
X140211961Y-106501904D02*
X140021485Y-106549523D01*
X140021485Y-106549523D02*
X139688152Y-106549523D01*
X139688152Y-106549523D02*
X139497676Y-106501904D01*
X139497676Y-106501904D02*
X139402438Y-106406666D01*
X139402438Y-106406666D02*
X139354819Y-106311428D01*
X139354819Y-106311428D02*
X139354819Y-106120952D01*
X139354819Y-106120952D02*
X139402438Y-106025714D01*
X139402438Y-106025714D02*
X139497676Y-105930476D01*
X139497676Y-105930476D02*
X139688152Y-105882857D01*
X139688152Y-105882857D02*
X140021485Y-105882857D01*
X140021485Y-105882857D02*
X140211961Y-105930476D01*
X140211961Y-105930476D02*
X140307200Y-106025714D01*
X140307200Y-106025714D02*
X140354819Y-106120952D01*
X140354819Y-106120952D02*
X140354819Y-106311428D01*
X139354819Y-105549523D02*
X139354819Y-104882857D01*
X139354819Y-104882857D02*
X140354819Y-105311428D01*
X159460952Y-78954819D02*
X159127619Y-78478628D01*
X158889524Y-78954819D02*
X158889524Y-77954819D01*
X158889524Y-77954819D02*
X159270476Y-77954819D01*
X159270476Y-77954819D02*
X159365714Y-78002438D01*
X159365714Y-78002438D02*
X159413333Y-78050057D01*
X159413333Y-78050057D02*
X159460952Y-78145295D01*
X159460952Y-78145295D02*
X159460952Y-78288152D01*
X159460952Y-78288152D02*
X159413333Y-78383390D01*
X159413333Y-78383390D02*
X159365714Y-78431009D01*
X159365714Y-78431009D02*
X159270476Y-78478628D01*
X159270476Y-78478628D02*
X158889524Y-78478628D01*
X160413333Y-78954819D02*
X159841905Y-78954819D01*
X160127619Y-78954819D02*
X160127619Y-77954819D01*
X160127619Y-77954819D02*
X160032381Y-78097676D01*
X160032381Y-78097676D02*
X159937143Y-78192914D01*
X159937143Y-78192914D02*
X159841905Y-78240533D01*
X161032381Y-77954819D02*
X161127619Y-77954819D01*
X161127619Y-77954819D02*
X161222857Y-78002438D01*
X161222857Y-78002438D02*
X161270476Y-78050057D01*
X161270476Y-78050057D02*
X161318095Y-78145295D01*
X161318095Y-78145295D02*
X161365714Y-78335771D01*
X161365714Y-78335771D02*
X161365714Y-78573866D01*
X161365714Y-78573866D02*
X161318095Y-78764342D01*
X161318095Y-78764342D02*
X161270476Y-78859580D01*
X161270476Y-78859580D02*
X161222857Y-78907200D01*
X161222857Y-78907200D02*
X161127619Y-78954819D01*
X161127619Y-78954819D02*
X161032381Y-78954819D01*
X161032381Y-78954819D02*
X160937143Y-78907200D01*
X160937143Y-78907200D02*
X160889524Y-78859580D01*
X160889524Y-78859580D02*
X160841905Y-78764342D01*
X160841905Y-78764342D02*
X160794286Y-78573866D01*
X160794286Y-78573866D02*
X160794286Y-78335771D01*
X160794286Y-78335771D02*
X160841905Y-78145295D01*
X160841905Y-78145295D02*
X160889524Y-78050057D01*
X160889524Y-78050057D02*
X160937143Y-78002438D01*
X160937143Y-78002438D02*
X161032381Y-77954819D01*
X162318095Y-78954819D02*
X161746667Y-78954819D01*
X162032381Y-78954819D02*
X162032381Y-77954819D01*
X162032381Y-77954819D02*
X161937143Y-78097676D01*
X161937143Y-78097676D02*
X161841905Y-78192914D01*
X161841905Y-78192914D02*
X161746667Y-78240533D01*
X134490952Y-100839580D02*
X134443333Y-100887200D01*
X134443333Y-100887200D02*
X134300476Y-100934819D01*
X134300476Y-100934819D02*
X134205238Y-100934819D01*
X134205238Y-100934819D02*
X134062381Y-100887200D01*
X134062381Y-100887200D02*
X133967143Y-100791961D01*
X133967143Y-100791961D02*
X133919524Y-100696723D01*
X133919524Y-100696723D02*
X133871905Y-100506247D01*
X133871905Y-100506247D02*
X133871905Y-100363390D01*
X133871905Y-100363390D02*
X133919524Y-100172914D01*
X133919524Y-100172914D02*
X133967143Y-100077676D01*
X133967143Y-100077676D02*
X134062381Y-99982438D01*
X134062381Y-99982438D02*
X134205238Y-99934819D01*
X134205238Y-99934819D02*
X134300476Y-99934819D01*
X134300476Y-99934819D02*
X134443333Y-99982438D01*
X134443333Y-99982438D02*
X134490952Y-100030057D01*
X135443333Y-100934819D02*
X134871905Y-100934819D01*
X135157619Y-100934819D02*
X135157619Y-99934819D01*
X135157619Y-99934819D02*
X135062381Y-100077676D01*
X135062381Y-100077676D02*
X134967143Y-100172914D01*
X134967143Y-100172914D02*
X134871905Y-100220533D01*
X136062381Y-99934819D02*
X136157619Y-99934819D01*
X136157619Y-99934819D02*
X136252857Y-99982438D01*
X136252857Y-99982438D02*
X136300476Y-100030057D01*
X136300476Y-100030057D02*
X136348095Y-100125295D01*
X136348095Y-100125295D02*
X136395714Y-100315771D01*
X136395714Y-100315771D02*
X136395714Y-100553866D01*
X136395714Y-100553866D02*
X136348095Y-100744342D01*
X136348095Y-100744342D02*
X136300476Y-100839580D01*
X136300476Y-100839580D02*
X136252857Y-100887200D01*
X136252857Y-100887200D02*
X136157619Y-100934819D01*
X136157619Y-100934819D02*
X136062381Y-100934819D01*
X136062381Y-100934819D02*
X135967143Y-100887200D01*
X135967143Y-100887200D02*
X135919524Y-100839580D01*
X135919524Y-100839580D02*
X135871905Y-100744342D01*
X135871905Y-100744342D02*
X135824286Y-100553866D01*
X135824286Y-100553866D02*
X135824286Y-100315771D01*
X135824286Y-100315771D02*
X135871905Y-100125295D01*
X135871905Y-100125295D02*
X135919524Y-100030057D01*
X135919524Y-100030057D02*
X135967143Y-99982438D01*
X135967143Y-99982438D02*
X136062381Y-99934819D01*
X136776667Y-100030057D02*
X136824286Y-99982438D01*
X136824286Y-99982438D02*
X136919524Y-99934819D01*
X136919524Y-99934819D02*
X137157619Y-99934819D01*
X137157619Y-99934819D02*
X137252857Y-99982438D01*
X137252857Y-99982438D02*
X137300476Y-100030057D01*
X137300476Y-100030057D02*
X137348095Y-100125295D01*
X137348095Y-100125295D02*
X137348095Y-100220533D01*
X137348095Y-100220533D02*
X137300476Y-100363390D01*
X137300476Y-100363390D02*
X136729048Y-100934819D01*
X136729048Y-100934819D02*
X137348095Y-100934819D01*
X192238095Y-78454819D02*
X192238095Y-77454819D01*
X192238095Y-77931009D02*
X192809523Y-77931009D01*
X192809523Y-78454819D02*
X192809523Y-77454819D01*
X193238095Y-77550057D02*
X193285714Y-77502438D01*
X193285714Y-77502438D02*
X193380952Y-77454819D01*
X193380952Y-77454819D02*
X193619047Y-77454819D01*
X193619047Y-77454819D02*
X193714285Y-77502438D01*
X193714285Y-77502438D02*
X193761904Y-77550057D01*
X193761904Y-77550057D02*
X193809523Y-77645295D01*
X193809523Y-77645295D02*
X193809523Y-77740533D01*
X193809523Y-77740533D02*
X193761904Y-77883390D01*
X193761904Y-77883390D02*
X193190476Y-78454819D01*
X193190476Y-78454819D02*
X193809523Y-78454819D01*
X170460952Y-90954819D02*
X170127619Y-90478628D01*
X169889524Y-90954819D02*
X169889524Y-89954819D01*
X169889524Y-89954819D02*
X170270476Y-89954819D01*
X170270476Y-89954819D02*
X170365714Y-90002438D01*
X170365714Y-90002438D02*
X170413333Y-90050057D01*
X170413333Y-90050057D02*
X170460952Y-90145295D01*
X170460952Y-90145295D02*
X170460952Y-90288152D01*
X170460952Y-90288152D02*
X170413333Y-90383390D01*
X170413333Y-90383390D02*
X170365714Y-90431009D01*
X170365714Y-90431009D02*
X170270476Y-90478628D01*
X170270476Y-90478628D02*
X169889524Y-90478628D01*
X171413333Y-90954819D02*
X170841905Y-90954819D01*
X171127619Y-90954819D02*
X171127619Y-89954819D01*
X171127619Y-89954819D02*
X171032381Y-90097676D01*
X171032381Y-90097676D02*
X170937143Y-90192914D01*
X170937143Y-90192914D02*
X170841905Y-90240533D01*
X172365714Y-90954819D02*
X171794286Y-90954819D01*
X172080000Y-90954819D02*
X172080000Y-89954819D01*
X172080000Y-89954819D02*
X171984762Y-90097676D01*
X171984762Y-90097676D02*
X171889524Y-90192914D01*
X171889524Y-90192914D02*
X171794286Y-90240533D01*
X173222857Y-89954819D02*
X173032381Y-89954819D01*
X173032381Y-89954819D02*
X172937143Y-90002438D01*
X172937143Y-90002438D02*
X172889524Y-90050057D01*
X172889524Y-90050057D02*
X172794286Y-90192914D01*
X172794286Y-90192914D02*
X172746667Y-90383390D01*
X172746667Y-90383390D02*
X172746667Y-90764342D01*
X172746667Y-90764342D02*
X172794286Y-90859580D01*
X172794286Y-90859580D02*
X172841905Y-90907200D01*
X172841905Y-90907200D02*
X172937143Y-90954819D01*
X172937143Y-90954819D02*
X173127619Y-90954819D01*
X173127619Y-90954819D02*
X173222857Y-90907200D01*
X173222857Y-90907200D02*
X173270476Y-90859580D01*
X173270476Y-90859580D02*
X173318095Y-90764342D01*
X173318095Y-90764342D02*
X173318095Y-90526247D01*
X173318095Y-90526247D02*
X173270476Y-90431009D01*
X173270476Y-90431009D02*
X173222857Y-90383390D01*
X173222857Y-90383390D02*
X173127619Y-90335771D01*
X173127619Y-90335771D02*
X172937143Y-90335771D01*
X172937143Y-90335771D02*
X172841905Y-90383390D01*
X172841905Y-90383390D02*
X172794286Y-90431009D01*
X172794286Y-90431009D02*
X172746667Y-90526247D01*
X224666666Y-74894819D02*
X224666666Y-75609104D01*
X224666666Y-75609104D02*
X224619047Y-75751961D01*
X224619047Y-75751961D02*
X224523809Y-75847200D01*
X224523809Y-75847200D02*
X224380952Y-75894819D01*
X224380952Y-75894819D02*
X224285714Y-75894819D01*
X225619047Y-74894819D02*
X225142857Y-74894819D01*
X225142857Y-74894819D02*
X225095238Y-75371009D01*
X225095238Y-75371009D02*
X225142857Y-75323390D01*
X225142857Y-75323390D02*
X225238095Y-75275771D01*
X225238095Y-75275771D02*
X225476190Y-75275771D01*
X225476190Y-75275771D02*
X225571428Y-75323390D01*
X225571428Y-75323390D02*
X225619047Y-75371009D01*
X225619047Y-75371009D02*
X225666666Y-75466247D01*
X225666666Y-75466247D02*
X225666666Y-75704342D01*
X225666666Y-75704342D02*
X225619047Y-75799580D01*
X225619047Y-75799580D02*
X225571428Y-75847200D01*
X225571428Y-75847200D02*
X225476190Y-75894819D01*
X225476190Y-75894819D02*
X225238095Y-75894819D01*
X225238095Y-75894819D02*
X225142857Y-75847200D01*
X225142857Y-75847200D02*
X225095238Y-75799580D01*
X135704819Y-111472857D02*
X135228628Y-111806190D01*
X135704819Y-112044285D02*
X134704819Y-112044285D01*
X134704819Y-112044285D02*
X134704819Y-111663333D01*
X134704819Y-111663333D02*
X134752438Y-111568095D01*
X134752438Y-111568095D02*
X134800057Y-111520476D01*
X134800057Y-111520476D02*
X134895295Y-111472857D01*
X134895295Y-111472857D02*
X135038152Y-111472857D01*
X135038152Y-111472857D02*
X135133390Y-111520476D01*
X135133390Y-111520476D02*
X135181009Y-111568095D01*
X135181009Y-111568095D02*
X135228628Y-111663333D01*
X135228628Y-111663333D02*
X135228628Y-112044285D01*
X134800057Y-111091904D02*
X134752438Y-111044285D01*
X134752438Y-111044285D02*
X134704819Y-110949047D01*
X134704819Y-110949047D02*
X134704819Y-110710952D01*
X134704819Y-110710952D02*
X134752438Y-110615714D01*
X134752438Y-110615714D02*
X134800057Y-110568095D01*
X134800057Y-110568095D02*
X134895295Y-110520476D01*
X134895295Y-110520476D02*
X134990533Y-110520476D01*
X134990533Y-110520476D02*
X135133390Y-110568095D01*
X135133390Y-110568095D02*
X135704819Y-111139523D01*
X135704819Y-111139523D02*
X135704819Y-110520476D01*
X134800057Y-110139523D02*
X134752438Y-110091904D01*
X134752438Y-110091904D02*
X134704819Y-109996666D01*
X134704819Y-109996666D02*
X134704819Y-109758571D01*
X134704819Y-109758571D02*
X134752438Y-109663333D01*
X134752438Y-109663333D02*
X134800057Y-109615714D01*
X134800057Y-109615714D02*
X134895295Y-109568095D01*
X134895295Y-109568095D02*
X134990533Y-109568095D01*
X134990533Y-109568095D02*
X135133390Y-109615714D01*
X135133390Y-109615714D02*
X135704819Y-110187142D01*
X135704819Y-110187142D02*
X135704819Y-109568095D01*
X145337142Y-81354819D02*
X145003809Y-80878628D01*
X144765714Y-81354819D02*
X144765714Y-80354819D01*
X144765714Y-80354819D02*
X145146666Y-80354819D01*
X145146666Y-80354819D02*
X145241904Y-80402438D01*
X145241904Y-80402438D02*
X145289523Y-80450057D01*
X145289523Y-80450057D02*
X145337142Y-80545295D01*
X145337142Y-80545295D02*
X145337142Y-80688152D01*
X145337142Y-80688152D02*
X145289523Y-80783390D01*
X145289523Y-80783390D02*
X145241904Y-80831009D01*
X145241904Y-80831009D02*
X145146666Y-80878628D01*
X145146666Y-80878628D02*
X144765714Y-80878628D01*
X146289523Y-81354819D02*
X145718095Y-81354819D01*
X146003809Y-81354819D02*
X146003809Y-80354819D01*
X146003809Y-80354819D02*
X145908571Y-80497676D01*
X145908571Y-80497676D02*
X145813333Y-80592914D01*
X145813333Y-80592914D02*
X145718095Y-80640533D01*
X147146666Y-80688152D02*
X147146666Y-81354819D01*
X146908571Y-80307200D02*
X146670476Y-81021485D01*
X146670476Y-81021485D02*
X147289523Y-81021485D01*
X154137142Y-107154819D02*
X153803809Y-106678628D01*
X153565714Y-107154819D02*
X153565714Y-106154819D01*
X153565714Y-106154819D02*
X153946666Y-106154819D01*
X153946666Y-106154819D02*
X154041904Y-106202438D01*
X154041904Y-106202438D02*
X154089523Y-106250057D01*
X154089523Y-106250057D02*
X154137142Y-106345295D01*
X154137142Y-106345295D02*
X154137142Y-106488152D01*
X154137142Y-106488152D02*
X154089523Y-106583390D01*
X154089523Y-106583390D02*
X154041904Y-106631009D01*
X154041904Y-106631009D02*
X153946666Y-106678628D01*
X153946666Y-106678628D02*
X153565714Y-106678628D01*
X155089523Y-107154819D02*
X154518095Y-107154819D01*
X154803809Y-107154819D02*
X154803809Y-106154819D01*
X154803809Y-106154819D02*
X154708571Y-106297676D01*
X154708571Y-106297676D02*
X154613333Y-106392914D01*
X154613333Y-106392914D02*
X154518095Y-106440533D01*
X155565714Y-107154819D02*
X155756190Y-107154819D01*
X155756190Y-107154819D02*
X155851428Y-107107200D01*
X155851428Y-107107200D02*
X155899047Y-107059580D01*
X155899047Y-107059580D02*
X155994285Y-106916723D01*
X155994285Y-106916723D02*
X156041904Y-106726247D01*
X156041904Y-106726247D02*
X156041904Y-106345295D01*
X156041904Y-106345295D02*
X155994285Y-106250057D01*
X155994285Y-106250057D02*
X155946666Y-106202438D01*
X155946666Y-106202438D02*
X155851428Y-106154819D01*
X155851428Y-106154819D02*
X155660952Y-106154819D01*
X155660952Y-106154819D02*
X155565714Y-106202438D01*
X155565714Y-106202438D02*
X155518095Y-106250057D01*
X155518095Y-106250057D02*
X155470476Y-106345295D01*
X155470476Y-106345295D02*
X155470476Y-106583390D01*
X155470476Y-106583390D02*
X155518095Y-106678628D01*
X155518095Y-106678628D02*
X155565714Y-106726247D01*
X155565714Y-106726247D02*
X155660952Y-106773866D01*
X155660952Y-106773866D02*
X155851428Y-106773866D01*
X155851428Y-106773866D02*
X155946666Y-106726247D01*
X155946666Y-106726247D02*
X155994285Y-106678628D01*
X155994285Y-106678628D02*
X156041904Y-106583390D01*
X192238095Y-124454819D02*
X192238095Y-123454819D01*
X192238095Y-123931009D02*
X192809523Y-123931009D01*
X192809523Y-124454819D02*
X192809523Y-123454819D01*
X193190476Y-123454819D02*
X193809523Y-123454819D01*
X193809523Y-123454819D02*
X193476190Y-123835771D01*
X193476190Y-123835771D02*
X193619047Y-123835771D01*
X193619047Y-123835771D02*
X193714285Y-123883390D01*
X193714285Y-123883390D02*
X193761904Y-123931009D01*
X193761904Y-123931009D02*
X193809523Y-124026247D01*
X193809523Y-124026247D02*
X193809523Y-124264342D01*
X193809523Y-124264342D02*
X193761904Y-124359580D01*
X193761904Y-124359580D02*
X193714285Y-124407200D01*
X193714285Y-124407200D02*
X193619047Y-124454819D01*
X193619047Y-124454819D02*
X193333333Y-124454819D01*
X193333333Y-124454819D02*
X193238095Y-124407200D01*
X193238095Y-124407200D02*
X193190476Y-124359580D01*
X172200952Y-87854819D02*
X171867619Y-87378628D01*
X171629524Y-87854819D02*
X171629524Y-86854819D01*
X171629524Y-86854819D02*
X172010476Y-86854819D01*
X172010476Y-86854819D02*
X172105714Y-86902438D01*
X172105714Y-86902438D02*
X172153333Y-86950057D01*
X172153333Y-86950057D02*
X172200952Y-87045295D01*
X172200952Y-87045295D02*
X172200952Y-87188152D01*
X172200952Y-87188152D02*
X172153333Y-87283390D01*
X172153333Y-87283390D02*
X172105714Y-87331009D01*
X172105714Y-87331009D02*
X172010476Y-87378628D01*
X172010476Y-87378628D02*
X171629524Y-87378628D01*
X173153333Y-87854819D02*
X172581905Y-87854819D01*
X172867619Y-87854819D02*
X172867619Y-86854819D01*
X172867619Y-86854819D02*
X172772381Y-86997676D01*
X172772381Y-86997676D02*
X172677143Y-87092914D01*
X172677143Y-87092914D02*
X172581905Y-87140533D01*
X174105714Y-87854819D02*
X173534286Y-87854819D01*
X173820000Y-87854819D02*
X173820000Y-86854819D01*
X173820000Y-86854819D02*
X173724762Y-86997676D01*
X173724762Y-86997676D02*
X173629524Y-87092914D01*
X173629524Y-87092914D02*
X173534286Y-87140533D01*
X175010476Y-86854819D02*
X174534286Y-86854819D01*
X174534286Y-86854819D02*
X174486667Y-87331009D01*
X174486667Y-87331009D02*
X174534286Y-87283390D01*
X174534286Y-87283390D02*
X174629524Y-87235771D01*
X174629524Y-87235771D02*
X174867619Y-87235771D01*
X174867619Y-87235771D02*
X174962857Y-87283390D01*
X174962857Y-87283390D02*
X175010476Y-87331009D01*
X175010476Y-87331009D02*
X175058095Y-87426247D01*
X175058095Y-87426247D02*
X175058095Y-87664342D01*
X175058095Y-87664342D02*
X175010476Y-87759580D01*
X175010476Y-87759580D02*
X174962857Y-87807200D01*
X174962857Y-87807200D02*
X174867619Y-87854819D01*
X174867619Y-87854819D02*
X174629524Y-87854819D01*
X174629524Y-87854819D02*
X174534286Y-87807200D01*
X174534286Y-87807200D02*
X174486667Y-87759580D01*
X132666666Y-96014819D02*
X132666666Y-96729104D01*
X132666666Y-96729104D02*
X132619047Y-96871961D01*
X132619047Y-96871961D02*
X132523809Y-96967200D01*
X132523809Y-96967200D02*
X132380952Y-97014819D01*
X132380952Y-97014819D02*
X132285714Y-97014819D01*
X133666666Y-97014819D02*
X133095238Y-97014819D01*
X133380952Y-97014819D02*
X133380952Y-96014819D01*
X133380952Y-96014819D02*
X133285714Y-96157676D01*
X133285714Y-96157676D02*
X133190476Y-96252914D01*
X133190476Y-96252914D02*
X133095238Y-96300533D01*
X163059580Y-105766666D02*
X163107200Y-105814285D01*
X163107200Y-105814285D02*
X163154819Y-105957142D01*
X163154819Y-105957142D02*
X163154819Y-106052380D01*
X163154819Y-106052380D02*
X163107200Y-106195237D01*
X163107200Y-106195237D02*
X163011961Y-106290475D01*
X163011961Y-106290475D02*
X162916723Y-106338094D01*
X162916723Y-106338094D02*
X162726247Y-106385713D01*
X162726247Y-106385713D02*
X162583390Y-106385713D01*
X162583390Y-106385713D02*
X162392914Y-106338094D01*
X162392914Y-106338094D02*
X162297676Y-106290475D01*
X162297676Y-106290475D02*
X162202438Y-106195237D01*
X162202438Y-106195237D02*
X162154819Y-106052380D01*
X162154819Y-106052380D02*
X162154819Y-105957142D01*
X162154819Y-105957142D02*
X162202438Y-105814285D01*
X162202438Y-105814285D02*
X162250057Y-105766666D01*
X162154819Y-105433332D02*
X162154819Y-104766666D01*
X162154819Y-104766666D02*
X163154819Y-105195237D01*
X141400057Y-113695238D02*
X141352438Y-113790476D01*
X141352438Y-113790476D02*
X141257200Y-113885714D01*
X141257200Y-113885714D02*
X141114342Y-114028571D01*
X141114342Y-114028571D02*
X141066723Y-114123809D01*
X141066723Y-114123809D02*
X141066723Y-114219047D01*
X141304819Y-114171428D02*
X141257200Y-114266666D01*
X141257200Y-114266666D02*
X141161961Y-114361904D01*
X141161961Y-114361904D02*
X140971485Y-114409523D01*
X140971485Y-114409523D02*
X140638152Y-114409523D01*
X140638152Y-114409523D02*
X140447676Y-114361904D01*
X140447676Y-114361904D02*
X140352438Y-114266666D01*
X140352438Y-114266666D02*
X140304819Y-114171428D01*
X140304819Y-114171428D02*
X140304819Y-113980952D01*
X140304819Y-113980952D02*
X140352438Y-113885714D01*
X140352438Y-113885714D02*
X140447676Y-113790476D01*
X140447676Y-113790476D02*
X140638152Y-113742857D01*
X140638152Y-113742857D02*
X140971485Y-113742857D01*
X140971485Y-113742857D02*
X141161961Y-113790476D01*
X141161961Y-113790476D02*
X141257200Y-113885714D01*
X141257200Y-113885714D02*
X141304819Y-113980952D01*
X141304819Y-113980952D02*
X141304819Y-114171428D01*
X140638152Y-112885714D02*
X141304819Y-112885714D01*
X140257200Y-113123809D02*
X140971485Y-113361904D01*
X140971485Y-113361904D02*
X140971485Y-112742857D01*
X163050057Y-87387619D02*
X163002438Y-87482857D01*
X163002438Y-87482857D02*
X162907200Y-87578095D01*
X162907200Y-87578095D02*
X162764342Y-87720952D01*
X162764342Y-87720952D02*
X162716723Y-87816190D01*
X162716723Y-87816190D02*
X162716723Y-87911428D01*
X162954819Y-87863809D02*
X162907200Y-87959047D01*
X162907200Y-87959047D02*
X162811961Y-88054285D01*
X162811961Y-88054285D02*
X162621485Y-88101904D01*
X162621485Y-88101904D02*
X162288152Y-88101904D01*
X162288152Y-88101904D02*
X162097676Y-88054285D01*
X162097676Y-88054285D02*
X162002438Y-87959047D01*
X162002438Y-87959047D02*
X161954819Y-87863809D01*
X161954819Y-87863809D02*
X161954819Y-87673333D01*
X161954819Y-87673333D02*
X162002438Y-87578095D01*
X162002438Y-87578095D02*
X162097676Y-87482857D01*
X162097676Y-87482857D02*
X162288152Y-87435238D01*
X162288152Y-87435238D02*
X162621485Y-87435238D01*
X162621485Y-87435238D02*
X162811961Y-87482857D01*
X162811961Y-87482857D02*
X162907200Y-87578095D01*
X162907200Y-87578095D02*
X162954819Y-87673333D01*
X162954819Y-87673333D02*
X162954819Y-87863809D01*
X162954819Y-86482857D02*
X162954819Y-87054285D01*
X162954819Y-86768571D02*
X161954819Y-86768571D01*
X161954819Y-86768571D02*
X162097676Y-86863809D01*
X162097676Y-86863809D02*
X162192914Y-86959047D01*
X162192914Y-86959047D02*
X162240533Y-87054285D01*
X161954819Y-85863809D02*
X161954819Y-85768571D01*
X161954819Y-85768571D02*
X162002438Y-85673333D01*
X162002438Y-85673333D02*
X162050057Y-85625714D01*
X162050057Y-85625714D02*
X162145295Y-85578095D01*
X162145295Y-85578095D02*
X162335771Y-85530476D01*
X162335771Y-85530476D02*
X162573866Y-85530476D01*
X162573866Y-85530476D02*
X162764342Y-85578095D01*
X162764342Y-85578095D02*
X162859580Y-85625714D01*
X162859580Y-85625714D02*
X162907200Y-85673333D01*
X162907200Y-85673333D02*
X162954819Y-85768571D01*
X162954819Y-85768571D02*
X162954819Y-85863809D01*
X162954819Y-85863809D02*
X162907200Y-85959047D01*
X162907200Y-85959047D02*
X162859580Y-86006666D01*
X162859580Y-86006666D02*
X162764342Y-86054285D01*
X162764342Y-86054285D02*
X162573866Y-86101904D01*
X162573866Y-86101904D02*
X162335771Y-86101904D01*
X162335771Y-86101904D02*
X162145295Y-86054285D01*
X162145295Y-86054285D02*
X162050057Y-86006666D01*
X162050057Y-86006666D02*
X162002438Y-85959047D01*
X162002438Y-85959047D02*
X161954819Y-85863809D01*
X162050057Y-85149523D02*
X162002438Y-85101904D01*
X162002438Y-85101904D02*
X161954819Y-85006666D01*
X161954819Y-85006666D02*
X161954819Y-84768571D01*
X161954819Y-84768571D02*
X162002438Y-84673333D01*
X162002438Y-84673333D02*
X162050057Y-84625714D01*
X162050057Y-84625714D02*
X162145295Y-84578095D01*
X162145295Y-84578095D02*
X162240533Y-84578095D01*
X162240533Y-84578095D02*
X162383390Y-84625714D01*
X162383390Y-84625714D02*
X162954819Y-85197142D01*
X162954819Y-85197142D02*
X162954819Y-84578095D01*
X200454819Y-102899047D02*
X199978628Y-103232380D01*
X200454819Y-103470475D02*
X199454819Y-103470475D01*
X199454819Y-103470475D02*
X199454819Y-103089523D01*
X199454819Y-103089523D02*
X199502438Y-102994285D01*
X199502438Y-102994285D02*
X199550057Y-102946666D01*
X199550057Y-102946666D02*
X199645295Y-102899047D01*
X199645295Y-102899047D02*
X199788152Y-102899047D01*
X199788152Y-102899047D02*
X199883390Y-102946666D01*
X199883390Y-102946666D02*
X199931009Y-102994285D01*
X199931009Y-102994285D02*
X199978628Y-103089523D01*
X199978628Y-103089523D02*
X199978628Y-103470475D01*
X200454819Y-101946666D02*
X200454819Y-102518094D01*
X200454819Y-102232380D02*
X199454819Y-102232380D01*
X199454819Y-102232380D02*
X199597676Y-102327618D01*
X199597676Y-102327618D02*
X199692914Y-102422856D01*
X199692914Y-102422856D02*
X199740533Y-102518094D01*
X199454819Y-101327618D02*
X199454819Y-101232380D01*
X199454819Y-101232380D02*
X199502438Y-101137142D01*
X199502438Y-101137142D02*
X199550057Y-101089523D01*
X199550057Y-101089523D02*
X199645295Y-101041904D01*
X199645295Y-101041904D02*
X199835771Y-100994285D01*
X199835771Y-100994285D02*
X200073866Y-100994285D01*
X200073866Y-100994285D02*
X200264342Y-101041904D01*
X200264342Y-101041904D02*
X200359580Y-101089523D01*
X200359580Y-101089523D02*
X200407200Y-101137142D01*
X200407200Y-101137142D02*
X200454819Y-101232380D01*
X200454819Y-101232380D02*
X200454819Y-101327618D01*
X200454819Y-101327618D02*
X200407200Y-101422856D01*
X200407200Y-101422856D02*
X200359580Y-101470475D01*
X200359580Y-101470475D02*
X200264342Y-101518094D01*
X200264342Y-101518094D02*
X200073866Y-101565713D01*
X200073866Y-101565713D02*
X199835771Y-101565713D01*
X199835771Y-101565713D02*
X199645295Y-101518094D01*
X199645295Y-101518094D02*
X199550057Y-101470475D01*
X199550057Y-101470475D02*
X199502438Y-101422856D01*
X199502438Y-101422856D02*
X199454819Y-101327618D01*
X199454819Y-100137142D02*
X199454819Y-100327618D01*
X199454819Y-100327618D02*
X199502438Y-100422856D01*
X199502438Y-100422856D02*
X199550057Y-100470475D01*
X199550057Y-100470475D02*
X199692914Y-100565713D01*
X199692914Y-100565713D02*
X199883390Y-100613332D01*
X199883390Y-100613332D02*
X200264342Y-100613332D01*
X200264342Y-100613332D02*
X200359580Y-100565713D01*
X200359580Y-100565713D02*
X200407200Y-100518094D01*
X200407200Y-100518094D02*
X200454819Y-100422856D01*
X200454819Y-100422856D02*
X200454819Y-100232380D01*
X200454819Y-100232380D02*
X200407200Y-100137142D01*
X200407200Y-100137142D02*
X200359580Y-100089523D01*
X200359580Y-100089523D02*
X200264342Y-100041904D01*
X200264342Y-100041904D02*
X200026247Y-100041904D01*
X200026247Y-100041904D02*
X199931009Y-100089523D01*
X199931009Y-100089523D02*
X199883390Y-100137142D01*
X199883390Y-100137142D02*
X199835771Y-100232380D01*
X199835771Y-100232380D02*
X199835771Y-100422856D01*
X199835771Y-100422856D02*
X199883390Y-100518094D01*
X199883390Y-100518094D02*
X199931009Y-100565713D01*
X199931009Y-100565713D02*
X200026247Y-100613332D01*
X143738095Y-75454819D02*
X143738095Y-74454819D01*
X143738095Y-74931009D02*
X144309523Y-74931009D01*
X144309523Y-75454819D02*
X144309523Y-74454819D01*
X145309523Y-75454819D02*
X144738095Y-75454819D01*
X145023809Y-75454819D02*
X145023809Y-74454819D01*
X145023809Y-74454819D02*
X144928571Y-74597676D01*
X144928571Y-74597676D02*
X144833333Y-74692914D01*
X144833333Y-74692914D02*
X144738095Y-74740533D01*
X224190476Y-104894819D02*
X224190476Y-105609104D01*
X224190476Y-105609104D02*
X224142857Y-105751961D01*
X224142857Y-105751961D02*
X224047619Y-105847200D01*
X224047619Y-105847200D02*
X223904762Y-105894819D01*
X223904762Y-105894819D02*
X223809524Y-105894819D01*
X225190476Y-105894819D02*
X224619048Y-105894819D01*
X224904762Y-105894819D02*
X224904762Y-104894819D01*
X224904762Y-104894819D02*
X224809524Y-105037676D01*
X224809524Y-105037676D02*
X224714286Y-105132914D01*
X224714286Y-105132914D02*
X224619048Y-105180533D01*
X225809524Y-104894819D02*
X225904762Y-104894819D01*
X225904762Y-104894819D02*
X226000000Y-104942438D01*
X226000000Y-104942438D02*
X226047619Y-104990057D01*
X226047619Y-104990057D02*
X226095238Y-105085295D01*
X226095238Y-105085295D02*
X226142857Y-105275771D01*
X226142857Y-105275771D02*
X226142857Y-105513866D01*
X226142857Y-105513866D02*
X226095238Y-105704342D01*
X226095238Y-105704342D02*
X226047619Y-105799580D01*
X226047619Y-105799580D02*
X226000000Y-105847200D01*
X226000000Y-105847200D02*
X225904762Y-105894819D01*
X225904762Y-105894819D02*
X225809524Y-105894819D01*
X225809524Y-105894819D02*
X225714286Y-105847200D01*
X225714286Y-105847200D02*
X225666667Y-105799580D01*
X225666667Y-105799580D02*
X225619048Y-105704342D01*
X225619048Y-105704342D02*
X225571429Y-105513866D01*
X225571429Y-105513866D02*
X225571429Y-105275771D01*
X225571429Y-105275771D02*
X225619048Y-105085295D01*
X225619048Y-105085295D02*
X225666667Y-104990057D01*
X225666667Y-104990057D02*
X225714286Y-104942438D01*
X225714286Y-104942438D02*
X225809524Y-104894819D01*
X141057142Y-119654819D02*
X140723809Y-119178628D01*
X140485714Y-119654819D02*
X140485714Y-118654819D01*
X140485714Y-118654819D02*
X140866666Y-118654819D01*
X140866666Y-118654819D02*
X140961904Y-118702438D01*
X140961904Y-118702438D02*
X141009523Y-118750057D01*
X141009523Y-118750057D02*
X141057142Y-118845295D01*
X141057142Y-118845295D02*
X141057142Y-118988152D01*
X141057142Y-118988152D02*
X141009523Y-119083390D01*
X141009523Y-119083390D02*
X140961904Y-119131009D01*
X140961904Y-119131009D02*
X140866666Y-119178628D01*
X140866666Y-119178628D02*
X140485714Y-119178628D01*
X142009523Y-119654819D02*
X141438095Y-119654819D01*
X141723809Y-119654819D02*
X141723809Y-118654819D01*
X141723809Y-118654819D02*
X141628571Y-118797676D01*
X141628571Y-118797676D02*
X141533333Y-118892914D01*
X141533333Y-118892914D02*
X141438095Y-118940533D01*
X142628571Y-118654819D02*
X142723809Y-118654819D01*
X142723809Y-118654819D02*
X142819047Y-118702438D01*
X142819047Y-118702438D02*
X142866666Y-118750057D01*
X142866666Y-118750057D02*
X142914285Y-118845295D01*
X142914285Y-118845295D02*
X142961904Y-119035771D01*
X142961904Y-119035771D02*
X142961904Y-119273866D01*
X142961904Y-119273866D02*
X142914285Y-119464342D01*
X142914285Y-119464342D02*
X142866666Y-119559580D01*
X142866666Y-119559580D02*
X142819047Y-119607200D01*
X142819047Y-119607200D02*
X142723809Y-119654819D01*
X142723809Y-119654819D02*
X142628571Y-119654819D01*
X142628571Y-119654819D02*
X142533333Y-119607200D01*
X142533333Y-119607200D02*
X142485714Y-119559580D01*
X142485714Y-119559580D02*
X142438095Y-119464342D01*
X142438095Y-119464342D02*
X142390476Y-119273866D01*
X142390476Y-119273866D02*
X142390476Y-119035771D01*
X142390476Y-119035771D02*
X142438095Y-118845295D01*
X142438095Y-118845295D02*
X142485714Y-118750057D01*
X142485714Y-118750057D02*
X142533333Y-118702438D01*
X142533333Y-118702438D02*
X142628571Y-118654819D01*
X151937142Y-91954819D02*
X151603809Y-91478628D01*
X151365714Y-91954819D02*
X151365714Y-90954819D01*
X151365714Y-90954819D02*
X151746666Y-90954819D01*
X151746666Y-90954819D02*
X151841904Y-91002438D01*
X151841904Y-91002438D02*
X151889523Y-91050057D01*
X151889523Y-91050057D02*
X151937142Y-91145295D01*
X151937142Y-91145295D02*
X151937142Y-91288152D01*
X151937142Y-91288152D02*
X151889523Y-91383390D01*
X151889523Y-91383390D02*
X151841904Y-91431009D01*
X151841904Y-91431009D02*
X151746666Y-91478628D01*
X151746666Y-91478628D02*
X151365714Y-91478628D01*
X152889523Y-91954819D02*
X152318095Y-91954819D01*
X152603809Y-91954819D02*
X152603809Y-90954819D01*
X152603809Y-90954819D02*
X152508571Y-91097676D01*
X152508571Y-91097676D02*
X152413333Y-91192914D01*
X152413333Y-91192914D02*
X152318095Y-91240533D01*
X153222857Y-90954819D02*
X153841904Y-90954819D01*
X153841904Y-90954819D02*
X153508571Y-91335771D01*
X153508571Y-91335771D02*
X153651428Y-91335771D01*
X153651428Y-91335771D02*
X153746666Y-91383390D01*
X153746666Y-91383390D02*
X153794285Y-91431009D01*
X153794285Y-91431009D02*
X153841904Y-91526247D01*
X153841904Y-91526247D02*
X153841904Y-91764342D01*
X153841904Y-91764342D02*
X153794285Y-91859580D01*
X153794285Y-91859580D02*
X153746666Y-91907200D01*
X153746666Y-91907200D02*
X153651428Y-91954819D01*
X153651428Y-91954819D02*
X153365714Y-91954819D01*
X153365714Y-91954819D02*
X153270476Y-91907200D01*
X153270476Y-91907200D02*
X153222857Y-91859580D01*
X145254819Y-96622857D02*
X144778628Y-96956190D01*
X145254819Y-97194285D02*
X144254819Y-97194285D01*
X144254819Y-97194285D02*
X144254819Y-96813333D01*
X144254819Y-96813333D02*
X144302438Y-96718095D01*
X144302438Y-96718095D02*
X144350057Y-96670476D01*
X144350057Y-96670476D02*
X144445295Y-96622857D01*
X144445295Y-96622857D02*
X144588152Y-96622857D01*
X144588152Y-96622857D02*
X144683390Y-96670476D01*
X144683390Y-96670476D02*
X144731009Y-96718095D01*
X144731009Y-96718095D02*
X144778628Y-96813333D01*
X144778628Y-96813333D02*
X144778628Y-97194285D01*
X145254819Y-95670476D02*
X145254819Y-96241904D01*
X145254819Y-95956190D02*
X144254819Y-95956190D01*
X144254819Y-95956190D02*
X144397676Y-96051428D01*
X144397676Y-96051428D02*
X144492914Y-96146666D01*
X144492914Y-96146666D02*
X144540533Y-96241904D01*
X145254819Y-94718095D02*
X145254819Y-95289523D01*
X145254819Y-95003809D02*
X144254819Y-95003809D01*
X144254819Y-95003809D02*
X144397676Y-95099047D01*
X144397676Y-95099047D02*
X144492914Y-95194285D01*
X144492914Y-95194285D02*
X144540533Y-95289523D01*
X142150057Y-86235238D02*
X142102438Y-86330476D01*
X142102438Y-86330476D02*
X142007200Y-86425714D01*
X142007200Y-86425714D02*
X141864342Y-86568571D01*
X141864342Y-86568571D02*
X141816723Y-86663809D01*
X141816723Y-86663809D02*
X141816723Y-86759047D01*
X142054819Y-86711428D02*
X142007200Y-86806666D01*
X142007200Y-86806666D02*
X141911961Y-86901904D01*
X141911961Y-86901904D02*
X141721485Y-86949523D01*
X141721485Y-86949523D02*
X141388152Y-86949523D01*
X141388152Y-86949523D02*
X141197676Y-86901904D01*
X141197676Y-86901904D02*
X141102438Y-86806666D01*
X141102438Y-86806666D02*
X141054819Y-86711428D01*
X141054819Y-86711428D02*
X141054819Y-86520952D01*
X141054819Y-86520952D02*
X141102438Y-86425714D01*
X141102438Y-86425714D02*
X141197676Y-86330476D01*
X141197676Y-86330476D02*
X141388152Y-86282857D01*
X141388152Y-86282857D02*
X141721485Y-86282857D01*
X141721485Y-86282857D02*
X141911961Y-86330476D01*
X141911961Y-86330476D02*
X142007200Y-86425714D01*
X142007200Y-86425714D02*
X142054819Y-86520952D01*
X142054819Y-86520952D02*
X142054819Y-86711428D01*
X141150057Y-85901904D02*
X141102438Y-85854285D01*
X141102438Y-85854285D02*
X141054819Y-85759047D01*
X141054819Y-85759047D02*
X141054819Y-85520952D01*
X141054819Y-85520952D02*
X141102438Y-85425714D01*
X141102438Y-85425714D02*
X141150057Y-85378095D01*
X141150057Y-85378095D02*
X141245295Y-85330476D01*
X141245295Y-85330476D02*
X141340533Y-85330476D01*
X141340533Y-85330476D02*
X141483390Y-85378095D01*
X141483390Y-85378095D02*
X142054819Y-85949523D01*
X142054819Y-85949523D02*
X142054819Y-85330476D01*
X188454819Y-108239047D02*
X187978628Y-108572380D01*
X188454819Y-108810475D02*
X187454819Y-108810475D01*
X187454819Y-108810475D02*
X187454819Y-108429523D01*
X187454819Y-108429523D02*
X187502438Y-108334285D01*
X187502438Y-108334285D02*
X187550057Y-108286666D01*
X187550057Y-108286666D02*
X187645295Y-108239047D01*
X187645295Y-108239047D02*
X187788152Y-108239047D01*
X187788152Y-108239047D02*
X187883390Y-108286666D01*
X187883390Y-108286666D02*
X187931009Y-108334285D01*
X187931009Y-108334285D02*
X187978628Y-108429523D01*
X187978628Y-108429523D02*
X187978628Y-108810475D01*
X188454819Y-107286666D02*
X188454819Y-107858094D01*
X188454819Y-107572380D02*
X187454819Y-107572380D01*
X187454819Y-107572380D02*
X187597676Y-107667618D01*
X187597676Y-107667618D02*
X187692914Y-107762856D01*
X187692914Y-107762856D02*
X187740533Y-107858094D01*
X187454819Y-106667618D02*
X187454819Y-106572380D01*
X187454819Y-106572380D02*
X187502438Y-106477142D01*
X187502438Y-106477142D02*
X187550057Y-106429523D01*
X187550057Y-106429523D02*
X187645295Y-106381904D01*
X187645295Y-106381904D02*
X187835771Y-106334285D01*
X187835771Y-106334285D02*
X188073866Y-106334285D01*
X188073866Y-106334285D02*
X188264342Y-106381904D01*
X188264342Y-106381904D02*
X188359580Y-106429523D01*
X188359580Y-106429523D02*
X188407200Y-106477142D01*
X188407200Y-106477142D02*
X188454819Y-106572380D01*
X188454819Y-106572380D02*
X188454819Y-106667618D01*
X188454819Y-106667618D02*
X188407200Y-106762856D01*
X188407200Y-106762856D02*
X188359580Y-106810475D01*
X188359580Y-106810475D02*
X188264342Y-106858094D01*
X188264342Y-106858094D02*
X188073866Y-106905713D01*
X188073866Y-106905713D02*
X187835771Y-106905713D01*
X187835771Y-106905713D02*
X187645295Y-106858094D01*
X187645295Y-106858094D02*
X187550057Y-106810475D01*
X187550057Y-106810475D02*
X187502438Y-106762856D01*
X187502438Y-106762856D02*
X187454819Y-106667618D01*
X187454819Y-106000951D02*
X187454819Y-105381904D01*
X187454819Y-105381904D02*
X187835771Y-105715237D01*
X187835771Y-105715237D02*
X187835771Y-105572380D01*
X187835771Y-105572380D02*
X187883390Y-105477142D01*
X187883390Y-105477142D02*
X187931009Y-105429523D01*
X187931009Y-105429523D02*
X188026247Y-105381904D01*
X188026247Y-105381904D02*
X188264342Y-105381904D01*
X188264342Y-105381904D02*
X188359580Y-105429523D01*
X188359580Y-105429523D02*
X188407200Y-105477142D01*
X188407200Y-105477142D02*
X188454819Y-105572380D01*
X188454819Y-105572380D02*
X188454819Y-105858094D01*
X188454819Y-105858094D02*
X188407200Y-105953332D01*
X188407200Y-105953332D02*
X188359580Y-106000951D01*
X150654819Y-118622857D02*
X150178628Y-118956190D01*
X150654819Y-119194285D02*
X149654819Y-119194285D01*
X149654819Y-119194285D02*
X149654819Y-118813333D01*
X149654819Y-118813333D02*
X149702438Y-118718095D01*
X149702438Y-118718095D02*
X149750057Y-118670476D01*
X149750057Y-118670476D02*
X149845295Y-118622857D01*
X149845295Y-118622857D02*
X149988152Y-118622857D01*
X149988152Y-118622857D02*
X150083390Y-118670476D01*
X150083390Y-118670476D02*
X150131009Y-118718095D01*
X150131009Y-118718095D02*
X150178628Y-118813333D01*
X150178628Y-118813333D02*
X150178628Y-119194285D01*
X150654819Y-117670476D02*
X150654819Y-118241904D01*
X150654819Y-117956190D02*
X149654819Y-117956190D01*
X149654819Y-117956190D02*
X149797676Y-118051428D01*
X149797676Y-118051428D02*
X149892914Y-118146666D01*
X149892914Y-118146666D02*
X149940533Y-118241904D01*
X149654819Y-116765714D02*
X149654819Y-117241904D01*
X149654819Y-117241904D02*
X150131009Y-117289523D01*
X150131009Y-117289523D02*
X150083390Y-117241904D01*
X150083390Y-117241904D02*
X150035771Y-117146666D01*
X150035771Y-117146666D02*
X150035771Y-116908571D01*
X150035771Y-116908571D02*
X150083390Y-116813333D01*
X150083390Y-116813333D02*
X150131009Y-116765714D01*
X150131009Y-116765714D02*
X150226247Y-116718095D01*
X150226247Y-116718095D02*
X150464342Y-116718095D01*
X150464342Y-116718095D02*
X150559580Y-116765714D01*
X150559580Y-116765714D02*
X150607200Y-116813333D01*
X150607200Y-116813333D02*
X150654819Y-116908571D01*
X150654819Y-116908571D02*
X150654819Y-117146666D01*
X150654819Y-117146666D02*
X150607200Y-117241904D01*
X150607200Y-117241904D02*
X150559580Y-117289523D01*
X160859580Y-118666666D02*
X160907200Y-118714285D01*
X160907200Y-118714285D02*
X160954819Y-118857142D01*
X160954819Y-118857142D02*
X160954819Y-118952380D01*
X160954819Y-118952380D02*
X160907200Y-119095237D01*
X160907200Y-119095237D02*
X160811961Y-119190475D01*
X160811961Y-119190475D02*
X160716723Y-119238094D01*
X160716723Y-119238094D02*
X160526247Y-119285713D01*
X160526247Y-119285713D02*
X160383390Y-119285713D01*
X160383390Y-119285713D02*
X160192914Y-119238094D01*
X160192914Y-119238094D02*
X160097676Y-119190475D01*
X160097676Y-119190475D02*
X160002438Y-119095237D01*
X160002438Y-119095237D02*
X159954819Y-118952380D01*
X159954819Y-118952380D02*
X159954819Y-118857142D01*
X159954819Y-118857142D02*
X160002438Y-118714285D01*
X160002438Y-118714285D02*
X160050057Y-118666666D01*
X159954819Y-117809523D02*
X159954819Y-117999999D01*
X159954819Y-117999999D02*
X160002438Y-118095237D01*
X160002438Y-118095237D02*
X160050057Y-118142856D01*
X160050057Y-118142856D02*
X160192914Y-118238094D01*
X160192914Y-118238094D02*
X160383390Y-118285713D01*
X160383390Y-118285713D02*
X160764342Y-118285713D01*
X160764342Y-118285713D02*
X160859580Y-118238094D01*
X160859580Y-118238094D02*
X160907200Y-118190475D01*
X160907200Y-118190475D02*
X160954819Y-118095237D01*
X160954819Y-118095237D02*
X160954819Y-117904761D01*
X160954819Y-117904761D02*
X160907200Y-117809523D01*
X160907200Y-117809523D02*
X160859580Y-117761904D01*
X160859580Y-117761904D02*
X160764342Y-117714285D01*
X160764342Y-117714285D02*
X160526247Y-117714285D01*
X160526247Y-117714285D02*
X160431009Y-117761904D01*
X160431009Y-117761904D02*
X160383390Y-117809523D01*
X160383390Y-117809523D02*
X160335771Y-117904761D01*
X160335771Y-117904761D02*
X160335771Y-118095237D01*
X160335771Y-118095237D02*
X160383390Y-118190475D01*
X160383390Y-118190475D02*
X160431009Y-118238094D01*
X160431009Y-118238094D02*
X160526247Y-118285713D01*
X145750057Y-113635238D02*
X145702438Y-113730476D01*
X145702438Y-113730476D02*
X145607200Y-113825714D01*
X145607200Y-113825714D02*
X145464342Y-113968571D01*
X145464342Y-113968571D02*
X145416723Y-114063809D01*
X145416723Y-114063809D02*
X145416723Y-114159047D01*
X145654819Y-114111428D02*
X145607200Y-114206666D01*
X145607200Y-114206666D02*
X145511961Y-114301904D01*
X145511961Y-114301904D02*
X145321485Y-114349523D01*
X145321485Y-114349523D02*
X144988152Y-114349523D01*
X144988152Y-114349523D02*
X144797676Y-114301904D01*
X144797676Y-114301904D02*
X144702438Y-114206666D01*
X144702438Y-114206666D02*
X144654819Y-114111428D01*
X144654819Y-114111428D02*
X144654819Y-113920952D01*
X144654819Y-113920952D02*
X144702438Y-113825714D01*
X144702438Y-113825714D02*
X144797676Y-113730476D01*
X144797676Y-113730476D02*
X144988152Y-113682857D01*
X144988152Y-113682857D02*
X145321485Y-113682857D01*
X145321485Y-113682857D02*
X145511961Y-113730476D01*
X145511961Y-113730476D02*
X145607200Y-113825714D01*
X145607200Y-113825714D02*
X145654819Y-113920952D01*
X145654819Y-113920952D02*
X145654819Y-114111428D01*
X144654819Y-112778095D02*
X144654819Y-113254285D01*
X144654819Y-113254285D02*
X145131009Y-113301904D01*
X145131009Y-113301904D02*
X145083390Y-113254285D01*
X145083390Y-113254285D02*
X145035771Y-113159047D01*
X145035771Y-113159047D02*
X145035771Y-112920952D01*
X145035771Y-112920952D02*
X145083390Y-112825714D01*
X145083390Y-112825714D02*
X145131009Y-112778095D01*
X145131009Y-112778095D02*
X145226247Y-112730476D01*
X145226247Y-112730476D02*
X145464342Y-112730476D01*
X145464342Y-112730476D02*
X145559580Y-112778095D01*
X145559580Y-112778095D02*
X145607200Y-112825714D01*
X145607200Y-112825714D02*
X145654819Y-112920952D01*
X145654819Y-112920952D02*
X145654819Y-113159047D01*
X145654819Y-113159047D02*
X145607200Y-113254285D01*
X145607200Y-113254285D02*
X145559580Y-113301904D01*
X154177142Y-110454819D02*
X153843809Y-109978628D01*
X153605714Y-110454819D02*
X153605714Y-109454819D01*
X153605714Y-109454819D02*
X153986666Y-109454819D01*
X153986666Y-109454819D02*
X154081904Y-109502438D01*
X154081904Y-109502438D02*
X154129523Y-109550057D01*
X154129523Y-109550057D02*
X154177142Y-109645295D01*
X154177142Y-109645295D02*
X154177142Y-109788152D01*
X154177142Y-109788152D02*
X154129523Y-109883390D01*
X154129523Y-109883390D02*
X154081904Y-109931009D01*
X154081904Y-109931009D02*
X153986666Y-109978628D01*
X153986666Y-109978628D02*
X153605714Y-109978628D01*
X154558095Y-109550057D02*
X154605714Y-109502438D01*
X154605714Y-109502438D02*
X154700952Y-109454819D01*
X154700952Y-109454819D02*
X154939047Y-109454819D01*
X154939047Y-109454819D02*
X155034285Y-109502438D01*
X155034285Y-109502438D02*
X155081904Y-109550057D01*
X155081904Y-109550057D02*
X155129523Y-109645295D01*
X155129523Y-109645295D02*
X155129523Y-109740533D01*
X155129523Y-109740533D02*
X155081904Y-109883390D01*
X155081904Y-109883390D02*
X154510476Y-110454819D01*
X154510476Y-110454819D02*
X155129523Y-110454819D01*
X155748571Y-109454819D02*
X155843809Y-109454819D01*
X155843809Y-109454819D02*
X155939047Y-109502438D01*
X155939047Y-109502438D02*
X155986666Y-109550057D01*
X155986666Y-109550057D02*
X156034285Y-109645295D01*
X156034285Y-109645295D02*
X156081904Y-109835771D01*
X156081904Y-109835771D02*
X156081904Y-110073866D01*
X156081904Y-110073866D02*
X156034285Y-110264342D01*
X156034285Y-110264342D02*
X155986666Y-110359580D01*
X155986666Y-110359580D02*
X155939047Y-110407200D01*
X155939047Y-110407200D02*
X155843809Y-110454819D01*
X155843809Y-110454819D02*
X155748571Y-110454819D01*
X155748571Y-110454819D02*
X155653333Y-110407200D01*
X155653333Y-110407200D02*
X155605714Y-110359580D01*
X155605714Y-110359580D02*
X155558095Y-110264342D01*
X155558095Y-110264342D02*
X155510476Y-110073866D01*
X155510476Y-110073866D02*
X155510476Y-109835771D01*
X155510476Y-109835771D02*
X155558095Y-109645295D01*
X155558095Y-109645295D02*
X155605714Y-109550057D01*
X155605714Y-109550057D02*
X155653333Y-109502438D01*
X155653333Y-109502438D02*
X155748571Y-109454819D01*
X182454819Y-94839047D02*
X181978628Y-95172380D01*
X182454819Y-95410475D02*
X181454819Y-95410475D01*
X181454819Y-95410475D02*
X181454819Y-95029523D01*
X181454819Y-95029523D02*
X181502438Y-94934285D01*
X181502438Y-94934285D02*
X181550057Y-94886666D01*
X181550057Y-94886666D02*
X181645295Y-94839047D01*
X181645295Y-94839047D02*
X181788152Y-94839047D01*
X181788152Y-94839047D02*
X181883390Y-94886666D01*
X181883390Y-94886666D02*
X181931009Y-94934285D01*
X181931009Y-94934285D02*
X181978628Y-95029523D01*
X181978628Y-95029523D02*
X181978628Y-95410475D01*
X182454819Y-93886666D02*
X182454819Y-94458094D01*
X182454819Y-94172380D02*
X181454819Y-94172380D01*
X181454819Y-94172380D02*
X181597676Y-94267618D01*
X181597676Y-94267618D02*
X181692914Y-94362856D01*
X181692914Y-94362856D02*
X181740533Y-94458094D01*
X181454819Y-93267618D02*
X181454819Y-93172380D01*
X181454819Y-93172380D02*
X181502438Y-93077142D01*
X181502438Y-93077142D02*
X181550057Y-93029523D01*
X181550057Y-93029523D02*
X181645295Y-92981904D01*
X181645295Y-92981904D02*
X181835771Y-92934285D01*
X181835771Y-92934285D02*
X182073866Y-92934285D01*
X182073866Y-92934285D02*
X182264342Y-92981904D01*
X182264342Y-92981904D02*
X182359580Y-93029523D01*
X182359580Y-93029523D02*
X182407200Y-93077142D01*
X182407200Y-93077142D02*
X182454819Y-93172380D01*
X182454819Y-93172380D02*
X182454819Y-93267618D01*
X182454819Y-93267618D02*
X182407200Y-93362856D01*
X182407200Y-93362856D02*
X182359580Y-93410475D01*
X182359580Y-93410475D02*
X182264342Y-93458094D01*
X182264342Y-93458094D02*
X182073866Y-93505713D01*
X182073866Y-93505713D02*
X181835771Y-93505713D01*
X181835771Y-93505713D02*
X181645295Y-93458094D01*
X181645295Y-93458094D02*
X181550057Y-93410475D01*
X181550057Y-93410475D02*
X181502438Y-93362856D01*
X181502438Y-93362856D02*
X181454819Y-93267618D01*
X181788152Y-92077142D02*
X182454819Y-92077142D01*
X181407200Y-92315237D02*
X182121485Y-92553332D01*
X182121485Y-92553332D02*
X182121485Y-91934285D01*
X170133333Y-94359580D02*
X170085714Y-94407200D01*
X170085714Y-94407200D02*
X169942857Y-94454819D01*
X169942857Y-94454819D02*
X169847619Y-94454819D01*
X169847619Y-94454819D02*
X169704762Y-94407200D01*
X169704762Y-94407200D02*
X169609524Y-94311961D01*
X169609524Y-94311961D02*
X169561905Y-94216723D01*
X169561905Y-94216723D02*
X169514286Y-94026247D01*
X169514286Y-94026247D02*
X169514286Y-93883390D01*
X169514286Y-93883390D02*
X169561905Y-93692914D01*
X169561905Y-93692914D02*
X169609524Y-93597676D01*
X169609524Y-93597676D02*
X169704762Y-93502438D01*
X169704762Y-93502438D02*
X169847619Y-93454819D01*
X169847619Y-93454819D02*
X169942857Y-93454819D01*
X169942857Y-93454819D02*
X170085714Y-93502438D01*
X170085714Y-93502438D02*
X170133333Y-93550057D01*
X171038095Y-93454819D02*
X170561905Y-93454819D01*
X170561905Y-93454819D02*
X170514286Y-93931009D01*
X170514286Y-93931009D02*
X170561905Y-93883390D01*
X170561905Y-93883390D02*
X170657143Y-93835771D01*
X170657143Y-93835771D02*
X170895238Y-93835771D01*
X170895238Y-93835771D02*
X170990476Y-93883390D01*
X170990476Y-93883390D02*
X171038095Y-93931009D01*
X171038095Y-93931009D02*
X171085714Y-94026247D01*
X171085714Y-94026247D02*
X171085714Y-94264342D01*
X171085714Y-94264342D02*
X171038095Y-94359580D01*
X171038095Y-94359580D02*
X170990476Y-94407200D01*
X170990476Y-94407200D02*
X170895238Y-94454819D01*
X170895238Y-94454819D02*
X170657143Y-94454819D01*
X170657143Y-94454819D02*
X170561905Y-94407200D01*
X170561905Y-94407200D02*
X170514286Y-94359580D01*
X130834819Y-107279523D02*
X131834819Y-106946190D01*
X131834819Y-106946190D02*
X130834819Y-106612857D01*
X131168152Y-105850952D02*
X131834819Y-105850952D01*
X130787200Y-106089047D02*
X131501485Y-106327142D01*
X131501485Y-106327142D02*
X131501485Y-105708095D01*
X154137142Y-103954819D02*
X153803809Y-103478628D01*
X153565714Y-103954819D02*
X153565714Y-102954819D01*
X153565714Y-102954819D02*
X153946666Y-102954819D01*
X153946666Y-102954819D02*
X154041904Y-103002438D01*
X154041904Y-103002438D02*
X154089523Y-103050057D01*
X154089523Y-103050057D02*
X154137142Y-103145295D01*
X154137142Y-103145295D02*
X154137142Y-103288152D01*
X154137142Y-103288152D02*
X154089523Y-103383390D01*
X154089523Y-103383390D02*
X154041904Y-103431009D01*
X154041904Y-103431009D02*
X153946666Y-103478628D01*
X153946666Y-103478628D02*
X153565714Y-103478628D01*
X154518095Y-103050057D02*
X154565714Y-103002438D01*
X154565714Y-103002438D02*
X154660952Y-102954819D01*
X154660952Y-102954819D02*
X154899047Y-102954819D01*
X154899047Y-102954819D02*
X154994285Y-103002438D01*
X154994285Y-103002438D02*
X155041904Y-103050057D01*
X155041904Y-103050057D02*
X155089523Y-103145295D01*
X155089523Y-103145295D02*
X155089523Y-103240533D01*
X155089523Y-103240533D02*
X155041904Y-103383390D01*
X155041904Y-103383390D02*
X154470476Y-103954819D01*
X154470476Y-103954819D02*
X155089523Y-103954819D01*
X155422857Y-102954819D02*
X156041904Y-102954819D01*
X156041904Y-102954819D02*
X155708571Y-103335771D01*
X155708571Y-103335771D02*
X155851428Y-103335771D01*
X155851428Y-103335771D02*
X155946666Y-103383390D01*
X155946666Y-103383390D02*
X155994285Y-103431009D01*
X155994285Y-103431009D02*
X156041904Y-103526247D01*
X156041904Y-103526247D02*
X156041904Y-103764342D01*
X156041904Y-103764342D02*
X155994285Y-103859580D01*
X155994285Y-103859580D02*
X155946666Y-103907200D01*
X155946666Y-103907200D02*
X155851428Y-103954819D01*
X155851428Y-103954819D02*
X155565714Y-103954819D01*
X155565714Y-103954819D02*
X155470476Y-103907200D01*
X155470476Y-103907200D02*
X155422857Y-103859580D01*
X145750057Y-105835238D02*
X145702438Y-105930476D01*
X145702438Y-105930476D02*
X145607200Y-106025714D01*
X145607200Y-106025714D02*
X145464342Y-106168571D01*
X145464342Y-106168571D02*
X145416723Y-106263809D01*
X145416723Y-106263809D02*
X145416723Y-106359047D01*
X145654819Y-106311428D02*
X145607200Y-106406666D01*
X145607200Y-106406666D02*
X145511961Y-106501904D01*
X145511961Y-106501904D02*
X145321485Y-106549523D01*
X145321485Y-106549523D02*
X144988152Y-106549523D01*
X144988152Y-106549523D02*
X144797676Y-106501904D01*
X144797676Y-106501904D02*
X144702438Y-106406666D01*
X144702438Y-106406666D02*
X144654819Y-106311428D01*
X144654819Y-106311428D02*
X144654819Y-106120952D01*
X144654819Y-106120952D02*
X144702438Y-106025714D01*
X144702438Y-106025714D02*
X144797676Y-105930476D01*
X144797676Y-105930476D02*
X144988152Y-105882857D01*
X144988152Y-105882857D02*
X145321485Y-105882857D01*
X145321485Y-105882857D02*
X145511961Y-105930476D01*
X145511961Y-105930476D02*
X145607200Y-106025714D01*
X145607200Y-106025714D02*
X145654819Y-106120952D01*
X145654819Y-106120952D02*
X145654819Y-106311428D01*
X145083390Y-105311428D02*
X145035771Y-105406666D01*
X145035771Y-105406666D02*
X144988152Y-105454285D01*
X144988152Y-105454285D02*
X144892914Y-105501904D01*
X144892914Y-105501904D02*
X144845295Y-105501904D01*
X144845295Y-105501904D02*
X144750057Y-105454285D01*
X144750057Y-105454285D02*
X144702438Y-105406666D01*
X144702438Y-105406666D02*
X144654819Y-105311428D01*
X144654819Y-105311428D02*
X144654819Y-105120952D01*
X144654819Y-105120952D02*
X144702438Y-105025714D01*
X144702438Y-105025714D02*
X144750057Y-104978095D01*
X144750057Y-104978095D02*
X144845295Y-104930476D01*
X144845295Y-104930476D02*
X144892914Y-104930476D01*
X144892914Y-104930476D02*
X144988152Y-104978095D01*
X144988152Y-104978095D02*
X145035771Y-105025714D01*
X145035771Y-105025714D02*
X145083390Y-105120952D01*
X145083390Y-105120952D02*
X145083390Y-105311428D01*
X145083390Y-105311428D02*
X145131009Y-105406666D01*
X145131009Y-105406666D02*
X145178628Y-105454285D01*
X145178628Y-105454285D02*
X145273866Y-105501904D01*
X145273866Y-105501904D02*
X145464342Y-105501904D01*
X145464342Y-105501904D02*
X145559580Y-105454285D01*
X145559580Y-105454285D02*
X145607200Y-105406666D01*
X145607200Y-105406666D02*
X145654819Y-105311428D01*
X145654819Y-105311428D02*
X145654819Y-105120952D01*
X145654819Y-105120952D02*
X145607200Y-105025714D01*
X145607200Y-105025714D02*
X145559580Y-104978095D01*
X145559580Y-104978095D02*
X145464342Y-104930476D01*
X145464342Y-104930476D02*
X145273866Y-104930476D01*
X145273866Y-104930476D02*
X145178628Y-104978095D01*
X145178628Y-104978095D02*
X145131009Y-105025714D01*
X145131009Y-105025714D02*
X145083390Y-105120952D01*
X224666666Y-112394819D02*
X224666666Y-113109104D01*
X224666666Y-113109104D02*
X224619047Y-113251961D01*
X224619047Y-113251961D02*
X224523809Y-113347200D01*
X224523809Y-113347200D02*
X224380952Y-113394819D01*
X224380952Y-113394819D02*
X224285714Y-113394819D01*
X225047619Y-112394819D02*
X225666666Y-112394819D01*
X225666666Y-112394819D02*
X225333333Y-112775771D01*
X225333333Y-112775771D02*
X225476190Y-112775771D01*
X225476190Y-112775771D02*
X225571428Y-112823390D01*
X225571428Y-112823390D02*
X225619047Y-112871009D01*
X225619047Y-112871009D02*
X225666666Y-112966247D01*
X225666666Y-112966247D02*
X225666666Y-113204342D01*
X225666666Y-113204342D02*
X225619047Y-113299580D01*
X225619047Y-113299580D02*
X225571428Y-113347200D01*
X225571428Y-113347200D02*
X225476190Y-113394819D01*
X225476190Y-113394819D02*
X225190476Y-113394819D01*
X225190476Y-113394819D02*
X225095238Y-113347200D01*
X225095238Y-113347200D02*
X225047619Y-113299580D01*
X138544819Y-85506666D02*
X138068628Y-85839999D01*
X138544819Y-86078094D02*
X137544819Y-86078094D01*
X137544819Y-86078094D02*
X137544819Y-85697142D01*
X137544819Y-85697142D02*
X137592438Y-85601904D01*
X137592438Y-85601904D02*
X137640057Y-85554285D01*
X137640057Y-85554285D02*
X137735295Y-85506666D01*
X137735295Y-85506666D02*
X137878152Y-85506666D01*
X137878152Y-85506666D02*
X137973390Y-85554285D01*
X137973390Y-85554285D02*
X138021009Y-85601904D01*
X138021009Y-85601904D02*
X138068628Y-85697142D01*
X138068628Y-85697142D02*
X138068628Y-86078094D01*
X138544819Y-85030475D02*
X138544819Y-84839999D01*
X138544819Y-84839999D02*
X138497200Y-84744761D01*
X138497200Y-84744761D02*
X138449580Y-84697142D01*
X138449580Y-84697142D02*
X138306723Y-84601904D01*
X138306723Y-84601904D02*
X138116247Y-84554285D01*
X138116247Y-84554285D02*
X137735295Y-84554285D01*
X137735295Y-84554285D02*
X137640057Y-84601904D01*
X137640057Y-84601904D02*
X137592438Y-84649523D01*
X137592438Y-84649523D02*
X137544819Y-84744761D01*
X137544819Y-84744761D02*
X137544819Y-84935237D01*
X137544819Y-84935237D02*
X137592438Y-85030475D01*
X137592438Y-85030475D02*
X137640057Y-85078094D01*
X137640057Y-85078094D02*
X137735295Y-85125713D01*
X137735295Y-85125713D02*
X137973390Y-85125713D01*
X137973390Y-85125713D02*
X138068628Y-85078094D01*
X138068628Y-85078094D02*
X138116247Y-85030475D01*
X138116247Y-85030475D02*
X138163866Y-84935237D01*
X138163866Y-84935237D02*
X138163866Y-84744761D01*
X138163866Y-84744761D02*
X138116247Y-84649523D01*
X138116247Y-84649523D02*
X138068628Y-84601904D01*
X138068628Y-84601904D02*
X137973390Y-84554285D01*
X224666666Y-97394819D02*
X224666666Y-98109104D01*
X224666666Y-98109104D02*
X224619047Y-98251961D01*
X224619047Y-98251961D02*
X224523809Y-98347200D01*
X224523809Y-98347200D02*
X224380952Y-98394819D01*
X224380952Y-98394819D02*
X224285714Y-98394819D01*
X225571428Y-97728152D02*
X225571428Y-98394819D01*
X225333333Y-97347200D02*
X225095238Y-98061485D01*
X225095238Y-98061485D02*
X225714285Y-98061485D01*
X132666666Y-126014819D02*
X132666666Y-126729104D01*
X132666666Y-126729104D02*
X132619047Y-126871961D01*
X132619047Y-126871961D02*
X132523809Y-126967200D01*
X132523809Y-126967200D02*
X132380952Y-127014819D01*
X132380952Y-127014819D02*
X132285714Y-127014819D01*
X133047619Y-126014819D02*
X133714285Y-126014819D01*
X133714285Y-126014819D02*
X133285714Y-127014819D01*
X163950057Y-95707619D02*
X163902438Y-95802857D01*
X163902438Y-95802857D02*
X163807200Y-95898095D01*
X163807200Y-95898095D02*
X163664342Y-96040952D01*
X163664342Y-96040952D02*
X163616723Y-96136190D01*
X163616723Y-96136190D02*
X163616723Y-96231428D01*
X163854819Y-96183809D02*
X163807200Y-96279047D01*
X163807200Y-96279047D02*
X163711961Y-96374285D01*
X163711961Y-96374285D02*
X163521485Y-96421904D01*
X163521485Y-96421904D02*
X163188152Y-96421904D01*
X163188152Y-96421904D02*
X162997676Y-96374285D01*
X162997676Y-96374285D02*
X162902438Y-96279047D01*
X162902438Y-96279047D02*
X162854819Y-96183809D01*
X162854819Y-96183809D02*
X162854819Y-95993333D01*
X162854819Y-95993333D02*
X162902438Y-95898095D01*
X162902438Y-95898095D02*
X162997676Y-95802857D01*
X162997676Y-95802857D02*
X163188152Y-95755238D01*
X163188152Y-95755238D02*
X163521485Y-95755238D01*
X163521485Y-95755238D02*
X163711961Y-95802857D01*
X163711961Y-95802857D02*
X163807200Y-95898095D01*
X163807200Y-95898095D02*
X163854819Y-95993333D01*
X163854819Y-95993333D02*
X163854819Y-96183809D01*
X163854819Y-94802857D02*
X163854819Y-95374285D01*
X163854819Y-95088571D02*
X162854819Y-95088571D01*
X162854819Y-95088571D02*
X162997676Y-95183809D01*
X162997676Y-95183809D02*
X163092914Y-95279047D01*
X163092914Y-95279047D02*
X163140533Y-95374285D01*
X163854819Y-93850476D02*
X163854819Y-94421904D01*
X163854819Y-94136190D02*
X162854819Y-94136190D01*
X162854819Y-94136190D02*
X162997676Y-94231428D01*
X162997676Y-94231428D02*
X163092914Y-94326666D01*
X163092914Y-94326666D02*
X163140533Y-94421904D01*
X162950057Y-93469523D02*
X162902438Y-93421904D01*
X162902438Y-93421904D02*
X162854819Y-93326666D01*
X162854819Y-93326666D02*
X162854819Y-93088571D01*
X162854819Y-93088571D02*
X162902438Y-92993333D01*
X162902438Y-92993333D02*
X162950057Y-92945714D01*
X162950057Y-92945714D02*
X163045295Y-92898095D01*
X163045295Y-92898095D02*
X163140533Y-92898095D01*
X163140533Y-92898095D02*
X163283390Y-92945714D01*
X163283390Y-92945714D02*
X163854819Y-93517142D01*
X163854819Y-93517142D02*
X163854819Y-92898095D01*
X213954819Y-100089047D02*
X213478628Y-100422380D01*
X213954819Y-100660475D02*
X212954819Y-100660475D01*
X212954819Y-100660475D02*
X212954819Y-100279523D01*
X212954819Y-100279523D02*
X213002438Y-100184285D01*
X213002438Y-100184285D02*
X213050057Y-100136666D01*
X213050057Y-100136666D02*
X213145295Y-100089047D01*
X213145295Y-100089047D02*
X213288152Y-100089047D01*
X213288152Y-100089047D02*
X213383390Y-100136666D01*
X213383390Y-100136666D02*
X213431009Y-100184285D01*
X213431009Y-100184285D02*
X213478628Y-100279523D01*
X213478628Y-100279523D02*
X213478628Y-100660475D01*
X213954819Y-99136666D02*
X213954819Y-99708094D01*
X213954819Y-99422380D02*
X212954819Y-99422380D01*
X212954819Y-99422380D02*
X213097676Y-99517618D01*
X213097676Y-99517618D02*
X213192914Y-99612856D01*
X213192914Y-99612856D02*
X213240533Y-99708094D01*
X212954819Y-98517618D02*
X212954819Y-98422380D01*
X212954819Y-98422380D02*
X213002438Y-98327142D01*
X213002438Y-98327142D02*
X213050057Y-98279523D01*
X213050057Y-98279523D02*
X213145295Y-98231904D01*
X213145295Y-98231904D02*
X213335771Y-98184285D01*
X213335771Y-98184285D02*
X213573866Y-98184285D01*
X213573866Y-98184285D02*
X213764342Y-98231904D01*
X213764342Y-98231904D02*
X213859580Y-98279523D01*
X213859580Y-98279523D02*
X213907200Y-98327142D01*
X213907200Y-98327142D02*
X213954819Y-98422380D01*
X213954819Y-98422380D02*
X213954819Y-98517618D01*
X213954819Y-98517618D02*
X213907200Y-98612856D01*
X213907200Y-98612856D02*
X213859580Y-98660475D01*
X213859580Y-98660475D02*
X213764342Y-98708094D01*
X213764342Y-98708094D02*
X213573866Y-98755713D01*
X213573866Y-98755713D02*
X213335771Y-98755713D01*
X213335771Y-98755713D02*
X213145295Y-98708094D01*
X213145295Y-98708094D02*
X213050057Y-98660475D01*
X213050057Y-98660475D02*
X213002438Y-98612856D01*
X213002438Y-98612856D02*
X212954819Y-98517618D01*
X212954819Y-97279523D02*
X212954819Y-97755713D01*
X212954819Y-97755713D02*
X213431009Y-97803332D01*
X213431009Y-97803332D02*
X213383390Y-97755713D01*
X213383390Y-97755713D02*
X213335771Y-97660475D01*
X213335771Y-97660475D02*
X213335771Y-97422380D01*
X213335771Y-97422380D02*
X213383390Y-97327142D01*
X213383390Y-97327142D02*
X213431009Y-97279523D01*
X213431009Y-97279523D02*
X213526247Y-97231904D01*
X213526247Y-97231904D02*
X213764342Y-97231904D01*
X213764342Y-97231904D02*
X213859580Y-97279523D01*
X213859580Y-97279523D02*
X213907200Y-97327142D01*
X213907200Y-97327142D02*
X213954819Y-97422380D01*
X213954819Y-97422380D02*
X213954819Y-97660475D01*
X213954819Y-97660475D02*
X213907200Y-97755713D01*
X213907200Y-97755713D02*
X213859580Y-97803332D01*
X224666666Y-82394819D02*
X224666666Y-83109104D01*
X224666666Y-83109104D02*
X224619047Y-83251961D01*
X224619047Y-83251961D02*
X224523809Y-83347200D01*
X224523809Y-83347200D02*
X224380952Y-83394819D01*
X224380952Y-83394819D02*
X224285714Y-83394819D01*
X225095238Y-82490057D02*
X225142857Y-82442438D01*
X225142857Y-82442438D02*
X225238095Y-82394819D01*
X225238095Y-82394819D02*
X225476190Y-82394819D01*
X225476190Y-82394819D02*
X225571428Y-82442438D01*
X225571428Y-82442438D02*
X225619047Y-82490057D01*
X225619047Y-82490057D02*
X225666666Y-82585295D01*
X225666666Y-82585295D02*
X225666666Y-82680533D01*
X225666666Y-82680533D02*
X225619047Y-82823390D01*
X225619047Y-82823390D02*
X225047619Y-83394819D01*
X225047619Y-83394819D02*
X225666666Y-83394819D01*
X151977142Y-95154819D02*
X151643809Y-94678628D01*
X151405714Y-95154819D02*
X151405714Y-94154819D01*
X151405714Y-94154819D02*
X151786666Y-94154819D01*
X151786666Y-94154819D02*
X151881904Y-94202438D01*
X151881904Y-94202438D02*
X151929523Y-94250057D01*
X151929523Y-94250057D02*
X151977142Y-94345295D01*
X151977142Y-94345295D02*
X151977142Y-94488152D01*
X151977142Y-94488152D02*
X151929523Y-94583390D01*
X151929523Y-94583390D02*
X151881904Y-94631009D01*
X151881904Y-94631009D02*
X151786666Y-94678628D01*
X151786666Y-94678628D02*
X151405714Y-94678628D01*
X152929523Y-95154819D02*
X152358095Y-95154819D01*
X152643809Y-95154819D02*
X152643809Y-94154819D01*
X152643809Y-94154819D02*
X152548571Y-94297676D01*
X152548571Y-94297676D02*
X152453333Y-94392914D01*
X152453333Y-94392914D02*
X152358095Y-94440533D01*
X153310476Y-94250057D02*
X153358095Y-94202438D01*
X153358095Y-94202438D02*
X153453333Y-94154819D01*
X153453333Y-94154819D02*
X153691428Y-94154819D01*
X153691428Y-94154819D02*
X153786666Y-94202438D01*
X153786666Y-94202438D02*
X153834285Y-94250057D01*
X153834285Y-94250057D02*
X153881904Y-94345295D01*
X153881904Y-94345295D02*
X153881904Y-94440533D01*
X153881904Y-94440533D02*
X153834285Y-94583390D01*
X153834285Y-94583390D02*
X153262857Y-95154819D01*
X153262857Y-95154819D02*
X153881904Y-95154819D01*
X170164761Y-98350057D02*
X170069523Y-98302438D01*
X170069523Y-98302438D02*
X169974285Y-98207200D01*
X169974285Y-98207200D02*
X169831428Y-98064342D01*
X169831428Y-98064342D02*
X169736190Y-98016723D01*
X169736190Y-98016723D02*
X169640952Y-98016723D01*
X169688571Y-98254819D02*
X169593333Y-98207200D01*
X169593333Y-98207200D02*
X169498095Y-98111961D01*
X169498095Y-98111961D02*
X169450476Y-97921485D01*
X169450476Y-97921485D02*
X169450476Y-97588152D01*
X169450476Y-97588152D02*
X169498095Y-97397676D01*
X169498095Y-97397676D02*
X169593333Y-97302438D01*
X169593333Y-97302438D02*
X169688571Y-97254819D01*
X169688571Y-97254819D02*
X169879047Y-97254819D01*
X169879047Y-97254819D02*
X169974285Y-97302438D01*
X169974285Y-97302438D02*
X170069523Y-97397676D01*
X170069523Y-97397676D02*
X170117142Y-97588152D01*
X170117142Y-97588152D02*
X170117142Y-97921485D01*
X170117142Y-97921485D02*
X170069523Y-98111961D01*
X170069523Y-98111961D02*
X169974285Y-98207200D01*
X169974285Y-98207200D02*
X169879047Y-98254819D01*
X169879047Y-98254819D02*
X169688571Y-98254819D01*
X170593333Y-98254819D02*
X170783809Y-98254819D01*
X170783809Y-98254819D02*
X170879047Y-98207200D01*
X170879047Y-98207200D02*
X170926666Y-98159580D01*
X170926666Y-98159580D02*
X171021904Y-98016723D01*
X171021904Y-98016723D02*
X171069523Y-97826247D01*
X171069523Y-97826247D02*
X171069523Y-97445295D01*
X171069523Y-97445295D02*
X171021904Y-97350057D01*
X171021904Y-97350057D02*
X170974285Y-97302438D01*
X170974285Y-97302438D02*
X170879047Y-97254819D01*
X170879047Y-97254819D02*
X170688571Y-97254819D01*
X170688571Y-97254819D02*
X170593333Y-97302438D01*
X170593333Y-97302438D02*
X170545714Y-97350057D01*
X170545714Y-97350057D02*
X170498095Y-97445295D01*
X170498095Y-97445295D02*
X170498095Y-97683390D01*
X170498095Y-97683390D02*
X170545714Y-97778628D01*
X170545714Y-97778628D02*
X170593333Y-97826247D01*
X170593333Y-97826247D02*
X170688571Y-97873866D01*
X170688571Y-97873866D02*
X170879047Y-97873866D01*
X170879047Y-97873866D02*
X170974285Y-97826247D01*
X170974285Y-97826247D02*
X171021904Y-97778628D01*
X171021904Y-97778628D02*
X171069523Y-97683390D01*
X141754819Y-96622857D02*
X141278628Y-96956190D01*
X141754819Y-97194285D02*
X140754819Y-97194285D01*
X140754819Y-97194285D02*
X140754819Y-96813333D01*
X140754819Y-96813333D02*
X140802438Y-96718095D01*
X140802438Y-96718095D02*
X140850057Y-96670476D01*
X140850057Y-96670476D02*
X140945295Y-96622857D01*
X140945295Y-96622857D02*
X141088152Y-96622857D01*
X141088152Y-96622857D02*
X141183390Y-96670476D01*
X141183390Y-96670476D02*
X141231009Y-96718095D01*
X141231009Y-96718095D02*
X141278628Y-96813333D01*
X141278628Y-96813333D02*
X141278628Y-97194285D01*
X141754819Y-95670476D02*
X141754819Y-96241904D01*
X141754819Y-95956190D02*
X140754819Y-95956190D01*
X140754819Y-95956190D02*
X140897676Y-96051428D01*
X140897676Y-96051428D02*
X140992914Y-96146666D01*
X140992914Y-96146666D02*
X141040533Y-96241904D01*
X141183390Y-95099047D02*
X141135771Y-95194285D01*
X141135771Y-95194285D02*
X141088152Y-95241904D01*
X141088152Y-95241904D02*
X140992914Y-95289523D01*
X140992914Y-95289523D02*
X140945295Y-95289523D01*
X140945295Y-95289523D02*
X140850057Y-95241904D01*
X140850057Y-95241904D02*
X140802438Y-95194285D01*
X140802438Y-95194285D02*
X140754819Y-95099047D01*
X140754819Y-95099047D02*
X140754819Y-94908571D01*
X140754819Y-94908571D02*
X140802438Y-94813333D01*
X140802438Y-94813333D02*
X140850057Y-94765714D01*
X140850057Y-94765714D02*
X140945295Y-94718095D01*
X140945295Y-94718095D02*
X140992914Y-94718095D01*
X140992914Y-94718095D02*
X141088152Y-94765714D01*
X141088152Y-94765714D02*
X141135771Y-94813333D01*
X141135771Y-94813333D02*
X141183390Y-94908571D01*
X141183390Y-94908571D02*
X141183390Y-95099047D01*
X141183390Y-95099047D02*
X141231009Y-95194285D01*
X141231009Y-95194285D02*
X141278628Y-95241904D01*
X141278628Y-95241904D02*
X141373866Y-95289523D01*
X141373866Y-95289523D02*
X141564342Y-95289523D01*
X141564342Y-95289523D02*
X141659580Y-95241904D01*
X141659580Y-95241904D02*
X141707200Y-95194285D01*
X141707200Y-95194285D02*
X141754819Y-95099047D01*
X141754819Y-95099047D02*
X141754819Y-94908571D01*
X141754819Y-94908571D02*
X141707200Y-94813333D01*
X141707200Y-94813333D02*
X141659580Y-94765714D01*
X141659580Y-94765714D02*
X141564342Y-94718095D01*
X141564342Y-94718095D02*
X141373866Y-94718095D01*
X141373866Y-94718095D02*
X141278628Y-94765714D01*
X141278628Y-94765714D02*
X141231009Y-94813333D01*
X141231009Y-94813333D02*
X141183390Y-94908571D01*
D10*
%TO.C,RV1*%
X169200000Y-83060000D02*
X169200000Y-77460000D01*
X169300000Y-77260000D02*
X170500000Y-77260000D01*
X169300000Y-77460000D02*
X169300000Y-77260000D01*
X170400000Y-84260000D02*
X174400000Y-84260000D01*
X170500000Y-77260000D02*
X170500000Y-77460000D01*
X174300000Y-77260000D02*
X174300000Y-77460000D01*
X175500000Y-77260000D02*
X174310000Y-77260000D01*
X175500000Y-77460000D02*
X175500000Y-77260000D01*
X175600000Y-77460000D02*
X169200000Y-77460000D01*
X175600000Y-83060000D02*
X175600000Y-77460000D01*
X170400000Y-84260000D02*
G75*
G02*
X169200000Y-83060000I0J1200000D01*
G01*
X175600000Y-83060000D02*
G75*
G02*
X174400000Y-84260000I-1200000J0D01*
G01*
X175400000Y-81060000D02*
G75*
G02*
X169400000Y-81060000I-3000000J0D01*
G01*
X169400000Y-81060000D02*
G75*
G02*
X175400000Y-81060000I3000000J0D01*
G01*
%TO.C,J9*%
X222000000Y-91500000D02*
X222000000Y-93235000D01*
X222000000Y-91500000D02*
X223289000Y-91500000D01*
X222000000Y-93765000D02*
X222000000Y-95500000D01*
X222000000Y-95500000D02*
X223289000Y-95500000D01*
X224711000Y-91500000D02*
X228000000Y-91500000D01*
X224711000Y-95500000D02*
X228000000Y-95500000D01*
X225273000Y-91983000D02*
X222483000Y-94773000D01*
X225517000Y-92227000D02*
X222727000Y-95017000D01*
X228000000Y-91500000D02*
X228000000Y-95500000D01*
X226000000Y-93500000D02*
G75*
G02*
X222000000Y-93500000I-2000000J0D01*
G01*
X222000000Y-93500000D02*
G75*
G02*
X226000000Y-93500000I2000000J0D01*
G01*
%TO.C,C8*%
X130200000Y-110950000D02*
X130200000Y-115950000D01*
X130200000Y-115950000D02*
X132700000Y-115950000D01*
X132700000Y-110950000D02*
X130200000Y-110950000D01*
X132700000Y-115950000D02*
X132700000Y-110950000D01*
%TO.C,C3*%
X157137500Y-81538767D02*
X157137500Y-82288767D01*
X157512500Y-81913767D02*
X156762500Y-81913767D01*
X159250000Y-84750000D02*
G75*
G02*
X151750000Y-84750000I-3750000J0D01*
G01*
X151750000Y-84750000D02*
G75*
G02*
X159250000Y-84750000I3750000J0D01*
G01*
%TO.C,J6*%
X222000000Y-121500000D02*
X222000000Y-123235000D01*
X222000000Y-121500000D02*
X223289000Y-121500000D01*
X222000000Y-123765000D02*
X222000000Y-125500000D01*
X222000000Y-125500000D02*
X223289000Y-125500000D01*
X224711000Y-121500000D02*
X228000000Y-121500000D01*
X224711000Y-125500000D02*
X228000000Y-125500000D01*
X225273000Y-121983000D02*
X222483000Y-124773000D01*
X225517000Y-122227000D02*
X222727000Y-125017000D01*
X228000000Y-121500000D02*
X228000000Y-125500000D01*
X226000000Y-123500000D02*
G75*
G02*
X222000000Y-123500000I-2000000J0D01*
G01*
X222000000Y-123500000D02*
G75*
G02*
X226000000Y-123500000I2000000J0D01*
G01*
%TO.C,Q3*%
X144900000Y-84250000D02*
X144900000Y-88000000D01*
X144897615Y-84247182D02*
G75*
G02*
X148980000Y-86140000I1602385J-1892818D01*
G01*
X148980000Y-86140000D02*
G75*
G02*
X144907453Y-88041103I-2480000J0D01*
G01*
%TO.C,R21*%
X171050000Y-103930000D02*
X171050000Y-110230000D01*
X171050000Y-110230000D02*
X173550000Y-110230000D01*
X172300000Y-102000000D02*
X172300000Y-103930000D01*
X172300000Y-112160000D02*
X172300000Y-110230000D01*
X173550000Y-103930000D02*
X171050000Y-103930000D01*
X173550000Y-110230000D02*
X173550000Y-103930000D01*
%TO.C,J8*%
X130000000Y-80500000D02*
X130000000Y-76500000D01*
X132483000Y-79773000D02*
X135273000Y-76983000D01*
X132727000Y-80017000D02*
X135517000Y-77227000D01*
X133289000Y-76500000D02*
X130000000Y-76500000D01*
X133289000Y-80500000D02*
X130000000Y-80500000D01*
X136000000Y-76500000D02*
X134711000Y-76500000D01*
X136000000Y-78235000D02*
X136000000Y-76500000D01*
X136000000Y-80500000D02*
X134711000Y-80500000D01*
X136000000Y-80500000D02*
X136000000Y-78765000D01*
X136000000Y-78500000D02*
G75*
G02*
X132000000Y-78500000I-2000000J0D01*
G01*
X132000000Y-78500000D02*
G75*
G02*
X136000000Y-78500000I2000000J0D01*
G01*
%TO.C,Q7*%
X138300000Y-103850000D02*
X138300000Y-107600000D01*
X138297615Y-103847182D02*
G75*
G02*
X142380000Y-105740000I1602385J-1892818D01*
G01*
X142380000Y-105740000D02*
G75*
G02*
X138307453Y-107641103I-2480000J0D01*
G01*
%TO.C,R101*%
X155500000Y-78500000D02*
X157430000Y-78500000D01*
X157430000Y-77250000D02*
X157430000Y-79750000D01*
X157430000Y-79750000D02*
X163730000Y-79750000D01*
X163730000Y-77250000D02*
X157430000Y-77250000D01*
X163730000Y-79750000D02*
X163730000Y-77250000D01*
X165660000Y-78500000D02*
X163730000Y-78500000D01*
%TO.C,C102*%
X137493605Y-101817500D02*
X137493605Y-101317500D01*
X137743605Y-101567500D02*
X137243605Y-101567500D01*
X138110000Y-100480000D02*
G75*
G02*
X133110000Y-100480000I-2500000J0D01*
G01*
X133110000Y-100480000D02*
G75*
G02*
X138110000Y-100480000I2500000J0D01*
G01*
%TO.C,R116*%
X166500000Y-90500000D02*
X168430000Y-90500000D01*
X168430000Y-89250000D02*
X168430000Y-91750000D01*
X168430000Y-91750000D02*
X174730000Y-91750000D01*
X174730000Y-89250000D02*
X168430000Y-89250000D01*
X174730000Y-91750000D02*
X174730000Y-89250000D01*
X176660000Y-90500000D02*
X174730000Y-90500000D01*
%TO.C,J5*%
X222000000Y-76500000D02*
X222000000Y-78235000D01*
X222000000Y-76500000D02*
X223289000Y-76500000D01*
X222000000Y-78765000D02*
X222000000Y-80500000D01*
X222000000Y-80500000D02*
X223289000Y-80500000D01*
X224711000Y-76500000D02*
X228000000Y-76500000D01*
X224711000Y-80500000D02*
X228000000Y-80500000D01*
X225273000Y-76983000D02*
X222483000Y-79773000D01*
X225517000Y-77227000D02*
X222727000Y-80017000D01*
X228000000Y-76500000D02*
X228000000Y-80500000D01*
X226000000Y-78500000D02*
G75*
G02*
X222000000Y-78500000I-2000000J0D01*
G01*
X222000000Y-78500000D02*
G75*
G02*
X226000000Y-78500000I2000000J0D01*
G01*
%TO.C,R22*%
X134000000Y-107680000D02*
X134000000Y-113980000D01*
X134000000Y-113980000D02*
X136500000Y-113980000D01*
X135250000Y-105750000D02*
X135250000Y-107680000D01*
X135250000Y-115910000D02*
X135250000Y-113980000D01*
X136500000Y-107680000D02*
X134000000Y-107680000D01*
X136500000Y-113980000D02*
X136500000Y-107680000D01*
%TO.C,R14*%
X140900000Y-80900000D02*
X142830000Y-80900000D01*
X142830000Y-79650000D02*
X142830000Y-82150000D01*
X142830000Y-82150000D02*
X149130000Y-82150000D01*
X149130000Y-79650000D02*
X142830000Y-79650000D01*
X149130000Y-82150000D02*
X149130000Y-79650000D01*
X151060000Y-80900000D02*
X149130000Y-80900000D01*
%TO.C,R19*%
X149700000Y-106700000D02*
X151630000Y-106700000D01*
X151630000Y-105450000D02*
X151630000Y-107950000D01*
X151630000Y-107950000D02*
X157930000Y-107950000D01*
X157930000Y-105450000D02*
X151630000Y-105450000D01*
X157930000Y-107950000D02*
X157930000Y-105450000D01*
X159860000Y-106700000D02*
X157930000Y-106700000D01*
%TO.C,R115*%
X168240000Y-87400000D02*
X170170000Y-87400000D01*
X170170000Y-86150000D02*
X170170000Y-88650000D01*
X170170000Y-88650000D02*
X176470000Y-88650000D01*
X176470000Y-86150000D02*
X170170000Y-86150000D01*
X176470000Y-88650000D02*
X176470000Y-86150000D01*
X178400000Y-87400000D02*
X176470000Y-87400000D01*
%TO.C,J1*%
X130000000Y-95500000D02*
X130000000Y-91500000D01*
X132483000Y-94773000D02*
X135273000Y-91983000D01*
X132727000Y-95017000D02*
X135517000Y-92227000D01*
X133289000Y-91500000D02*
X130000000Y-91500000D01*
X133289000Y-95500000D02*
X130000000Y-95500000D01*
X136000000Y-91500000D02*
X134711000Y-91500000D01*
X136000000Y-93235000D02*
X136000000Y-91500000D01*
X136000000Y-95500000D02*
X134711000Y-95500000D01*
X136000000Y-95500000D02*
X136000000Y-93765000D01*
X136000000Y-93500000D02*
G75*
G02*
X132000000Y-93500000I-2000000J0D01*
G01*
X132000000Y-93500000D02*
G75*
G02*
X136000000Y-93500000I2000000J0D01*
G01*
%TO.C,C7*%
X161450000Y-103100000D02*
X161450000Y-108100000D01*
X161450000Y-108100000D02*
X163950000Y-108100000D01*
X163950000Y-103100000D02*
X161450000Y-103100000D01*
X163950000Y-108100000D02*
X163950000Y-103100000D01*
%TO.C,Q4*%
X142450000Y-115490000D02*
X142450000Y-111740000D01*
X138370000Y-113600000D02*
G75*
G02*
X142442547Y-111698897I2480000J0D01*
G01*
X142452385Y-115492818D02*
G75*
G02*
X138370000Y-113600000I-1602385J1892818D01*
G01*
%TO.C,Q102*%
X160900000Y-84450000D02*
X160900000Y-88200000D01*
X160897615Y-84447182D02*
G75*
G02*
X164980000Y-86340000I1602385J-1892818D01*
G01*
X164980000Y-86340000D02*
G75*
G02*
X160907453Y-88241103I-2480000J0D01*
G01*
%TO.C,R106*%
X195500000Y-89280000D02*
X195500000Y-114280000D01*
X195500000Y-114280000D02*
X204500000Y-114280000D01*
X200000000Y-87810000D02*
X200000000Y-89280000D01*
X200000000Y-115750000D02*
X200000000Y-114280000D01*
X204500000Y-89280000D02*
X195500000Y-89280000D01*
X204500000Y-114280000D02*
X204500000Y-89280000D01*
%TO.C,J10*%
X222000000Y-106500000D02*
X222000000Y-108235000D01*
X222000000Y-106500000D02*
X223289000Y-106500000D01*
X222000000Y-108765000D02*
X222000000Y-110500000D01*
X222000000Y-110500000D02*
X223289000Y-110500000D01*
X224711000Y-106500000D02*
X228000000Y-106500000D01*
X224711000Y-110500000D02*
X228000000Y-110500000D01*
X225273000Y-106983000D02*
X222483000Y-109773000D01*
X225517000Y-107227000D02*
X222727000Y-110017000D01*
X228000000Y-106500000D02*
X228000000Y-110500000D01*
X226000000Y-108500000D02*
G75*
G02*
X222000000Y-108500000I-2000000J0D01*
G01*
X222000000Y-108500000D02*
G75*
G02*
X226000000Y-108500000I2000000J0D01*
G01*
%TO.C,R10*%
X136620000Y-119200000D02*
X138550000Y-119200000D01*
X138550000Y-117950000D02*
X138550000Y-120450000D01*
X138550000Y-120450000D02*
X144850000Y-120450000D01*
X144850000Y-117950000D02*
X138550000Y-117950000D01*
X144850000Y-120450000D02*
X144850000Y-117950000D01*
X146780000Y-119200000D02*
X144850000Y-119200000D01*
%TO.C,R13*%
X147500000Y-91500000D02*
X149430000Y-91500000D01*
X149430000Y-90250000D02*
X149430000Y-92750000D01*
X149430000Y-92750000D02*
X155730000Y-92750000D01*
X155730000Y-90250000D02*
X149430000Y-90250000D01*
X155730000Y-92750000D02*
X155730000Y-90250000D01*
X157660000Y-91500000D02*
X155730000Y-91500000D01*
%TO.C,R11*%
X143550000Y-92830000D02*
X143550000Y-99130000D01*
X143550000Y-99130000D02*
X146050000Y-99130000D01*
X144800000Y-90900000D02*
X144800000Y-92830000D01*
X144800000Y-101060000D02*
X144800000Y-99130000D01*
X146050000Y-92830000D02*
X143550000Y-92830000D01*
X146050000Y-99130000D02*
X146050000Y-92830000D01*
%TO.C,Q2*%
X140000000Y-84250000D02*
X140000000Y-88000000D01*
X139997615Y-84247182D02*
G75*
G02*
X144080000Y-86140000I1602385J-1892818D01*
G01*
X144080000Y-86140000D02*
G75*
G02*
X140007453Y-88041103I-2480000J0D01*
G01*
%TO.C,R103*%
X185750000Y-101170000D02*
X185750000Y-113070000D01*
X185750000Y-113070000D02*
X190250000Y-113070000D01*
X188000000Y-99500000D02*
X188000000Y-101170000D01*
X188000000Y-114740000D02*
X188000000Y-113070000D01*
X190250000Y-101170000D02*
X185750000Y-101170000D01*
X190250000Y-113070000D02*
X190250000Y-101170000D01*
%TO.C,R15*%
X148950000Y-114830000D02*
X148950000Y-121130000D01*
X148950000Y-121130000D02*
X151450000Y-121130000D01*
X150200000Y-112900000D02*
X150200000Y-114830000D01*
X150200000Y-123060000D02*
X150200000Y-121130000D01*
X151450000Y-114830000D02*
X148950000Y-114830000D01*
X151450000Y-121130000D02*
X151450000Y-114830000D01*
%TO.C,C6*%
X163237500Y-113133511D02*
X163237500Y-114383511D01*
X163862500Y-113758511D02*
X162612500Y-113758511D01*
X166750000Y-118500000D02*
G75*
G02*
X154250000Y-118500000I-6250000J0D01*
G01*
X154250000Y-118500000D02*
G75*
G02*
X166750000Y-118500000I6250000J0D01*
G01*
%TO.C,Q5*%
X143600000Y-111650000D02*
X143600000Y-115400000D01*
X143597615Y-111647182D02*
G75*
G02*
X147680000Y-113540000I1602385J-1892818D01*
G01*
X147680000Y-113540000D02*
G75*
G02*
X143607453Y-115441103I-2480000J0D01*
G01*
%TO.C,R20*%
X149740000Y-110000000D02*
X151670000Y-110000000D01*
X151670000Y-108750000D02*
X151670000Y-111250000D01*
X151670000Y-111250000D02*
X157970000Y-111250000D01*
X157970000Y-108750000D02*
X151670000Y-108750000D01*
X157970000Y-111250000D02*
X157970000Y-108750000D01*
X159900000Y-110000000D02*
X157970000Y-110000000D01*
%TO.C,R104*%
X179750000Y-87770000D02*
X179750000Y-99670000D01*
X179750000Y-99670000D02*
X184250000Y-99670000D01*
X182000000Y-86100000D02*
X182000000Y-87770000D01*
X182000000Y-101340000D02*
X182000000Y-99670000D01*
X184250000Y-87770000D02*
X179750000Y-87770000D01*
X184250000Y-99670000D02*
X184250000Y-87770000D01*
%TO.C,C5*%
X167800000Y-92750000D02*
X167800000Y-95250000D01*
X167800000Y-95250000D02*
X172800000Y-95250000D01*
X172800000Y-92750000D02*
X167800000Y-92750000D01*
X172800000Y-95250000D02*
X172800000Y-92750000D01*
%TO.C,V4*%
X130110000Y-104565000D02*
X130745000Y-103930000D01*
X130110000Y-109010000D02*
X130110000Y-104565000D01*
X130745000Y-103930000D02*
X132650000Y-103930000D01*
X132650000Y-103930000D02*
X132650000Y-109010000D01*
X132650000Y-109010000D02*
X130110000Y-109010000D01*
%TO.C,R23*%
X149700000Y-103500000D02*
X151630000Y-103500000D01*
X151630000Y-102250000D02*
X151630000Y-104750000D01*
X151630000Y-104750000D02*
X157930000Y-104750000D01*
X157930000Y-102250000D02*
X151630000Y-102250000D01*
X157930000Y-104750000D02*
X157930000Y-102250000D01*
X159860000Y-103500000D02*
X157930000Y-103500000D01*
%TO.C,Q8*%
X143600000Y-103850000D02*
X143600000Y-107600000D01*
X143597615Y-103847182D02*
G75*
G02*
X147680000Y-105740000I1602385J-1892818D01*
G01*
X147680000Y-105740000D02*
G75*
G02*
X143607453Y-107641103I-2480000J0D01*
G01*
%TO.C,J3*%
X222000000Y-114000000D02*
X222000000Y-115735000D01*
X222000000Y-114000000D02*
X223289000Y-114000000D01*
X222000000Y-116265000D02*
X222000000Y-118000000D01*
X222000000Y-118000000D02*
X223289000Y-118000000D01*
X224711000Y-114000000D02*
X228000000Y-114000000D01*
X224711000Y-118000000D02*
X228000000Y-118000000D01*
X225273000Y-114483000D02*
X222483000Y-117273000D01*
X225517000Y-114727000D02*
X222727000Y-117517000D01*
X228000000Y-114000000D02*
X228000000Y-118000000D01*
X226000000Y-116000000D02*
G75*
G02*
X222000000Y-116000000I-2000000J0D01*
G01*
X222000000Y-116000000D02*
G75*
G02*
X226000000Y-116000000I2000000J0D01*
G01*
%TO.C,R9*%
X136840000Y-82190000D02*
X136840000Y-88490000D01*
X136840000Y-88490000D02*
X139340000Y-88490000D01*
X138090000Y-80260000D02*
X138090000Y-82190000D01*
X138090000Y-90420000D02*
X138090000Y-88490000D01*
X139340000Y-82190000D02*
X136840000Y-82190000D01*
X139340000Y-88490000D02*
X139340000Y-82190000D01*
%TO.C,J4*%
X222000000Y-99000000D02*
X222000000Y-100735000D01*
X222000000Y-99000000D02*
X223289000Y-99000000D01*
X222000000Y-101265000D02*
X222000000Y-103000000D01*
X222000000Y-103000000D02*
X223289000Y-103000000D01*
X224711000Y-99000000D02*
X228000000Y-99000000D01*
X224711000Y-103000000D02*
X228000000Y-103000000D01*
X225273000Y-99483000D02*
X222483000Y-102273000D01*
X225517000Y-99727000D02*
X222727000Y-102517000D01*
X228000000Y-99000000D02*
X228000000Y-103000000D01*
X226000000Y-101000000D02*
G75*
G02*
X222000000Y-101000000I-2000000J0D01*
G01*
X222000000Y-101000000D02*
G75*
G02*
X226000000Y-101000000I2000000J0D01*
G01*
%TO.C,J7*%
X130000000Y-125500000D02*
X130000000Y-121500000D01*
X132483000Y-124773000D02*
X135273000Y-121983000D01*
X132727000Y-125017000D02*
X135517000Y-122227000D01*
X133289000Y-121500000D02*
X130000000Y-121500000D01*
X133289000Y-125500000D02*
X130000000Y-125500000D01*
X136000000Y-121500000D02*
X134711000Y-121500000D01*
X136000000Y-123235000D02*
X136000000Y-121500000D01*
X136000000Y-125500000D02*
X134711000Y-125500000D01*
X136000000Y-125500000D02*
X136000000Y-123765000D01*
X136000000Y-123500000D02*
G75*
G02*
X132000000Y-123500000I-2000000J0D01*
G01*
X132000000Y-123500000D02*
G75*
G02*
X136000000Y-123500000I2000000J0D01*
G01*
%TO.C,Q112*%
X165000000Y-96550000D02*
X165000000Y-92800000D01*
X160920000Y-94660000D02*
G75*
G02*
X164992547Y-92758897I2480000J0D01*
G01*
X165002385Y-96552818D02*
G75*
G02*
X160920000Y-94660000I-1602385J1892818D01*
G01*
%TO.C,R105*%
X209000000Y-86470000D02*
X209000000Y-111470000D01*
X209000000Y-111470000D02*
X218000000Y-111470000D01*
X213500000Y-85000000D02*
X213500000Y-86470000D01*
X213500000Y-112940000D02*
X213500000Y-111470000D01*
X218000000Y-86470000D02*
X209000000Y-86470000D01*
X218000000Y-111470000D02*
X218000000Y-86470000D01*
%TO.C,J2*%
X222000000Y-84000000D02*
X222000000Y-85735000D01*
X222000000Y-84000000D02*
X223289000Y-84000000D01*
X222000000Y-86265000D02*
X222000000Y-88000000D01*
X222000000Y-88000000D02*
X223289000Y-88000000D01*
X224711000Y-84000000D02*
X228000000Y-84000000D01*
X224711000Y-88000000D02*
X228000000Y-88000000D01*
X225273000Y-84483000D02*
X222483000Y-87273000D01*
X225517000Y-84727000D02*
X222727000Y-87517000D01*
X228000000Y-84000000D02*
X228000000Y-88000000D01*
X226000000Y-86000000D02*
G75*
G02*
X222000000Y-86000000I-2000000J0D01*
G01*
X222000000Y-86000000D02*
G75*
G02*
X226000000Y-86000000I2000000J0D01*
G01*
%TO.C,R12*%
X147540000Y-94700000D02*
X149470000Y-94700000D01*
X149470000Y-93450000D02*
X149470000Y-95950000D01*
X149470000Y-95950000D02*
X155770000Y-95950000D01*
X155770000Y-93450000D02*
X149470000Y-93450000D01*
X155770000Y-95950000D02*
X155770000Y-93450000D01*
X157700000Y-94700000D02*
X155770000Y-94700000D01*
%TO.C,Q9*%
X172150000Y-96200000D02*
X168400000Y-96200000D01*
X170260000Y-100280000D02*
G75*
G02*
X168358897Y-96207453I0J2480000D01*
G01*
X172152818Y-96197615D02*
G75*
G02*
X170260000Y-100280000I-1892818J-1602385D01*
G01*
%TO.C,R18*%
X140050000Y-92830000D02*
X140050000Y-99130000D01*
X140050000Y-99130000D02*
X142550000Y-99130000D01*
X141300000Y-90900000D02*
X141300000Y-92830000D01*
X141300000Y-101060000D02*
X141300000Y-99130000D01*
X142550000Y-92830000D02*
X140050000Y-92830000D01*
X142550000Y-99130000D02*
X142550000Y-92830000D01*
%TD*%
D14*
X229000000Y-131000000D02*
X229000000Y-71000000D01*
X229000000Y-71000000D02*
X129000000Y-71000000D01*
X129000000Y-131000000D02*
X229000000Y-131000000D01*
X129000000Y-71000000D02*
X129000000Y-131000000D01*
M02*
