M48
; DRILL file {KiCad 8.0.3-8.0.3-0~ubuntu22.04.1} date 2024-07-16T05:34:04-0500
; FORMAT={-:-/ absolute / inch / decimal}
; #@! TF.CreationDate,2024-07-16T05:34:04-05:00
; #@! TF.GenerationSoftware,Kicad,Pcbnew,8.0.3-8.0.3-0~ubuntu22.04.1
; #@! TF.FileFunction,Plated,1,2,PTH
FMAT,2
INCH
; #@! TA.AperFunction,Plated,PTH,ViaDrill
T1C0.0157
; #@! TA.AperFunction,Plated,PTH,ComponentDrill
T2C0.0197
; #@! TA.AperFunction,Plated,PTH,ComponentDrill
T3C0.0315
; #@! TA.AperFunction,Plated,PTH,ComponentDrill
T4C0.0394
; #@! TA.AperFunction,Plated,PTH,ComponentDrill
T5C0.0472
; #@! TA.AperFunction,Plated,PTH,ComponentDrill
T6C0.0591
; #@! TA.AperFunction,Plated,PTH,ComponentDrill
T7C0.1260
%
G90
G05
T1
X6.9291Y-3.9764
X6.9291Y-4.4193
X7.3457Y-3.2744
X7.3457Y-3.5197
T2
X5.5945Y-2.9528
X5.5945Y-5.0
X5.6222Y-2.8859
X5.6222Y-3.0196
X5.6222Y-4.9332
X5.6222Y-5.0668
X5.689Y-2.8583
X5.689Y-3.0472
X5.689Y-4.9055
X5.689Y-5.0945
X5.7558Y-2.8859
X5.7558Y-3.0196
X5.7558Y-4.9332
X5.7558Y-5.0668
X5.7835Y-2.9528
X5.7835Y-5.0
X7.5039Y-3.0709
X7.5039Y-4.8819
X7.5316Y-3.0041
X7.5316Y-3.1377
X7.5316Y-4.8151
X7.5316Y-4.9487
X7.5984Y-2.9764
X7.5984Y-3.1654
X7.5984Y-4.7874
X7.5984Y-4.9764
X7.6652Y-3.0041
X7.6652Y-3.1377
X7.6652Y-4.8151
X7.6652Y-4.9487
X7.6929Y-3.0709
X7.6929Y-4.8819
T3
X5.1752Y-4.3681
X5.1752Y-4.565
X5.2898Y-3.9559
X5.3248Y-4.1634
X5.3248Y-4.5634
X5.3787Y-4.6929
X5.3882Y-3.9559
X5.4366Y-3.1598
X5.4366Y-3.5598
X5.5079Y-4.063
X5.5079Y-4.163
X5.5079Y-4.263
X5.5453Y-4.3724
X5.5453Y-4.4724
X5.5453Y-4.5724
X5.5472Y-3.185
X5.563Y-3.5787
X5.563Y-3.9787
X5.5748Y-3.2913
X5.5748Y-3.3913
X5.5748Y-3.4913
X5.7008Y-3.5787
X5.7008Y-3.9787
X5.7165Y-4.063
X5.7165Y-4.163
X5.7165Y-4.263
X5.7165Y-4.3701
X5.7165Y-4.4701
X5.7165Y-4.5701
X5.7677Y-3.2913
X5.7677Y-3.3913
X5.7677Y-3.4913
X5.7787Y-4.6929
X5.8071Y-3.6024
X5.8087Y-3.7283
X5.8937Y-4.0748
X5.8937Y-4.2008
X5.8953Y-4.3307
X5.9134Y-4.4449
X5.9134Y-4.8449
X5.9472Y-3.185
X6.122Y-3.0906
X6.122Y-3.2874
X6.122Y-3.3858
X6.2071Y-3.6024
X6.2087Y-3.7283
X6.2937Y-4.0748
X6.2937Y-4.2008
X6.2953Y-4.3307
X6.3976Y-3.2992
X6.3976Y-3.3992
X6.3976Y-3.4992
X6.4055Y-4.0591
X6.4055Y-4.2559
X6.4331Y-3.6268
X6.4331Y-3.7268
X6.4331Y-3.8268
X6.522Y-3.0906
X6.5551Y-3.563
X6.6031Y-3.8504
X6.6063Y-3.7008
X6.6236Y-3.4409
X6.7031Y-3.8504
X6.7835Y-4.0157
X6.7835Y-4.4157
X6.8031Y-3.7008
X6.8031Y-3.8504
X6.9551Y-3.563
X7.0236Y-3.4409
T4
X5.1724Y-4.1417
X5.1724Y-4.2417
X6.689Y-3.0929
X6.7874Y-3.2898
X6.8858Y-3.0929
X7.1228Y-4.8524
X7.1457Y-3.1004
X7.2228Y-4.8524
X7.2457Y-3.1004
X7.3228Y-4.8524
X7.3457Y-3.1004
T5
X6.3189Y-4.5669
X6.3189Y-4.7638
X7.1654Y-3.3898
X7.1654Y-3.9898
X7.4016Y-3.9173
X7.4016Y-4.5173
X7.874Y-3.4571
X7.874Y-4.5571
X8.4055Y-3.3465
X8.4055Y-4.4465
T6
X5.1969Y-3.0906
X5.1969Y-3.6811
X5.1969Y-4.8622
X5.3543Y-3.0906
X5.3543Y-3.6811
X5.3543Y-4.8622
X8.0256Y-3.0423
X8.0256Y-4.9104
X8.2402Y-3.0423
X8.2402Y-4.9104
X8.4547Y-3.0423
X8.4547Y-4.9104
X8.7402Y-3.0906
X8.7402Y-3.3858
X8.7402Y-3.6811
X8.7402Y-3.9764
X8.7402Y-4.2717
X8.7402Y-4.5669
X8.7402Y-4.8622
X8.8976Y-3.0906
X8.8976Y-3.3858
X8.8976Y-3.6811
X8.8976Y-3.9764
X8.8976Y-4.2717
X8.8976Y-4.5669
X8.8976Y-4.8622
T7
X5.689Y-2.9528
X5.689Y-5.0
X7.5984Y-3.0709
X7.5984Y-4.8819
M30
