%TF.GenerationSoftware,KiCad,Pcbnew,8.0.3-8.0.3-0~ubuntu22.04.1*%
%TF.CreationDate,2024-07-16T05:34:00-05:00*%
%TF.ProjectId,ampli-zero,616d706c-692d-47a6-9572-6f2e6b696361,v1.0.0*%
%TF.SameCoordinates,Original*%
%TF.FileFunction,Copper,L1,Top*%
%TF.FilePolarity,Positive*%
%FSLAX46Y46*%
G04 Gerber Fmt 4.6, Leading zero omitted, Abs format (unit mm)*
G04 Created by KiCad (PCBNEW 8.0.3-8.0.3-0~ubuntu22.04.1) date 2024-07-16 05:34:00*
%MOMM*%
%LPD*%
G01*
G04 APERTURE LIST*
%ADD10C,0.100000*%
%ADD11C,0.150000*%
%ADD12C,0.300000*%
%ADD13C,0.400000*%
%TA.AperFunction,ComponentPad*%
%ADD14R,1.560000X1.560000*%
%TD*%
%TA.AperFunction,ComponentPad*%
%ADD15C,1.560000*%
%TD*%
%TA.AperFunction,ComponentPad*%
%ADD16C,0.800000*%
%TD*%
%TA.AperFunction,ComponentPad*%
%ADD17C,6.400000*%
%TD*%
%TA.AperFunction,ComponentPad*%
%ADD18C,3.000000*%
%TD*%
%TA.AperFunction,ComponentPad*%
%ADD19C,1.600000*%
%TD*%
%TA.AperFunction,ComponentPad*%
%ADD20R,1.600000X1.600000*%
%TD*%
%TA.AperFunction,ComponentPad*%
%ADD21R,1.500000X1.500000*%
%TD*%
%TA.AperFunction,ComponentPad*%
%ADD22C,1.500000*%
%TD*%
%TA.AperFunction,ComponentPad*%
%ADD23O,1.600000X1.600000*%
%TD*%
%TA.AperFunction,ComponentPad*%
%ADD24C,2.400000*%
%TD*%
%TA.AperFunction,ComponentPad*%
%ADD25O,2.400000X2.400000*%
%TD*%
%TA.AperFunction,ComponentPad*%
%ADD26R,2.400000X2.400000*%
%TD*%
%TA.AperFunction,ComponentPad*%
%ADD27R,1.700000X1.700000*%
%TD*%
%TA.AperFunction,ComponentPad*%
%ADD28O,1.700000X1.700000*%
%TD*%
%TA.AperFunction,ComponentPad*%
%ADD29R,2.500000X4.500000*%
%TD*%
%TA.AperFunction,ComponentPad*%
%ADD30O,2.500000X4.500000*%
%TD*%
%TA.AperFunction,ComponentPad*%
%ADD31R,1.800000X1.800000*%
%TD*%
%TA.AperFunction,ComponentPad*%
%ADD32O,1.800000X1.800000*%
%TD*%
%TA.AperFunction,ViaPad*%
%ADD33C,0.800000*%
%TD*%
%TA.AperFunction,Conductor*%
%ADD34C,1.000000*%
%TD*%
%TA.AperFunction,Profile*%
%ADD35C,0.100000*%
%TD*%
G04 APERTURE END LIST*
D10*
X157012200Y-177117000D02*
X157012200Y-194897000D01*
X174792200Y-194897000D01*
X174792200Y-177117000D01*
X157012200Y-177117000D01*
D11*
X177013200Y-174505000D02*
X285002200Y-174505000D01*
X285002200Y-198007000D01*
X177013200Y-198007000D01*
X177013200Y-174505000D01*
D10*
D11*
X10000000Y-10000000D02*
X287002200Y-10000000D01*
X287002200Y-200007200D01*
X10000000Y-200007200D01*
X10000000Y-10000000D01*
D10*
D11*
X12000000Y-12000000D02*
X285002200Y-12000000D01*
X285002200Y-198007200D01*
X12000000Y-198007200D01*
X12000000Y-12000000D01*
D10*
D11*
X60000000Y-12000000D02*
X60000000Y-10000000D01*
D10*
D11*
X110000000Y-12000000D02*
X110000000Y-10000000D01*
D10*
D11*
X160000000Y-12000000D02*
X160000000Y-10000000D01*
D10*
D11*
X210000000Y-12000000D02*
X210000000Y-10000000D01*
D10*
D11*
X260000000Y-12000000D02*
X260000000Y-10000000D01*
D10*
D11*
X36089160Y-11593604D02*
X35346303Y-11593604D01*
X35717731Y-11593604D02*
X35717731Y-10293604D01*
X35717731Y-10293604D02*
X35593922Y-10479319D01*
X35593922Y-10479319D02*
X35470112Y-10603128D01*
X35470112Y-10603128D02*
X35346303Y-10665033D01*
D10*
D11*
X85346303Y-10417414D02*
X85408207Y-10355509D01*
X85408207Y-10355509D02*
X85532017Y-10293604D01*
X85532017Y-10293604D02*
X85841541Y-10293604D01*
X85841541Y-10293604D02*
X85965350Y-10355509D01*
X85965350Y-10355509D02*
X86027255Y-10417414D01*
X86027255Y-10417414D02*
X86089160Y-10541223D01*
X86089160Y-10541223D02*
X86089160Y-10665033D01*
X86089160Y-10665033D02*
X86027255Y-10850747D01*
X86027255Y-10850747D02*
X85284398Y-11593604D01*
X85284398Y-11593604D02*
X86089160Y-11593604D01*
D10*
D11*
X135284398Y-10293604D02*
X136089160Y-10293604D01*
X136089160Y-10293604D02*
X135655826Y-10788842D01*
X135655826Y-10788842D02*
X135841541Y-10788842D01*
X135841541Y-10788842D02*
X135965350Y-10850747D01*
X135965350Y-10850747D02*
X136027255Y-10912652D01*
X136027255Y-10912652D02*
X136089160Y-11036461D01*
X136089160Y-11036461D02*
X136089160Y-11345985D01*
X136089160Y-11345985D02*
X136027255Y-11469795D01*
X136027255Y-11469795D02*
X135965350Y-11531700D01*
X135965350Y-11531700D02*
X135841541Y-11593604D01*
X135841541Y-11593604D02*
X135470112Y-11593604D01*
X135470112Y-11593604D02*
X135346303Y-11531700D01*
X135346303Y-11531700D02*
X135284398Y-11469795D01*
D10*
D11*
X185965350Y-10726938D02*
X185965350Y-11593604D01*
X185655826Y-10231700D02*
X185346303Y-11160271D01*
X185346303Y-11160271D02*
X186151064Y-11160271D01*
D10*
D11*
X236027255Y-10293604D02*
X235408207Y-10293604D01*
X235408207Y-10293604D02*
X235346303Y-10912652D01*
X235346303Y-10912652D02*
X235408207Y-10850747D01*
X235408207Y-10850747D02*
X235532017Y-10788842D01*
X235532017Y-10788842D02*
X235841541Y-10788842D01*
X235841541Y-10788842D02*
X235965350Y-10850747D01*
X235965350Y-10850747D02*
X236027255Y-10912652D01*
X236027255Y-10912652D02*
X236089160Y-11036461D01*
X236089160Y-11036461D02*
X236089160Y-11345985D01*
X236089160Y-11345985D02*
X236027255Y-11469795D01*
X236027255Y-11469795D02*
X235965350Y-11531700D01*
X235965350Y-11531700D02*
X235841541Y-11593604D01*
X235841541Y-11593604D02*
X235532017Y-11593604D01*
X235532017Y-11593604D02*
X235408207Y-11531700D01*
X235408207Y-11531700D02*
X235346303Y-11469795D01*
D10*
D11*
X285965350Y-10293604D02*
X285717731Y-10293604D01*
X285717731Y-10293604D02*
X285593922Y-10355509D01*
X285593922Y-10355509D02*
X285532017Y-10417414D01*
X285532017Y-10417414D02*
X285408207Y-10603128D01*
X285408207Y-10603128D02*
X285346303Y-10850747D01*
X285346303Y-10850747D02*
X285346303Y-11345985D01*
X285346303Y-11345985D02*
X285408207Y-11469795D01*
X285408207Y-11469795D02*
X285470112Y-11531700D01*
X285470112Y-11531700D02*
X285593922Y-11593604D01*
X285593922Y-11593604D02*
X285841541Y-11593604D01*
X285841541Y-11593604D02*
X285965350Y-11531700D01*
X285965350Y-11531700D02*
X286027255Y-11469795D01*
X286027255Y-11469795D02*
X286089160Y-11345985D01*
X286089160Y-11345985D02*
X286089160Y-11036461D01*
X286089160Y-11036461D02*
X286027255Y-10912652D01*
X286027255Y-10912652D02*
X285965350Y-10850747D01*
X285965350Y-10850747D02*
X285841541Y-10788842D01*
X285841541Y-10788842D02*
X285593922Y-10788842D01*
X285593922Y-10788842D02*
X285470112Y-10850747D01*
X285470112Y-10850747D02*
X285408207Y-10912652D01*
X285408207Y-10912652D02*
X285346303Y-11036461D01*
D10*
D11*
X60000000Y-198007200D02*
X60000000Y-200007200D01*
D10*
D11*
X110000000Y-198007200D02*
X110000000Y-200007200D01*
D10*
D11*
X160000000Y-198007200D02*
X160000000Y-200007200D01*
D10*
D11*
X210000000Y-198007200D02*
X210000000Y-200007200D01*
D10*
D11*
X260000000Y-198007200D02*
X260000000Y-200007200D01*
D10*
D11*
X36089160Y-199600804D02*
X35346303Y-199600804D01*
X35717731Y-199600804D02*
X35717731Y-198300804D01*
X35717731Y-198300804D02*
X35593922Y-198486519D01*
X35593922Y-198486519D02*
X35470112Y-198610328D01*
X35470112Y-198610328D02*
X35346303Y-198672233D01*
D10*
D11*
X85346303Y-198424614D02*
X85408207Y-198362709D01*
X85408207Y-198362709D02*
X85532017Y-198300804D01*
X85532017Y-198300804D02*
X85841541Y-198300804D01*
X85841541Y-198300804D02*
X85965350Y-198362709D01*
X85965350Y-198362709D02*
X86027255Y-198424614D01*
X86027255Y-198424614D02*
X86089160Y-198548423D01*
X86089160Y-198548423D02*
X86089160Y-198672233D01*
X86089160Y-198672233D02*
X86027255Y-198857947D01*
X86027255Y-198857947D02*
X85284398Y-199600804D01*
X85284398Y-199600804D02*
X86089160Y-199600804D01*
D10*
D11*
X135284398Y-198300804D02*
X136089160Y-198300804D01*
X136089160Y-198300804D02*
X135655826Y-198796042D01*
X135655826Y-198796042D02*
X135841541Y-198796042D01*
X135841541Y-198796042D02*
X135965350Y-198857947D01*
X135965350Y-198857947D02*
X136027255Y-198919852D01*
X136027255Y-198919852D02*
X136089160Y-199043661D01*
X136089160Y-199043661D02*
X136089160Y-199353185D01*
X136089160Y-199353185D02*
X136027255Y-199476995D01*
X136027255Y-199476995D02*
X135965350Y-199538900D01*
X135965350Y-199538900D02*
X135841541Y-199600804D01*
X135841541Y-199600804D02*
X135470112Y-199600804D01*
X135470112Y-199600804D02*
X135346303Y-199538900D01*
X135346303Y-199538900D02*
X135284398Y-199476995D01*
D10*
D11*
X185965350Y-198734138D02*
X185965350Y-199600804D01*
X185655826Y-198238900D02*
X185346303Y-199167471D01*
X185346303Y-199167471D02*
X186151064Y-199167471D01*
D10*
D11*
X236027255Y-198300804D02*
X235408207Y-198300804D01*
X235408207Y-198300804D02*
X235346303Y-198919852D01*
X235346303Y-198919852D02*
X235408207Y-198857947D01*
X235408207Y-198857947D02*
X235532017Y-198796042D01*
X235532017Y-198796042D02*
X235841541Y-198796042D01*
X235841541Y-198796042D02*
X235965350Y-198857947D01*
X235965350Y-198857947D02*
X236027255Y-198919852D01*
X236027255Y-198919852D02*
X236089160Y-199043661D01*
X236089160Y-199043661D02*
X236089160Y-199353185D01*
X236089160Y-199353185D02*
X236027255Y-199476995D01*
X236027255Y-199476995D02*
X235965350Y-199538900D01*
X235965350Y-199538900D02*
X235841541Y-199600804D01*
X235841541Y-199600804D02*
X235532017Y-199600804D01*
X235532017Y-199600804D02*
X235408207Y-199538900D01*
X235408207Y-199538900D02*
X235346303Y-199476995D01*
D10*
D11*
X285965350Y-198300804D02*
X285717731Y-198300804D01*
X285717731Y-198300804D02*
X285593922Y-198362709D01*
X285593922Y-198362709D02*
X285532017Y-198424614D01*
X285532017Y-198424614D02*
X285408207Y-198610328D01*
X285408207Y-198610328D02*
X285346303Y-198857947D01*
X285346303Y-198857947D02*
X285346303Y-199353185D01*
X285346303Y-199353185D02*
X285408207Y-199476995D01*
X285408207Y-199476995D02*
X285470112Y-199538900D01*
X285470112Y-199538900D02*
X285593922Y-199600804D01*
X285593922Y-199600804D02*
X285841541Y-199600804D01*
X285841541Y-199600804D02*
X285965350Y-199538900D01*
X285965350Y-199538900D02*
X286027255Y-199476995D01*
X286027255Y-199476995D02*
X286089160Y-199353185D01*
X286089160Y-199353185D02*
X286089160Y-199043661D01*
X286089160Y-199043661D02*
X286027255Y-198919852D01*
X286027255Y-198919852D02*
X285965350Y-198857947D01*
X285965350Y-198857947D02*
X285841541Y-198796042D01*
X285841541Y-198796042D02*
X285593922Y-198796042D01*
X285593922Y-198796042D02*
X285470112Y-198857947D01*
X285470112Y-198857947D02*
X285408207Y-198919852D01*
X285408207Y-198919852D02*
X285346303Y-199043661D01*
D10*
D11*
X10000000Y-60000000D02*
X12000000Y-60000000D01*
D10*
D11*
X10000000Y-110000000D02*
X12000000Y-110000000D01*
D10*
D11*
X10000000Y-160000000D02*
X12000000Y-160000000D01*
D10*
D11*
X10690476Y-35222176D02*
X11309523Y-35222176D01*
X10566666Y-35593604D02*
X10999999Y-34293604D01*
X10999999Y-34293604D02*
X11433333Y-35593604D01*
D10*
D11*
X11092857Y-84912652D02*
X11278571Y-84974557D01*
X11278571Y-84974557D02*
X11340476Y-85036461D01*
X11340476Y-85036461D02*
X11402380Y-85160271D01*
X11402380Y-85160271D02*
X11402380Y-85345985D01*
X11402380Y-85345985D02*
X11340476Y-85469795D01*
X11340476Y-85469795D02*
X11278571Y-85531700D01*
X11278571Y-85531700D02*
X11154761Y-85593604D01*
X11154761Y-85593604D02*
X10659523Y-85593604D01*
X10659523Y-85593604D02*
X10659523Y-84293604D01*
X10659523Y-84293604D02*
X11092857Y-84293604D01*
X11092857Y-84293604D02*
X11216666Y-84355509D01*
X11216666Y-84355509D02*
X11278571Y-84417414D01*
X11278571Y-84417414D02*
X11340476Y-84541223D01*
X11340476Y-84541223D02*
X11340476Y-84665033D01*
X11340476Y-84665033D02*
X11278571Y-84788842D01*
X11278571Y-84788842D02*
X11216666Y-84850747D01*
X11216666Y-84850747D02*
X11092857Y-84912652D01*
X11092857Y-84912652D02*
X10659523Y-84912652D01*
D10*
D11*
X11402380Y-135469795D02*
X11340476Y-135531700D01*
X11340476Y-135531700D02*
X11154761Y-135593604D01*
X11154761Y-135593604D02*
X11030952Y-135593604D01*
X11030952Y-135593604D02*
X10845238Y-135531700D01*
X10845238Y-135531700D02*
X10721428Y-135407890D01*
X10721428Y-135407890D02*
X10659523Y-135284080D01*
X10659523Y-135284080D02*
X10597619Y-135036461D01*
X10597619Y-135036461D02*
X10597619Y-134850747D01*
X10597619Y-134850747D02*
X10659523Y-134603128D01*
X10659523Y-134603128D02*
X10721428Y-134479319D01*
X10721428Y-134479319D02*
X10845238Y-134355509D01*
X10845238Y-134355509D02*
X11030952Y-134293604D01*
X11030952Y-134293604D02*
X11154761Y-134293604D01*
X11154761Y-134293604D02*
X11340476Y-134355509D01*
X11340476Y-134355509D02*
X11402380Y-134417414D01*
D10*
D11*
X10659523Y-185593604D02*
X10659523Y-184293604D01*
X10659523Y-184293604D02*
X10969047Y-184293604D01*
X10969047Y-184293604D02*
X11154761Y-184355509D01*
X11154761Y-184355509D02*
X11278571Y-184479319D01*
X11278571Y-184479319D02*
X11340476Y-184603128D01*
X11340476Y-184603128D02*
X11402380Y-184850747D01*
X11402380Y-184850747D02*
X11402380Y-185036461D01*
X11402380Y-185036461D02*
X11340476Y-185284080D01*
X11340476Y-185284080D02*
X11278571Y-185407890D01*
X11278571Y-185407890D02*
X11154761Y-185531700D01*
X11154761Y-185531700D02*
X10969047Y-185593604D01*
X10969047Y-185593604D02*
X10659523Y-185593604D01*
D10*
D11*
X287002200Y-60000000D02*
X285002200Y-60000000D01*
D10*
D11*
X287002200Y-110000000D02*
X285002200Y-110000000D01*
D10*
D11*
X287002200Y-160000000D02*
X285002200Y-160000000D01*
D10*
D11*
X285692676Y-35222176D02*
X286311723Y-35222176D01*
X285568866Y-35593604D02*
X286002199Y-34293604D01*
X286002199Y-34293604D02*
X286435533Y-35593604D01*
D10*
D11*
X286095057Y-84912652D02*
X286280771Y-84974557D01*
X286280771Y-84974557D02*
X286342676Y-85036461D01*
X286342676Y-85036461D02*
X286404580Y-85160271D01*
X286404580Y-85160271D02*
X286404580Y-85345985D01*
X286404580Y-85345985D02*
X286342676Y-85469795D01*
X286342676Y-85469795D02*
X286280771Y-85531700D01*
X286280771Y-85531700D02*
X286156961Y-85593604D01*
X286156961Y-85593604D02*
X285661723Y-85593604D01*
X285661723Y-85593604D02*
X285661723Y-84293604D01*
X285661723Y-84293604D02*
X286095057Y-84293604D01*
X286095057Y-84293604D02*
X286218866Y-84355509D01*
X286218866Y-84355509D02*
X286280771Y-84417414D01*
X286280771Y-84417414D02*
X286342676Y-84541223D01*
X286342676Y-84541223D02*
X286342676Y-84665033D01*
X286342676Y-84665033D02*
X286280771Y-84788842D01*
X286280771Y-84788842D02*
X286218866Y-84850747D01*
X286218866Y-84850747D02*
X286095057Y-84912652D01*
X286095057Y-84912652D02*
X285661723Y-84912652D01*
D10*
D11*
X286404580Y-135469795D02*
X286342676Y-135531700D01*
X286342676Y-135531700D02*
X286156961Y-135593604D01*
X286156961Y-135593604D02*
X286033152Y-135593604D01*
X286033152Y-135593604D02*
X285847438Y-135531700D01*
X285847438Y-135531700D02*
X285723628Y-135407890D01*
X285723628Y-135407890D02*
X285661723Y-135284080D01*
X285661723Y-135284080D02*
X285599819Y-135036461D01*
X285599819Y-135036461D02*
X285599819Y-134850747D01*
X285599819Y-134850747D02*
X285661723Y-134603128D01*
X285661723Y-134603128D02*
X285723628Y-134479319D01*
X285723628Y-134479319D02*
X285847438Y-134355509D01*
X285847438Y-134355509D02*
X286033152Y-134293604D01*
X286033152Y-134293604D02*
X286156961Y-134293604D01*
X286156961Y-134293604D02*
X286342676Y-134355509D01*
X286342676Y-134355509D02*
X286404580Y-134417414D01*
D10*
D11*
X285661723Y-185593604D02*
X285661723Y-184293604D01*
X285661723Y-184293604D02*
X285971247Y-184293604D01*
X285971247Y-184293604D02*
X286156961Y-184355509D01*
X286156961Y-184355509D02*
X286280771Y-184479319D01*
X286280771Y-184479319D02*
X286342676Y-184603128D01*
X286342676Y-184603128D02*
X286404580Y-184850747D01*
X286404580Y-184850747D02*
X286404580Y-185036461D01*
X286404580Y-185036461D02*
X286342676Y-185284080D01*
X286342676Y-185284080D02*
X286280771Y-185407890D01*
X286280771Y-185407890D02*
X286156961Y-185531700D01*
X286156961Y-185531700D02*
X285971247Y-185593604D01*
X285971247Y-185593604D02*
X285661723Y-185593604D01*
D10*
D11*
X261958026Y-186293128D02*
X261958026Y-184793128D01*
X261958026Y-184793128D02*
X262315169Y-184793128D01*
X262315169Y-184793128D02*
X262529455Y-184864557D01*
X262529455Y-184864557D02*
X262672312Y-185007414D01*
X262672312Y-185007414D02*
X262743741Y-185150271D01*
X262743741Y-185150271D02*
X262815169Y-185435985D01*
X262815169Y-185435985D02*
X262815169Y-185650271D01*
X262815169Y-185650271D02*
X262743741Y-185935985D01*
X262743741Y-185935985D02*
X262672312Y-186078842D01*
X262672312Y-186078842D02*
X262529455Y-186221700D01*
X262529455Y-186221700D02*
X262315169Y-186293128D01*
X262315169Y-186293128D02*
X261958026Y-186293128D01*
X264100884Y-186293128D02*
X264100884Y-185507414D01*
X264100884Y-185507414D02*
X264029455Y-185364557D01*
X264029455Y-185364557D02*
X263886598Y-185293128D01*
X263886598Y-185293128D02*
X263600884Y-185293128D01*
X263600884Y-185293128D02*
X263458026Y-185364557D01*
X264100884Y-186221700D02*
X263958026Y-186293128D01*
X263958026Y-186293128D02*
X263600884Y-186293128D01*
X263600884Y-186293128D02*
X263458026Y-186221700D01*
X263458026Y-186221700D02*
X263386598Y-186078842D01*
X263386598Y-186078842D02*
X263386598Y-185935985D01*
X263386598Y-185935985D02*
X263458026Y-185793128D01*
X263458026Y-185793128D02*
X263600884Y-185721700D01*
X263600884Y-185721700D02*
X263958026Y-185721700D01*
X263958026Y-185721700D02*
X264100884Y-185650271D01*
X264600884Y-185293128D02*
X265172312Y-185293128D01*
X264815169Y-184793128D02*
X264815169Y-186078842D01*
X264815169Y-186078842D02*
X264886598Y-186221700D01*
X264886598Y-186221700D02*
X265029455Y-186293128D01*
X265029455Y-186293128D02*
X265172312Y-186293128D01*
X266243741Y-186221700D02*
X266100884Y-186293128D01*
X266100884Y-186293128D02*
X265815170Y-186293128D01*
X265815170Y-186293128D02*
X265672312Y-186221700D01*
X265672312Y-186221700D02*
X265600884Y-186078842D01*
X265600884Y-186078842D02*
X265600884Y-185507414D01*
X265600884Y-185507414D02*
X265672312Y-185364557D01*
X265672312Y-185364557D02*
X265815170Y-185293128D01*
X265815170Y-185293128D02*
X266100884Y-185293128D01*
X266100884Y-185293128D02*
X266243741Y-185364557D01*
X266243741Y-185364557D02*
X266315170Y-185507414D01*
X266315170Y-185507414D02*
X266315170Y-185650271D01*
X266315170Y-185650271D02*
X265600884Y-185793128D01*
X266958026Y-186150271D02*
X267029455Y-186221700D01*
X267029455Y-186221700D02*
X266958026Y-186293128D01*
X266958026Y-186293128D02*
X266886598Y-186221700D01*
X266886598Y-186221700D02*
X266958026Y-186150271D01*
X266958026Y-186150271D02*
X266958026Y-186293128D01*
X266958026Y-185364557D02*
X267029455Y-185435985D01*
X267029455Y-185435985D02*
X266958026Y-185507414D01*
X266958026Y-185507414D02*
X266886598Y-185435985D01*
X266886598Y-185435985D02*
X266958026Y-185364557D01*
X266958026Y-185364557D02*
X266958026Y-185507414D01*
X268743741Y-184935985D02*
X268815169Y-184864557D01*
X268815169Y-184864557D02*
X268958027Y-184793128D01*
X268958027Y-184793128D02*
X269315169Y-184793128D01*
X269315169Y-184793128D02*
X269458027Y-184864557D01*
X269458027Y-184864557D02*
X269529455Y-184935985D01*
X269529455Y-184935985D02*
X269600884Y-185078842D01*
X269600884Y-185078842D02*
X269600884Y-185221700D01*
X269600884Y-185221700D02*
X269529455Y-185435985D01*
X269529455Y-185435985D02*
X268672312Y-186293128D01*
X268672312Y-186293128D02*
X269600884Y-186293128D01*
X270529455Y-184793128D02*
X270672312Y-184793128D01*
X270672312Y-184793128D02*
X270815169Y-184864557D01*
X270815169Y-184864557D02*
X270886598Y-184935985D01*
X270886598Y-184935985D02*
X270958026Y-185078842D01*
X270958026Y-185078842D02*
X271029455Y-185364557D01*
X271029455Y-185364557D02*
X271029455Y-185721700D01*
X271029455Y-185721700D02*
X270958026Y-186007414D01*
X270958026Y-186007414D02*
X270886598Y-186150271D01*
X270886598Y-186150271D02*
X270815169Y-186221700D01*
X270815169Y-186221700D02*
X270672312Y-186293128D01*
X270672312Y-186293128D02*
X270529455Y-186293128D01*
X270529455Y-186293128D02*
X270386598Y-186221700D01*
X270386598Y-186221700D02*
X270315169Y-186150271D01*
X270315169Y-186150271D02*
X270243740Y-186007414D01*
X270243740Y-186007414D02*
X270172312Y-185721700D01*
X270172312Y-185721700D02*
X270172312Y-185364557D01*
X270172312Y-185364557D02*
X270243740Y-185078842D01*
X270243740Y-185078842D02*
X270315169Y-184935985D01*
X270315169Y-184935985D02*
X270386598Y-184864557D01*
X270386598Y-184864557D02*
X270529455Y-184793128D01*
X271600883Y-184935985D02*
X271672311Y-184864557D01*
X271672311Y-184864557D02*
X271815169Y-184793128D01*
X271815169Y-184793128D02*
X272172311Y-184793128D01*
X272172311Y-184793128D02*
X272315169Y-184864557D01*
X272315169Y-184864557D02*
X272386597Y-184935985D01*
X272386597Y-184935985D02*
X272458026Y-185078842D01*
X272458026Y-185078842D02*
X272458026Y-185221700D01*
X272458026Y-185221700D02*
X272386597Y-185435985D01*
X272386597Y-185435985D02*
X271529454Y-186293128D01*
X271529454Y-186293128D02*
X272458026Y-186293128D01*
X273743740Y-185293128D02*
X273743740Y-186293128D01*
X273386597Y-184721700D02*
X273029454Y-185793128D01*
X273029454Y-185793128D02*
X273958025Y-185793128D01*
X274529453Y-185721700D02*
X275672311Y-185721700D01*
X276672311Y-184793128D02*
X276815168Y-184793128D01*
X276815168Y-184793128D02*
X276958025Y-184864557D01*
X276958025Y-184864557D02*
X277029454Y-184935985D01*
X277029454Y-184935985D02*
X277100882Y-185078842D01*
X277100882Y-185078842D02*
X277172311Y-185364557D01*
X277172311Y-185364557D02*
X277172311Y-185721700D01*
X277172311Y-185721700D02*
X277100882Y-186007414D01*
X277100882Y-186007414D02*
X277029454Y-186150271D01*
X277029454Y-186150271D02*
X276958025Y-186221700D01*
X276958025Y-186221700D02*
X276815168Y-186293128D01*
X276815168Y-186293128D02*
X276672311Y-186293128D01*
X276672311Y-186293128D02*
X276529454Y-186221700D01*
X276529454Y-186221700D02*
X276458025Y-186150271D01*
X276458025Y-186150271D02*
X276386596Y-186007414D01*
X276386596Y-186007414D02*
X276315168Y-185721700D01*
X276315168Y-185721700D02*
X276315168Y-185364557D01*
X276315168Y-185364557D02*
X276386596Y-185078842D01*
X276386596Y-185078842D02*
X276458025Y-184935985D01*
X276458025Y-184935985D02*
X276529454Y-184864557D01*
X276529454Y-184864557D02*
X276672311Y-184793128D01*
X278600882Y-186293128D02*
X277743739Y-186293128D01*
X278172310Y-186293128D02*
X278172310Y-184793128D01*
X278172310Y-184793128D02*
X278029453Y-185007414D01*
X278029453Y-185007414D02*
X277886596Y-185150271D01*
X277886596Y-185150271D02*
X277743739Y-185221700D01*
X279243738Y-185721700D02*
X280386596Y-185721700D01*
X281386596Y-184793128D02*
X281529453Y-184793128D01*
X281529453Y-184793128D02*
X281672310Y-184864557D01*
X281672310Y-184864557D02*
X281743739Y-184935985D01*
X281743739Y-184935985D02*
X281815167Y-185078842D01*
X281815167Y-185078842D02*
X281886596Y-185364557D01*
X281886596Y-185364557D02*
X281886596Y-185721700D01*
X281886596Y-185721700D02*
X281815167Y-186007414D01*
X281815167Y-186007414D02*
X281743739Y-186150271D01*
X281743739Y-186150271D02*
X281672310Y-186221700D01*
X281672310Y-186221700D02*
X281529453Y-186293128D01*
X281529453Y-186293128D02*
X281386596Y-186293128D01*
X281386596Y-186293128D02*
X281243739Y-186221700D01*
X281243739Y-186221700D02*
X281172310Y-186150271D01*
X281172310Y-186150271D02*
X281100881Y-186007414D01*
X281100881Y-186007414D02*
X281029453Y-185721700D01*
X281029453Y-185721700D02*
X281029453Y-185364557D01*
X281029453Y-185364557D02*
X281100881Y-185078842D01*
X281100881Y-185078842D02*
X281172310Y-184935985D01*
X281172310Y-184935985D02*
X281243739Y-184864557D01*
X281243739Y-184864557D02*
X281386596Y-184793128D01*
X283172310Y-184793128D02*
X282886595Y-184793128D01*
X282886595Y-184793128D02*
X282743738Y-184864557D01*
X282743738Y-184864557D02*
X282672310Y-184935985D01*
X282672310Y-184935985D02*
X282529452Y-185150271D01*
X282529452Y-185150271D02*
X282458024Y-185435985D01*
X282458024Y-185435985D02*
X282458024Y-186007414D01*
X282458024Y-186007414D02*
X282529452Y-186150271D01*
X282529452Y-186150271D02*
X282600881Y-186221700D01*
X282600881Y-186221700D02*
X282743738Y-186293128D01*
X282743738Y-186293128D02*
X283029452Y-186293128D01*
X283029452Y-186293128D02*
X283172310Y-186221700D01*
X283172310Y-186221700D02*
X283243738Y-186150271D01*
X283243738Y-186150271D02*
X283315167Y-186007414D01*
X283315167Y-186007414D02*
X283315167Y-185650271D01*
X283315167Y-185650271D02*
X283243738Y-185507414D01*
X283243738Y-185507414D02*
X283172310Y-185435985D01*
X283172310Y-185435985D02*
X283029452Y-185364557D01*
X283029452Y-185364557D02*
X282743738Y-185364557D01*
X282743738Y-185364557D02*
X282600881Y-185435985D01*
X282600881Y-185435985D02*
X282529452Y-185507414D01*
X282529452Y-185507414D02*
X282458024Y-185650271D01*
D10*
D11*
X177002200Y-194507200D02*
X285002200Y-194507200D01*
D10*
D11*
X178458026Y-196593328D02*
X178458026Y-195093328D01*
X179315169Y-196593328D02*
X178672312Y-195736185D01*
X179315169Y-195093328D02*
X178458026Y-195950471D01*
X179958026Y-196593328D02*
X179958026Y-195593328D01*
X179958026Y-195093328D02*
X179886598Y-195164757D01*
X179886598Y-195164757D02*
X179958026Y-195236185D01*
X179958026Y-195236185D02*
X180029455Y-195164757D01*
X180029455Y-195164757D02*
X179958026Y-195093328D01*
X179958026Y-195093328D02*
X179958026Y-195236185D01*
X181529455Y-196450471D02*
X181458027Y-196521900D01*
X181458027Y-196521900D02*
X181243741Y-196593328D01*
X181243741Y-196593328D02*
X181100884Y-196593328D01*
X181100884Y-196593328D02*
X180886598Y-196521900D01*
X180886598Y-196521900D02*
X180743741Y-196379042D01*
X180743741Y-196379042D02*
X180672312Y-196236185D01*
X180672312Y-196236185D02*
X180600884Y-195950471D01*
X180600884Y-195950471D02*
X180600884Y-195736185D01*
X180600884Y-195736185D02*
X180672312Y-195450471D01*
X180672312Y-195450471D02*
X180743741Y-195307614D01*
X180743741Y-195307614D02*
X180886598Y-195164757D01*
X180886598Y-195164757D02*
X181100884Y-195093328D01*
X181100884Y-195093328D02*
X181243741Y-195093328D01*
X181243741Y-195093328D02*
X181458027Y-195164757D01*
X181458027Y-195164757D02*
X181529455Y-195236185D01*
X182815170Y-196593328D02*
X182815170Y-195807614D01*
X182815170Y-195807614D02*
X182743741Y-195664757D01*
X182743741Y-195664757D02*
X182600884Y-195593328D01*
X182600884Y-195593328D02*
X182315170Y-195593328D01*
X182315170Y-195593328D02*
X182172312Y-195664757D01*
X182815170Y-196521900D02*
X182672312Y-196593328D01*
X182672312Y-196593328D02*
X182315170Y-196593328D01*
X182315170Y-196593328D02*
X182172312Y-196521900D01*
X182172312Y-196521900D02*
X182100884Y-196379042D01*
X182100884Y-196379042D02*
X182100884Y-196236185D01*
X182100884Y-196236185D02*
X182172312Y-196093328D01*
X182172312Y-196093328D02*
X182315170Y-196021900D01*
X182315170Y-196021900D02*
X182672312Y-196021900D01*
X182672312Y-196021900D02*
X182815170Y-195950471D01*
X184172313Y-196593328D02*
X184172313Y-195093328D01*
X184172313Y-196521900D02*
X184029455Y-196593328D01*
X184029455Y-196593328D02*
X183743741Y-196593328D01*
X183743741Y-196593328D02*
X183600884Y-196521900D01*
X183600884Y-196521900D02*
X183529455Y-196450471D01*
X183529455Y-196450471D02*
X183458027Y-196307614D01*
X183458027Y-196307614D02*
X183458027Y-195879042D01*
X183458027Y-195879042D02*
X183529455Y-195736185D01*
X183529455Y-195736185D02*
X183600884Y-195664757D01*
X183600884Y-195664757D02*
X183743741Y-195593328D01*
X183743741Y-195593328D02*
X184029455Y-195593328D01*
X184029455Y-195593328D02*
X184172313Y-195664757D01*
X186029455Y-195807614D02*
X186529455Y-195807614D01*
X186743741Y-196593328D02*
X186029455Y-196593328D01*
X186029455Y-196593328D02*
X186029455Y-195093328D01*
X186029455Y-195093328D02*
X186743741Y-195093328D01*
X187386598Y-196450471D02*
X187458027Y-196521900D01*
X187458027Y-196521900D02*
X187386598Y-196593328D01*
X187386598Y-196593328D02*
X187315170Y-196521900D01*
X187315170Y-196521900D02*
X187386598Y-196450471D01*
X187386598Y-196450471D02*
X187386598Y-196593328D01*
X188100884Y-196593328D02*
X188100884Y-195093328D01*
X188100884Y-195093328D02*
X188458027Y-195093328D01*
X188458027Y-195093328D02*
X188672313Y-195164757D01*
X188672313Y-195164757D02*
X188815170Y-195307614D01*
X188815170Y-195307614D02*
X188886599Y-195450471D01*
X188886599Y-195450471D02*
X188958027Y-195736185D01*
X188958027Y-195736185D02*
X188958027Y-195950471D01*
X188958027Y-195950471D02*
X188886599Y-196236185D01*
X188886599Y-196236185D02*
X188815170Y-196379042D01*
X188815170Y-196379042D02*
X188672313Y-196521900D01*
X188672313Y-196521900D02*
X188458027Y-196593328D01*
X188458027Y-196593328D02*
X188100884Y-196593328D01*
X189600884Y-196450471D02*
X189672313Y-196521900D01*
X189672313Y-196521900D02*
X189600884Y-196593328D01*
X189600884Y-196593328D02*
X189529456Y-196521900D01*
X189529456Y-196521900D02*
X189600884Y-196450471D01*
X189600884Y-196450471D02*
X189600884Y-196593328D01*
X190243742Y-196164757D02*
X190958028Y-196164757D01*
X190100885Y-196593328D02*
X190600885Y-195093328D01*
X190600885Y-195093328D02*
X191100885Y-196593328D01*
X191600884Y-196450471D02*
X191672313Y-196521900D01*
X191672313Y-196521900D02*
X191600884Y-196593328D01*
X191600884Y-196593328D02*
X191529456Y-196521900D01*
X191529456Y-196521900D02*
X191600884Y-196450471D01*
X191600884Y-196450471D02*
X191600884Y-196593328D01*
X193672313Y-195736185D02*
X193529456Y-195664757D01*
X193529456Y-195664757D02*
X193458027Y-195593328D01*
X193458027Y-195593328D02*
X193386599Y-195450471D01*
X193386599Y-195450471D02*
X193386599Y-195379042D01*
X193386599Y-195379042D02*
X193458027Y-195236185D01*
X193458027Y-195236185D02*
X193529456Y-195164757D01*
X193529456Y-195164757D02*
X193672313Y-195093328D01*
X193672313Y-195093328D02*
X193958027Y-195093328D01*
X193958027Y-195093328D02*
X194100885Y-195164757D01*
X194100885Y-195164757D02*
X194172313Y-195236185D01*
X194172313Y-195236185D02*
X194243742Y-195379042D01*
X194243742Y-195379042D02*
X194243742Y-195450471D01*
X194243742Y-195450471D02*
X194172313Y-195593328D01*
X194172313Y-195593328D02*
X194100885Y-195664757D01*
X194100885Y-195664757D02*
X193958027Y-195736185D01*
X193958027Y-195736185D02*
X193672313Y-195736185D01*
X193672313Y-195736185D02*
X193529456Y-195807614D01*
X193529456Y-195807614D02*
X193458027Y-195879042D01*
X193458027Y-195879042D02*
X193386599Y-196021900D01*
X193386599Y-196021900D02*
X193386599Y-196307614D01*
X193386599Y-196307614D02*
X193458027Y-196450471D01*
X193458027Y-196450471D02*
X193529456Y-196521900D01*
X193529456Y-196521900D02*
X193672313Y-196593328D01*
X193672313Y-196593328D02*
X193958027Y-196593328D01*
X193958027Y-196593328D02*
X194100885Y-196521900D01*
X194100885Y-196521900D02*
X194172313Y-196450471D01*
X194172313Y-196450471D02*
X194243742Y-196307614D01*
X194243742Y-196307614D02*
X194243742Y-196021900D01*
X194243742Y-196021900D02*
X194172313Y-195879042D01*
X194172313Y-195879042D02*
X194100885Y-195807614D01*
X194100885Y-195807614D02*
X193958027Y-195736185D01*
X194886598Y-196450471D02*
X194958027Y-196521900D01*
X194958027Y-196521900D02*
X194886598Y-196593328D01*
X194886598Y-196593328D02*
X194815170Y-196521900D01*
X194815170Y-196521900D02*
X194886598Y-196450471D01*
X194886598Y-196450471D02*
X194886598Y-196593328D01*
X195886599Y-195093328D02*
X196029456Y-195093328D01*
X196029456Y-195093328D02*
X196172313Y-195164757D01*
X196172313Y-195164757D02*
X196243742Y-195236185D01*
X196243742Y-195236185D02*
X196315170Y-195379042D01*
X196315170Y-195379042D02*
X196386599Y-195664757D01*
X196386599Y-195664757D02*
X196386599Y-196021900D01*
X196386599Y-196021900D02*
X196315170Y-196307614D01*
X196315170Y-196307614D02*
X196243742Y-196450471D01*
X196243742Y-196450471D02*
X196172313Y-196521900D01*
X196172313Y-196521900D02*
X196029456Y-196593328D01*
X196029456Y-196593328D02*
X195886599Y-196593328D01*
X195886599Y-196593328D02*
X195743742Y-196521900D01*
X195743742Y-196521900D02*
X195672313Y-196450471D01*
X195672313Y-196450471D02*
X195600884Y-196307614D01*
X195600884Y-196307614D02*
X195529456Y-196021900D01*
X195529456Y-196021900D02*
X195529456Y-195664757D01*
X195529456Y-195664757D02*
X195600884Y-195379042D01*
X195600884Y-195379042D02*
X195672313Y-195236185D01*
X195672313Y-195236185D02*
X195743742Y-195164757D01*
X195743742Y-195164757D02*
X195886599Y-195093328D01*
X197029455Y-196450471D02*
X197100884Y-196521900D01*
X197100884Y-196521900D02*
X197029455Y-196593328D01*
X197029455Y-196593328D02*
X196958027Y-196521900D01*
X196958027Y-196521900D02*
X197029455Y-196450471D01*
X197029455Y-196450471D02*
X197029455Y-196593328D01*
X197600884Y-195093328D02*
X198529456Y-195093328D01*
X198529456Y-195093328D02*
X198029456Y-195664757D01*
X198029456Y-195664757D02*
X198243741Y-195664757D01*
X198243741Y-195664757D02*
X198386599Y-195736185D01*
X198386599Y-195736185D02*
X198458027Y-195807614D01*
X198458027Y-195807614D02*
X198529456Y-195950471D01*
X198529456Y-195950471D02*
X198529456Y-196307614D01*
X198529456Y-196307614D02*
X198458027Y-196450471D01*
X198458027Y-196450471D02*
X198386599Y-196521900D01*
X198386599Y-196521900D02*
X198243741Y-196593328D01*
X198243741Y-196593328D02*
X197815170Y-196593328D01*
X197815170Y-196593328D02*
X197672313Y-196521900D01*
X197672313Y-196521900D02*
X197600884Y-196450471D01*
D10*
D12*
X264413853Y-193785528D02*
X263913853Y-193071242D01*
X263556710Y-193785528D02*
X263556710Y-192285528D01*
X263556710Y-192285528D02*
X264128139Y-192285528D01*
X264128139Y-192285528D02*
X264270996Y-192356957D01*
X264270996Y-192356957D02*
X264342425Y-192428385D01*
X264342425Y-192428385D02*
X264413853Y-192571242D01*
X264413853Y-192571242D02*
X264413853Y-192785528D01*
X264413853Y-192785528D02*
X264342425Y-192928385D01*
X264342425Y-192928385D02*
X264270996Y-192999814D01*
X264270996Y-192999814D02*
X264128139Y-193071242D01*
X264128139Y-193071242D02*
X263556710Y-193071242D01*
X265628139Y-193714100D02*
X265485282Y-193785528D01*
X265485282Y-193785528D02*
X265199568Y-193785528D01*
X265199568Y-193785528D02*
X265056710Y-193714100D01*
X265056710Y-193714100D02*
X264985282Y-193571242D01*
X264985282Y-193571242D02*
X264985282Y-192999814D01*
X264985282Y-192999814D02*
X265056710Y-192856957D01*
X265056710Y-192856957D02*
X265199568Y-192785528D01*
X265199568Y-192785528D02*
X265485282Y-192785528D01*
X265485282Y-192785528D02*
X265628139Y-192856957D01*
X265628139Y-192856957D02*
X265699568Y-192999814D01*
X265699568Y-192999814D02*
X265699568Y-193142671D01*
X265699568Y-193142671D02*
X264985282Y-193285528D01*
X266199567Y-192785528D02*
X266556710Y-193785528D01*
X266556710Y-193785528D02*
X266913853Y-192785528D01*
X267485281Y-193642671D02*
X267556710Y-193714100D01*
X267556710Y-193714100D02*
X267485281Y-193785528D01*
X267485281Y-193785528D02*
X267413853Y-193714100D01*
X267413853Y-193714100D02*
X267485281Y-193642671D01*
X267485281Y-193642671D02*
X267485281Y-193785528D01*
X267485281Y-192856957D02*
X267556710Y-192928385D01*
X267556710Y-192928385D02*
X267485281Y-192999814D01*
X267485281Y-192999814D02*
X267413853Y-192928385D01*
X267413853Y-192928385D02*
X267485281Y-192856957D01*
X267485281Y-192856957D02*
X267485281Y-192999814D01*
X269199567Y-192785528D02*
X269556710Y-193785528D01*
X269556710Y-193785528D02*
X269913853Y-192785528D01*
X271270996Y-193785528D02*
X270413853Y-193785528D01*
X270842424Y-193785528D02*
X270842424Y-192285528D01*
X270842424Y-192285528D02*
X270699567Y-192499814D01*
X270699567Y-192499814D02*
X270556710Y-192642671D01*
X270556710Y-192642671D02*
X270413853Y-192714100D01*
X271913852Y-193642671D02*
X271985281Y-193714100D01*
X271985281Y-193714100D02*
X271913852Y-193785528D01*
X271913852Y-193785528D02*
X271842424Y-193714100D01*
X271842424Y-193714100D02*
X271913852Y-193642671D01*
X271913852Y-193642671D02*
X271913852Y-193785528D01*
X272913853Y-192285528D02*
X273056710Y-192285528D01*
X273056710Y-192285528D02*
X273199567Y-192356957D01*
X273199567Y-192356957D02*
X273270996Y-192428385D01*
X273270996Y-192428385D02*
X273342424Y-192571242D01*
X273342424Y-192571242D02*
X273413853Y-192856957D01*
X273413853Y-192856957D02*
X273413853Y-193214100D01*
X273413853Y-193214100D02*
X273342424Y-193499814D01*
X273342424Y-193499814D02*
X273270996Y-193642671D01*
X273270996Y-193642671D02*
X273199567Y-193714100D01*
X273199567Y-193714100D02*
X273056710Y-193785528D01*
X273056710Y-193785528D02*
X272913853Y-193785528D01*
X272913853Y-193785528D02*
X272770996Y-193714100D01*
X272770996Y-193714100D02*
X272699567Y-193642671D01*
X272699567Y-193642671D02*
X272628138Y-193499814D01*
X272628138Y-193499814D02*
X272556710Y-193214100D01*
X272556710Y-193214100D02*
X272556710Y-192856957D01*
X272556710Y-192856957D02*
X272628138Y-192571242D01*
X272628138Y-192571242D02*
X272699567Y-192428385D01*
X272699567Y-192428385D02*
X272770996Y-192356957D01*
X272770996Y-192356957D02*
X272913853Y-192285528D01*
X274056709Y-193642671D02*
X274128138Y-193714100D01*
X274128138Y-193714100D02*
X274056709Y-193785528D01*
X274056709Y-193785528D02*
X273985281Y-193714100D01*
X273985281Y-193714100D02*
X274056709Y-193642671D01*
X274056709Y-193642671D02*
X274056709Y-193785528D01*
X275056710Y-192285528D02*
X275199567Y-192285528D01*
X275199567Y-192285528D02*
X275342424Y-192356957D01*
X275342424Y-192356957D02*
X275413853Y-192428385D01*
X275413853Y-192428385D02*
X275485281Y-192571242D01*
X275485281Y-192571242D02*
X275556710Y-192856957D01*
X275556710Y-192856957D02*
X275556710Y-193214100D01*
X275556710Y-193214100D02*
X275485281Y-193499814D01*
X275485281Y-193499814D02*
X275413853Y-193642671D01*
X275413853Y-193642671D02*
X275342424Y-193714100D01*
X275342424Y-193714100D02*
X275199567Y-193785528D01*
X275199567Y-193785528D02*
X275056710Y-193785528D01*
X275056710Y-193785528D02*
X274913853Y-193714100D01*
X274913853Y-193714100D02*
X274842424Y-193642671D01*
X274842424Y-193642671D02*
X274770995Y-193499814D01*
X274770995Y-193499814D02*
X274699567Y-193214100D01*
X274699567Y-193214100D02*
X274699567Y-192856957D01*
X274699567Y-192856957D02*
X274770995Y-192571242D01*
X274770995Y-192571242D02*
X274842424Y-192428385D01*
X274842424Y-192428385D02*
X274913853Y-192356957D01*
X274913853Y-192356957D02*
X275056710Y-192285528D01*
D10*
D11*
X263886598Y-190221700D02*
X264100884Y-190293128D01*
X264100884Y-190293128D02*
X264458026Y-190293128D01*
X264458026Y-190293128D02*
X264600884Y-190221700D01*
X264600884Y-190221700D02*
X264672312Y-190150271D01*
X264672312Y-190150271D02*
X264743741Y-190007414D01*
X264743741Y-190007414D02*
X264743741Y-189864557D01*
X264743741Y-189864557D02*
X264672312Y-189721700D01*
X264672312Y-189721700D02*
X264600884Y-189650271D01*
X264600884Y-189650271D02*
X264458026Y-189578842D01*
X264458026Y-189578842D02*
X264172312Y-189507414D01*
X264172312Y-189507414D02*
X264029455Y-189435985D01*
X264029455Y-189435985D02*
X263958026Y-189364557D01*
X263958026Y-189364557D02*
X263886598Y-189221700D01*
X263886598Y-189221700D02*
X263886598Y-189078842D01*
X263886598Y-189078842D02*
X263958026Y-188935985D01*
X263958026Y-188935985D02*
X264029455Y-188864557D01*
X264029455Y-188864557D02*
X264172312Y-188793128D01*
X264172312Y-188793128D02*
X264529455Y-188793128D01*
X264529455Y-188793128D02*
X264743741Y-188864557D01*
X265386597Y-190293128D02*
X265386597Y-189293128D01*
X265386597Y-188793128D02*
X265315169Y-188864557D01*
X265315169Y-188864557D02*
X265386597Y-188935985D01*
X265386597Y-188935985D02*
X265458026Y-188864557D01*
X265458026Y-188864557D02*
X265386597Y-188793128D01*
X265386597Y-188793128D02*
X265386597Y-188935985D01*
X265958026Y-189293128D02*
X266743741Y-189293128D01*
X266743741Y-189293128D02*
X265958026Y-190293128D01*
X265958026Y-190293128D02*
X266743741Y-190293128D01*
X267886598Y-190221700D02*
X267743741Y-190293128D01*
X267743741Y-190293128D02*
X267458027Y-190293128D01*
X267458027Y-190293128D02*
X267315169Y-190221700D01*
X267315169Y-190221700D02*
X267243741Y-190078842D01*
X267243741Y-190078842D02*
X267243741Y-189507414D01*
X267243741Y-189507414D02*
X267315169Y-189364557D01*
X267315169Y-189364557D02*
X267458027Y-189293128D01*
X267458027Y-189293128D02*
X267743741Y-189293128D01*
X267743741Y-189293128D02*
X267886598Y-189364557D01*
X267886598Y-189364557D02*
X267958027Y-189507414D01*
X267958027Y-189507414D02*
X267958027Y-189650271D01*
X267958027Y-189650271D02*
X267243741Y-189793128D01*
X268600883Y-190150271D02*
X268672312Y-190221700D01*
X268672312Y-190221700D02*
X268600883Y-190293128D01*
X268600883Y-190293128D02*
X268529455Y-190221700D01*
X268529455Y-190221700D02*
X268600883Y-190150271D01*
X268600883Y-190150271D02*
X268600883Y-190293128D01*
X268600883Y-189364557D02*
X268672312Y-189435985D01*
X268672312Y-189435985D02*
X268600883Y-189507414D01*
X268600883Y-189507414D02*
X268529455Y-189435985D01*
X268529455Y-189435985D02*
X268600883Y-189364557D01*
X268600883Y-189364557D02*
X268600883Y-189507414D01*
X270386598Y-189864557D02*
X271100884Y-189864557D01*
X270243741Y-190293128D02*
X270743741Y-188793128D01*
X270743741Y-188793128D02*
X271243741Y-190293128D01*
X272386598Y-189293128D02*
X272386598Y-190293128D01*
X272029455Y-188721700D02*
X271672312Y-189793128D01*
X271672312Y-189793128D02*
X272600883Y-189793128D01*
D10*
D11*
X263458026Y-196593328D02*
X263458026Y-195093328D01*
X264815170Y-196593328D02*
X264815170Y-195093328D01*
X264815170Y-196521900D02*
X264672312Y-196593328D01*
X264672312Y-196593328D02*
X264386598Y-196593328D01*
X264386598Y-196593328D02*
X264243741Y-196521900D01*
X264243741Y-196521900D02*
X264172312Y-196450471D01*
X264172312Y-196450471D02*
X264100884Y-196307614D01*
X264100884Y-196307614D02*
X264100884Y-195879042D01*
X264100884Y-195879042D02*
X264172312Y-195736185D01*
X264172312Y-195736185D02*
X264243741Y-195664757D01*
X264243741Y-195664757D02*
X264386598Y-195593328D01*
X264386598Y-195593328D02*
X264672312Y-195593328D01*
X264672312Y-195593328D02*
X264815170Y-195664757D01*
X265529455Y-196450471D02*
X265600884Y-196521900D01*
X265600884Y-196521900D02*
X265529455Y-196593328D01*
X265529455Y-196593328D02*
X265458027Y-196521900D01*
X265458027Y-196521900D02*
X265529455Y-196450471D01*
X265529455Y-196450471D02*
X265529455Y-196593328D01*
X265529455Y-195664757D02*
X265600884Y-195736185D01*
X265600884Y-195736185D02*
X265529455Y-195807614D01*
X265529455Y-195807614D02*
X265458027Y-195736185D01*
X265458027Y-195736185D02*
X265529455Y-195664757D01*
X265529455Y-195664757D02*
X265529455Y-195807614D01*
X268172313Y-196593328D02*
X267315170Y-196593328D01*
X267743741Y-196593328D02*
X267743741Y-195093328D01*
X267743741Y-195093328D02*
X267600884Y-195307614D01*
X267600884Y-195307614D02*
X267458027Y-195450471D01*
X267458027Y-195450471D02*
X267315170Y-195521900D01*
X269886598Y-195021900D02*
X268600884Y-196950471D01*
X271172313Y-196593328D02*
X270315170Y-196593328D01*
X270743741Y-196593328D02*
X270743741Y-195093328D01*
X270743741Y-195093328D02*
X270600884Y-195307614D01*
X270600884Y-195307614D02*
X270458027Y-195450471D01*
X270458027Y-195450471D02*
X270315170Y-195521900D01*
D10*
D11*
X177002200Y-187507200D02*
X285002200Y-187507200D01*
D10*
D13*
X178693928Y-189711438D02*
X179836785Y-189711438D01*
X179015357Y-191711438D02*
X179265357Y-189711438D01*
X180253452Y-191711438D02*
X180420119Y-190378104D01*
X180503452Y-189711438D02*
X180396309Y-189806676D01*
X180396309Y-189806676D02*
X180479643Y-189901914D01*
X180479643Y-189901914D02*
X180586786Y-189806676D01*
X180586786Y-189806676D02*
X180503452Y-189711438D01*
X180503452Y-189711438D02*
X180479643Y-189901914D01*
X181086786Y-190378104D02*
X181848690Y-190378104D01*
X181455833Y-189711438D02*
X181241548Y-191425723D01*
X181241548Y-191425723D02*
X181312976Y-191616200D01*
X181312976Y-191616200D02*
X181491548Y-191711438D01*
X181491548Y-191711438D02*
X181682024Y-191711438D01*
X182634405Y-191711438D02*
X182455833Y-191616200D01*
X182455833Y-191616200D02*
X182384405Y-191425723D01*
X182384405Y-191425723D02*
X182598690Y-189711438D01*
X184170119Y-191616200D02*
X183967738Y-191711438D01*
X183967738Y-191711438D02*
X183586785Y-191711438D01*
X183586785Y-191711438D02*
X183408214Y-191616200D01*
X183408214Y-191616200D02*
X183336785Y-191425723D01*
X183336785Y-191425723D02*
X183432024Y-190663819D01*
X183432024Y-190663819D02*
X183551071Y-190473342D01*
X183551071Y-190473342D02*
X183753452Y-190378104D01*
X183753452Y-190378104D02*
X184134404Y-190378104D01*
X184134404Y-190378104D02*
X184312976Y-190473342D01*
X184312976Y-190473342D02*
X184384404Y-190663819D01*
X184384404Y-190663819D02*
X184360595Y-190854295D01*
X184360595Y-190854295D02*
X183384404Y-191044771D01*
X185134405Y-191520961D02*
X185217738Y-191616200D01*
X185217738Y-191616200D02*
X185110595Y-191711438D01*
X185110595Y-191711438D02*
X185027262Y-191616200D01*
X185027262Y-191616200D02*
X185134405Y-191520961D01*
X185134405Y-191520961D02*
X185110595Y-191711438D01*
X185265357Y-190473342D02*
X185348690Y-190568580D01*
X185348690Y-190568580D02*
X185241548Y-190663819D01*
X185241548Y-190663819D02*
X185158214Y-190568580D01*
X185158214Y-190568580D02*
X185265357Y-190473342D01*
X185265357Y-190473342D02*
X185241548Y-190663819D01*
X187562977Y-191140009D02*
X188515358Y-191140009D01*
X187301072Y-191711438D02*
X188217739Y-189711438D01*
X188217739Y-189711438D02*
X188634405Y-191711438D01*
X189301072Y-191711438D02*
X189467739Y-190378104D01*
X189443929Y-190568580D02*
X189551072Y-190473342D01*
X189551072Y-190473342D02*
X189753453Y-190378104D01*
X189753453Y-190378104D02*
X190039167Y-190378104D01*
X190039167Y-190378104D02*
X190217739Y-190473342D01*
X190217739Y-190473342D02*
X190289167Y-190663819D01*
X190289167Y-190663819D02*
X190158215Y-191711438D01*
X190289167Y-190663819D02*
X190408215Y-190473342D01*
X190408215Y-190473342D02*
X190610596Y-190378104D01*
X190610596Y-190378104D02*
X190896310Y-190378104D01*
X190896310Y-190378104D02*
X191074882Y-190473342D01*
X191074882Y-190473342D02*
X191146310Y-190663819D01*
X191146310Y-190663819D02*
X191015358Y-191711438D01*
X192134406Y-190378104D02*
X191884406Y-192378104D01*
X192122501Y-190473342D02*
X192324882Y-190378104D01*
X192324882Y-190378104D02*
X192705834Y-190378104D01*
X192705834Y-190378104D02*
X192884406Y-190473342D01*
X192884406Y-190473342D02*
X192967739Y-190568580D01*
X192967739Y-190568580D02*
X193039168Y-190759057D01*
X193039168Y-190759057D02*
X192967739Y-191330485D01*
X192967739Y-191330485D02*
X192848692Y-191520961D01*
X192848692Y-191520961D02*
X192741549Y-191616200D01*
X192741549Y-191616200D02*
X192539168Y-191711438D01*
X192539168Y-191711438D02*
X192158215Y-191711438D01*
X192158215Y-191711438D02*
X191979644Y-191616200D01*
X194062978Y-191711438D02*
X193884406Y-191616200D01*
X193884406Y-191616200D02*
X193812978Y-191425723D01*
X193812978Y-191425723D02*
X194027263Y-189711438D01*
X194824882Y-191711438D02*
X194991549Y-190378104D01*
X195074882Y-189711438D02*
X194967739Y-189806676D01*
X194967739Y-189806676D02*
X195051073Y-189901914D01*
X195051073Y-189901914D02*
X195158216Y-189806676D01*
X195158216Y-189806676D02*
X195074882Y-189711438D01*
X195074882Y-189711438D02*
X195051073Y-189901914D01*
X195872501Y-190949533D02*
X197396311Y-190949533D01*
X198229644Y-190378104D02*
X199277263Y-190378104D01*
X199277263Y-190378104D02*
X198062977Y-191711438D01*
X198062977Y-191711438D02*
X199110596Y-191711438D01*
X200646311Y-191616200D02*
X200443930Y-191711438D01*
X200443930Y-191711438D02*
X200062977Y-191711438D01*
X200062977Y-191711438D02*
X199884406Y-191616200D01*
X199884406Y-191616200D02*
X199812977Y-191425723D01*
X199812977Y-191425723D02*
X199908216Y-190663819D01*
X199908216Y-190663819D02*
X200027263Y-190473342D01*
X200027263Y-190473342D02*
X200229644Y-190378104D01*
X200229644Y-190378104D02*
X200610596Y-190378104D01*
X200610596Y-190378104D02*
X200789168Y-190473342D01*
X200789168Y-190473342D02*
X200860596Y-190663819D01*
X200860596Y-190663819D02*
X200836787Y-190854295D01*
X200836787Y-190854295D02*
X199860596Y-191044771D01*
X201586787Y-191711438D02*
X201753454Y-190378104D01*
X201705835Y-190759057D02*
X201824882Y-190568580D01*
X201824882Y-190568580D02*
X201932025Y-190473342D01*
X201932025Y-190473342D02*
X202134406Y-190378104D01*
X202134406Y-190378104D02*
X202324882Y-190378104D01*
X203110597Y-191711438D02*
X202932025Y-191616200D01*
X202932025Y-191616200D02*
X202848692Y-191520961D01*
X202848692Y-191520961D02*
X202777263Y-191330485D01*
X202777263Y-191330485D02*
X202848692Y-190759057D01*
X202848692Y-190759057D02*
X202967739Y-190568580D01*
X202967739Y-190568580D02*
X203074882Y-190473342D01*
X203074882Y-190473342D02*
X203277263Y-190378104D01*
X203277263Y-190378104D02*
X203562977Y-190378104D01*
X203562977Y-190378104D02*
X203741549Y-190473342D01*
X203741549Y-190473342D02*
X203824882Y-190568580D01*
X203824882Y-190568580D02*
X203896311Y-190759057D01*
X203896311Y-190759057D02*
X203824882Y-191330485D01*
X203824882Y-191330485D02*
X203705835Y-191520961D01*
X203705835Y-191520961D02*
X203598692Y-191616200D01*
X203598692Y-191616200D02*
X203396311Y-191711438D01*
X203396311Y-191711438D02*
X203110597Y-191711438D01*
D10*
D11*
X177002200Y-184007000D02*
X285002200Y-184007000D01*
D10*
D11*
X178386598Y-186621700D02*
X178600884Y-186693128D01*
X178600884Y-186693128D02*
X178958026Y-186693128D01*
X178958026Y-186693128D02*
X179100884Y-186621700D01*
X179100884Y-186621700D02*
X179172312Y-186550271D01*
X179172312Y-186550271D02*
X179243741Y-186407414D01*
X179243741Y-186407414D02*
X179243741Y-186264557D01*
X179243741Y-186264557D02*
X179172312Y-186121700D01*
X179172312Y-186121700D02*
X179100884Y-186050271D01*
X179100884Y-186050271D02*
X178958026Y-185978842D01*
X178958026Y-185978842D02*
X178672312Y-185907414D01*
X178672312Y-185907414D02*
X178529455Y-185835985D01*
X178529455Y-185835985D02*
X178458026Y-185764557D01*
X178458026Y-185764557D02*
X178386598Y-185621700D01*
X178386598Y-185621700D02*
X178386598Y-185478842D01*
X178386598Y-185478842D02*
X178458026Y-185335985D01*
X178458026Y-185335985D02*
X178529455Y-185264557D01*
X178529455Y-185264557D02*
X178672312Y-185193128D01*
X178672312Y-185193128D02*
X179029455Y-185193128D01*
X179029455Y-185193128D02*
X179243741Y-185264557D01*
X179886597Y-186693128D02*
X179886597Y-185193128D01*
X180529455Y-186693128D02*
X180529455Y-185907414D01*
X180529455Y-185907414D02*
X180458026Y-185764557D01*
X180458026Y-185764557D02*
X180315169Y-185693128D01*
X180315169Y-185693128D02*
X180100883Y-185693128D01*
X180100883Y-185693128D02*
X179958026Y-185764557D01*
X179958026Y-185764557D02*
X179886597Y-185835985D01*
X181815169Y-186621700D02*
X181672312Y-186693128D01*
X181672312Y-186693128D02*
X181386598Y-186693128D01*
X181386598Y-186693128D02*
X181243740Y-186621700D01*
X181243740Y-186621700D02*
X181172312Y-186478842D01*
X181172312Y-186478842D02*
X181172312Y-185907414D01*
X181172312Y-185907414D02*
X181243740Y-185764557D01*
X181243740Y-185764557D02*
X181386598Y-185693128D01*
X181386598Y-185693128D02*
X181672312Y-185693128D01*
X181672312Y-185693128D02*
X181815169Y-185764557D01*
X181815169Y-185764557D02*
X181886598Y-185907414D01*
X181886598Y-185907414D02*
X181886598Y-186050271D01*
X181886598Y-186050271D02*
X181172312Y-186193128D01*
X183100883Y-186621700D02*
X182958026Y-186693128D01*
X182958026Y-186693128D02*
X182672312Y-186693128D01*
X182672312Y-186693128D02*
X182529454Y-186621700D01*
X182529454Y-186621700D02*
X182458026Y-186478842D01*
X182458026Y-186478842D02*
X182458026Y-185907414D01*
X182458026Y-185907414D02*
X182529454Y-185764557D01*
X182529454Y-185764557D02*
X182672312Y-185693128D01*
X182672312Y-185693128D02*
X182958026Y-185693128D01*
X182958026Y-185693128D02*
X183100883Y-185764557D01*
X183100883Y-185764557D02*
X183172312Y-185907414D01*
X183172312Y-185907414D02*
X183172312Y-186050271D01*
X183172312Y-186050271D02*
X182458026Y-186193128D01*
X183600883Y-185693128D02*
X184172311Y-185693128D01*
X183815168Y-185193128D02*
X183815168Y-186478842D01*
X183815168Y-186478842D02*
X183886597Y-186621700D01*
X183886597Y-186621700D02*
X184029454Y-186693128D01*
X184029454Y-186693128D02*
X184172311Y-186693128D01*
X184672311Y-186550271D02*
X184743740Y-186621700D01*
X184743740Y-186621700D02*
X184672311Y-186693128D01*
X184672311Y-186693128D02*
X184600883Y-186621700D01*
X184600883Y-186621700D02*
X184672311Y-186550271D01*
X184672311Y-186550271D02*
X184672311Y-186693128D01*
X184672311Y-185764557D02*
X184743740Y-185835985D01*
X184743740Y-185835985D02*
X184672311Y-185907414D01*
X184672311Y-185907414D02*
X184600883Y-185835985D01*
X184600883Y-185835985D02*
X184672311Y-185764557D01*
X184672311Y-185764557D02*
X184672311Y-185907414D01*
D10*
D12*
X178556710Y-182685328D02*
X178556710Y-181685328D01*
X178556710Y-181828185D02*
X178628139Y-181756757D01*
X178628139Y-181756757D02*
X178770996Y-181685328D01*
X178770996Y-181685328D02*
X178985282Y-181685328D01*
X178985282Y-181685328D02*
X179128139Y-181756757D01*
X179128139Y-181756757D02*
X179199568Y-181899614D01*
X179199568Y-181899614D02*
X179199568Y-182685328D01*
X179199568Y-181899614D02*
X179270996Y-181756757D01*
X179270996Y-181756757D02*
X179413853Y-181685328D01*
X179413853Y-181685328D02*
X179628139Y-181685328D01*
X179628139Y-181685328D02*
X179770996Y-181756757D01*
X179770996Y-181756757D02*
X179842425Y-181899614D01*
X179842425Y-181899614D02*
X179842425Y-182685328D01*
X181199568Y-182685328D02*
X181199568Y-181899614D01*
X181199568Y-181899614D02*
X181128139Y-181756757D01*
X181128139Y-181756757D02*
X180985282Y-181685328D01*
X180985282Y-181685328D02*
X180699568Y-181685328D01*
X180699568Y-181685328D02*
X180556710Y-181756757D01*
X181199568Y-182613900D02*
X181056710Y-182685328D01*
X181056710Y-182685328D02*
X180699568Y-182685328D01*
X180699568Y-182685328D02*
X180556710Y-182613900D01*
X180556710Y-182613900D02*
X180485282Y-182471042D01*
X180485282Y-182471042D02*
X180485282Y-182328185D01*
X180485282Y-182328185D02*
X180556710Y-182185328D01*
X180556710Y-182185328D02*
X180699568Y-182113900D01*
X180699568Y-182113900D02*
X181056710Y-182113900D01*
X181056710Y-182113900D02*
X181199568Y-182042471D01*
X181770996Y-181685328D02*
X182128139Y-182685328D01*
X182485282Y-181685328D02*
X182128139Y-182685328D01*
X182128139Y-182685328D02*
X181985282Y-183042471D01*
X181985282Y-183042471D02*
X181913853Y-183113900D01*
X181913853Y-183113900D02*
X181770996Y-183185328D01*
X183056710Y-182685328D02*
X183056710Y-181185328D01*
X183199568Y-182113900D02*
X183628139Y-182685328D01*
X183628139Y-181685328D02*
X183056710Y-182256757D01*
X184485282Y-182685328D02*
X184342425Y-182613900D01*
X184342425Y-182613900D02*
X184270996Y-182542471D01*
X184270996Y-182542471D02*
X184199568Y-182399614D01*
X184199568Y-182399614D02*
X184199568Y-181971042D01*
X184199568Y-181971042D02*
X184270996Y-181828185D01*
X184270996Y-181828185D02*
X184342425Y-181756757D01*
X184342425Y-181756757D02*
X184485282Y-181685328D01*
X184485282Y-181685328D02*
X184699568Y-181685328D01*
X184699568Y-181685328D02*
X184842425Y-181756757D01*
X184842425Y-181756757D02*
X184913854Y-181828185D01*
X184913854Y-181828185D02*
X184985282Y-181971042D01*
X184985282Y-181971042D02*
X184985282Y-182399614D01*
X184985282Y-182399614D02*
X184913854Y-182542471D01*
X184913854Y-182542471D02*
X184842425Y-182613900D01*
X184842425Y-182613900D02*
X184699568Y-182685328D01*
X184699568Y-182685328D02*
X184485282Y-182685328D01*
X185842425Y-182685328D02*
X185699568Y-182613900D01*
X185699568Y-182613900D02*
X185628139Y-182471042D01*
X185628139Y-182471042D02*
X185628139Y-181185328D01*
X187556710Y-182685328D02*
X187556710Y-181685328D01*
X187556710Y-181971042D02*
X187628139Y-181828185D01*
X187628139Y-181828185D02*
X187699568Y-181756757D01*
X187699568Y-181756757D02*
X187842425Y-181685328D01*
X187842425Y-181685328D02*
X187985282Y-181685328D01*
X189056710Y-182613900D02*
X188913853Y-182685328D01*
X188913853Y-182685328D02*
X188628139Y-182685328D01*
X188628139Y-182685328D02*
X188485281Y-182613900D01*
X188485281Y-182613900D02*
X188413853Y-182471042D01*
X188413853Y-182471042D02*
X188413853Y-181899614D01*
X188413853Y-181899614D02*
X188485281Y-181756757D01*
X188485281Y-181756757D02*
X188628139Y-181685328D01*
X188628139Y-181685328D02*
X188913853Y-181685328D01*
X188913853Y-181685328D02*
X189056710Y-181756757D01*
X189056710Y-181756757D02*
X189128139Y-181899614D01*
X189128139Y-181899614D02*
X189128139Y-182042471D01*
X189128139Y-182042471D02*
X188413853Y-182185328D01*
X189628138Y-181685328D02*
X189985281Y-182685328D01*
X190342424Y-181685328D02*
X189985281Y-182685328D01*
X189985281Y-182685328D02*
X189842424Y-183042471D01*
X189842424Y-183042471D02*
X189770995Y-183113900D01*
X189770995Y-183113900D02*
X189628138Y-183185328D01*
D10*
D13*
X178479642Y-178411438D02*
X178479642Y-176411438D01*
X178479642Y-176411438D02*
X179479642Y-177840009D01*
X179479642Y-177840009D02*
X180479642Y-176411438D01*
X180479642Y-176411438D02*
X180479642Y-178411438D01*
X181765356Y-177840009D02*
X183193928Y-177840009D01*
X181479642Y-178411438D02*
X182479642Y-176411438D01*
X182479642Y-176411438D02*
X183479642Y-178411438D01*
X185051071Y-177459057D02*
X185051071Y-178411438D01*
X184051071Y-176411438D02*
X185051071Y-177459057D01*
X185051071Y-177459057D02*
X186051071Y-176411438D01*
X187051071Y-178411438D02*
X187051071Y-176411438D01*
X188765357Y-178411438D02*
X187479643Y-177268580D01*
X188765357Y-176411438D02*
X187051071Y-177554295D01*
X190622500Y-176411438D02*
X191193928Y-176411438D01*
X191193928Y-176411438D02*
X191479643Y-176506676D01*
X191479643Y-176506676D02*
X191765357Y-176697152D01*
X191765357Y-176697152D02*
X191908214Y-177078104D01*
X191908214Y-177078104D02*
X191908214Y-177744771D01*
X191908214Y-177744771D02*
X191765357Y-178125723D01*
X191765357Y-178125723D02*
X191479643Y-178316200D01*
X191479643Y-178316200D02*
X191193928Y-178411438D01*
X191193928Y-178411438D02*
X190622500Y-178411438D01*
X190622500Y-178411438D02*
X190336786Y-178316200D01*
X190336786Y-178316200D02*
X190051071Y-178125723D01*
X190051071Y-178125723D02*
X189908214Y-177744771D01*
X189908214Y-177744771D02*
X189908214Y-177078104D01*
X189908214Y-177078104D02*
X190051071Y-176697152D01*
X190051071Y-176697152D02*
X190336786Y-176506676D01*
X190336786Y-176506676D02*
X190622500Y-176411438D01*
X194622500Y-178411438D02*
X193193928Y-178411438D01*
X193193928Y-178411438D02*
X193193928Y-176411438D01*
X197336785Y-178411438D02*
X196336785Y-177459057D01*
X195622499Y-178411438D02*
X195622499Y-176411438D01*
X195622499Y-176411438D02*
X196765356Y-176411438D01*
X196765356Y-176411438D02*
X197051071Y-176506676D01*
X197051071Y-176506676D02*
X197193928Y-176601914D01*
X197193928Y-176601914D02*
X197336785Y-176792390D01*
X197336785Y-176792390D02*
X197336785Y-177078104D01*
X197336785Y-177078104D02*
X197193928Y-177268580D01*
X197193928Y-177268580D02*
X197051071Y-177363819D01*
X197051071Y-177363819D02*
X196765356Y-177459057D01*
X196765356Y-177459057D02*
X195622499Y-177459057D01*
X198622499Y-177363819D02*
X199622499Y-177363819D01*
X200051071Y-178411438D02*
X198622499Y-178411438D01*
X198622499Y-178411438D02*
X198622499Y-176411438D01*
X198622499Y-176411438D02*
X200051071Y-176411438D01*
X201908214Y-177459057D02*
X201908214Y-178411438D01*
X200908214Y-176411438D02*
X201908214Y-177459057D01*
X201908214Y-177459057D02*
X202908214Y-176411438D01*
X203908214Y-178220961D02*
X204051071Y-178316200D01*
X204051071Y-178316200D02*
X203908214Y-178411438D01*
X203908214Y-178411438D02*
X203765357Y-178316200D01*
X203765357Y-178316200D02*
X203908214Y-178220961D01*
X203908214Y-178220961D02*
X203908214Y-178411438D01*
X207051071Y-178220961D02*
X206908214Y-178316200D01*
X206908214Y-178316200D02*
X206479642Y-178411438D01*
X206479642Y-178411438D02*
X206193928Y-178411438D01*
X206193928Y-178411438D02*
X205765357Y-178316200D01*
X205765357Y-178316200D02*
X205479642Y-178125723D01*
X205479642Y-178125723D02*
X205336785Y-177935247D01*
X205336785Y-177935247D02*
X205193928Y-177554295D01*
X205193928Y-177554295D02*
X205193928Y-177268580D01*
X205193928Y-177268580D02*
X205336785Y-176887628D01*
X205336785Y-176887628D02*
X205479642Y-176697152D01*
X205479642Y-176697152D02*
X205765357Y-176506676D01*
X205765357Y-176506676D02*
X206193928Y-176411438D01*
X206193928Y-176411438D02*
X206479642Y-176411438D01*
X206479642Y-176411438D02*
X206908214Y-176506676D01*
X206908214Y-176506676D02*
X207051071Y-176601914D01*
X208908214Y-176411438D02*
X209479642Y-176411438D01*
X209479642Y-176411438D02*
X209765357Y-176506676D01*
X209765357Y-176506676D02*
X210051071Y-176697152D01*
X210051071Y-176697152D02*
X210193928Y-177078104D01*
X210193928Y-177078104D02*
X210193928Y-177744771D01*
X210193928Y-177744771D02*
X210051071Y-178125723D01*
X210051071Y-178125723D02*
X209765357Y-178316200D01*
X209765357Y-178316200D02*
X209479642Y-178411438D01*
X209479642Y-178411438D02*
X208908214Y-178411438D01*
X208908214Y-178411438D02*
X208622500Y-178316200D01*
X208622500Y-178316200D02*
X208336785Y-178125723D01*
X208336785Y-178125723D02*
X208193928Y-177744771D01*
X208193928Y-177744771D02*
X208193928Y-177078104D01*
X208193928Y-177078104D02*
X208336785Y-176697152D01*
X208336785Y-176697152D02*
X208622500Y-176506676D01*
X208622500Y-176506676D02*
X208908214Y-176411438D01*
X211479642Y-178411438D02*
X211479642Y-176411438D01*
X211479642Y-176411438D02*
X212479642Y-177840009D01*
X212479642Y-177840009D02*
X213479642Y-176411438D01*
X213479642Y-176411438D02*
X213479642Y-178411438D01*
D10*
D11*
X154513200Y-198007000D02*
X177002200Y-198007000D01*
X177002200Y-174505000D01*
X154513200Y-174505000D01*
X154513200Y-198007000D01*
D10*
D11*
X261002200Y-184007200D02*
X261002200Y-198007200D01*
D14*
%TO.P,RV1,1,1*%
%TO.N,/vdb*%
X169900000Y-78560000D03*
D15*
%TO.P,RV1,2,2*%
%TO.N,Net-(Q112-B)*%
X172400000Y-83560000D03*
%TO.P,RV1,3,3*%
%TO.N,/vdt*%
X174900000Y-78560000D03*
%TD*%
D16*
%TO.P,H4,1,1*%
%TO.N,GND*%
X142100000Y-127000000D03*
X142802944Y-125302944D03*
X142802944Y-128697056D03*
X144500000Y-124600000D03*
D17*
X144500000Y-127000000D03*
D16*
X144500000Y-129400000D03*
X146197056Y-125302944D03*
X146197056Y-128697056D03*
X146900000Y-127000000D03*
%TD*%
D18*
%TO.P,J9,1,Pin_1*%
%TO.N,GND*%
X222000000Y-93500000D03*
X226000000Y-93500000D03*
%TD*%
D19*
%TO.P,C8,1*%
%TO.N,-107*%
X131450000Y-115950000D03*
%TO.P,C8,2*%
%TO.N,GND*%
X131450000Y-110950000D03*
%TD*%
D20*
%TO.P,C3,1*%
%TO.N,+107*%
X155500000Y-83500000D03*
D19*
%TO.P,C3,2*%
%TO.N,/gndv*%
X155500000Y-86000000D03*
%TD*%
D18*
%TO.P,J6,1,Pin_1*%
%TO.N,-107*%
X222000000Y-123500000D03*
X226000000Y-123500000D03*
%TD*%
D21*
%TO.P,Q3,1,E*%
%TO.N,+107*%
X146500000Y-83600000D03*
D22*
%TO.P,Q3,2,B*%
%TO.N,Net-(Q3-B)*%
X146500000Y-86140000D03*
%TO.P,Q3,3,C*%
%TO.N,/VB2*%
X146500000Y-88680000D03*
%TD*%
D19*
%TO.P,R21,1*%
%TO.N,Net-(Q9-E)*%
X172300000Y-102000000D03*
D23*
%TO.P,R21,2*%
%TO.N,-107*%
X172300000Y-112160000D03*
%TD*%
D18*
%TO.P,J8,1,Pin_1*%
%TO.N,+107*%
X136000000Y-78500000D03*
X132000000Y-78500000D03*
%TD*%
D21*
%TO.P,Q7,1,E*%
%TO.N,Net-(Q7-E)*%
X139900000Y-103200000D03*
D22*
%TO.P,Q7,2,B*%
%TO.N,Net-(Q7-B)*%
X139900000Y-105740000D03*
%TO.P,Q7,3,C*%
%TO.N,Net-(Q4-C)*%
X139900000Y-108280000D03*
%TD*%
D19*
%TO.P,R101,1*%
%TO.N,+107*%
X155500000Y-78500000D03*
D23*
%TO.P,R101,2*%
%TO.N,Net-(Q102-E)*%
X165660000Y-78500000D03*
%TD*%
D20*
%TO.P,C102,1*%
%TO.N,Net-(Q7-B)*%
X136860000Y-100480000D03*
D19*
%TO.P,C102,2*%
%TO.N,/v4i*%
X134360000Y-100480000D03*
%TD*%
D16*
%TO.P,H2,1,1*%
%TO.N,GND*%
X190600000Y-78000000D03*
X191302944Y-76302944D03*
X191302944Y-79697056D03*
X193000000Y-75600000D03*
D17*
X193000000Y-78000000D03*
D16*
X193000000Y-80400000D03*
X194697056Y-76302944D03*
X194697056Y-79697056D03*
X195400000Y-78000000D03*
%TD*%
D19*
%TO.P,R116,1*%
%TO.N,Net-(Q112-B)*%
X166500000Y-90500000D03*
D23*
%TO.P,R116,2*%
%TO.N,/vdb*%
X176660000Y-90500000D03*
%TD*%
D18*
%TO.P,J5,1,Pin_1*%
%TO.N,+107*%
X222000000Y-78500000D03*
X226000000Y-78500000D03*
%TD*%
D19*
%TO.P,R22,1*%
%TO.N,Net-(Q7-B)*%
X135250000Y-105750000D03*
D23*
%TO.P,R22,2*%
%TO.N,GND*%
X135250000Y-115910000D03*
%TD*%
D19*
%TO.P,R14,1*%
%TO.N,/VE2*%
X140900000Y-80900000D03*
D23*
%TO.P,R14,2*%
%TO.N,Net-(Q3-B)*%
X151060000Y-80900000D03*
%TD*%
D19*
%TO.P,R19,1*%
%TO.N,Net-(Q8-B)*%
X149700000Y-106700000D03*
D23*
%TO.P,R19,2*%
%TO.N,Net-(C7-Pad1)*%
X159860000Y-106700000D03*
%TD*%
D16*
%TO.P,H3,1,1*%
%TO.N,GND*%
X190600000Y-124000000D03*
X191302944Y-122302944D03*
X191302944Y-125697056D03*
X193000000Y-121600000D03*
D17*
X193000000Y-124000000D03*
D16*
X193000000Y-126400000D03*
X194697056Y-122302944D03*
X194697056Y-125697056D03*
X195400000Y-124000000D03*
%TD*%
D19*
%TO.P,R115,1*%
%TO.N,/vdt*%
X178400000Y-87400000D03*
D23*
%TO.P,R115,2*%
%TO.N,Net-(Q112-B)*%
X168240000Y-87400000D03*
%TD*%
D18*
%TO.P,J1,1,Pin_1*%
%TO.N,GND*%
X136000000Y-93500000D03*
X132000000Y-93500000D03*
%TD*%
D19*
%TO.P,C7,1*%
%TO.N,Net-(C7-Pad1)*%
X162700000Y-108100000D03*
%TO.P,C7,2*%
%TO.N,/FB*%
X162700000Y-103100000D03*
%TD*%
D21*
%TO.P,Q4,1,E*%
%TO.N,Net-(Q4-E)*%
X140850000Y-116140000D03*
D22*
%TO.P,Q4,2,B*%
%TO.N,Net-(Q4-B)*%
X140850000Y-113600000D03*
%TO.P,Q4,3,C*%
%TO.N,Net-(Q4-C)*%
X140850000Y-111060000D03*
%TD*%
D21*
%TO.P,Q102,1,E*%
%TO.N,Net-(Q102-E)*%
X162500000Y-83800000D03*
D22*
%TO.P,Q102,2,B*%
%TO.N,/VB2*%
X162500000Y-86340000D03*
%TO.P,Q102,3,C*%
%TO.N,/vdt*%
X162500000Y-88880000D03*
%TD*%
D24*
%TO.P,R106,1*%
%TO.N,/FB*%
X200000000Y-87810000D03*
D25*
%TO.P,R106,2*%
%TO.N,Net-(Q101-E)*%
X200000000Y-115750000D03*
%TD*%
D16*
%TO.P,H1,1,1*%
%TO.N,GND*%
X142100000Y-75000000D03*
X142802944Y-73302944D03*
X142802944Y-76697056D03*
X144500000Y-72600000D03*
D17*
X144500000Y-75000000D03*
D16*
X144500000Y-77400000D03*
X146197056Y-73302944D03*
X146197056Y-76697056D03*
X146900000Y-75000000D03*
%TD*%
D18*
%TO.P,J10,1,Pin_1*%
%TO.N,GND*%
X222000000Y-108500000D03*
X226000000Y-108500000D03*
%TD*%
D19*
%TO.P,R10,1*%
%TO.N,Net-(Q4-E)*%
X136620000Y-119200000D03*
D23*
%TO.P,R10,2*%
%TO.N,-107*%
X146780000Y-119200000D03*
%TD*%
D19*
%TO.P,R13,1*%
%TO.N,/VB2*%
X147500000Y-91500000D03*
D23*
%TO.P,R13,2*%
%TO.N,/gndv*%
X157660000Y-91500000D03*
%TD*%
D19*
%TO.P,R11,1*%
%TO.N,/VC2*%
X144800000Y-90900000D03*
D23*
%TO.P,R11,2*%
%TO.N,Net-(Q8-E)*%
X144800000Y-101060000D03*
%TD*%
D21*
%TO.P,Q2,1,E*%
%TO.N,/VE2*%
X141600000Y-83600000D03*
D22*
%TO.P,Q2,2,B*%
%TO.N,/VB2*%
X141600000Y-86140000D03*
%TO.P,Q2,3,C*%
%TO.N,/VC2*%
X141600000Y-88680000D03*
%TD*%
D24*
%TO.P,R103,1*%
%TO.N,/FB*%
X188000000Y-99500000D03*
D25*
%TO.P,R103,2*%
%TO.N,Net-(J3-Pin_1)*%
X188000000Y-114740000D03*
%TD*%
D19*
%TO.P,R15,1*%
%TO.N,Net-(Q5-E)*%
X150200000Y-112900000D03*
D23*
%TO.P,R15,2*%
%TO.N,-107*%
X150200000Y-123060000D03*
%TD*%
D26*
%TO.P,C6,1*%
%TO.N,Net-(C6-Pad1)*%
X160500000Y-116000000D03*
D24*
%TO.P,C6,2*%
%TO.N,GND*%
X160500000Y-121000000D03*
%TD*%
D21*
%TO.P,Q5,1,E*%
%TO.N,Net-(Q5-E)*%
X145200000Y-111000000D03*
D22*
%TO.P,Q5,2,B*%
%TO.N,Net-(Q4-B)*%
X145200000Y-113540000D03*
%TO.P,Q5,3,C*%
X145200000Y-116080000D03*
%TD*%
D19*
%TO.P,R20,1*%
%TO.N,Net-(C6-Pad1)*%
X159900000Y-110000000D03*
D23*
%TO.P,R20,2*%
%TO.N,Net-(Q8-B)*%
X149740000Y-110000000D03*
%TD*%
D24*
%TO.P,R104,1*%
%TO.N,Net-(J2-Pin_1)*%
X182000000Y-86100000D03*
D25*
%TO.P,R104,2*%
%TO.N,/FB*%
X182000000Y-101340000D03*
%TD*%
D19*
%TO.P,C5,1*%
%TO.N,Net-(Q4-C)*%
X172800000Y-94000000D03*
%TO.P,C5,2*%
%TO.N,/vdb*%
X167800000Y-94000000D03*
%TD*%
D27*
%TO.P,V4,1*%
%TO.N,/v4i*%
X131380000Y-105200000D03*
D28*
%TO.P,V4,2*%
%TO.N,GND*%
X131380000Y-107740000D03*
%TD*%
D19*
%TO.P,R23,1*%
%TO.N,Net-(Q8-B)*%
X149700000Y-103500000D03*
D23*
%TO.P,R23,2*%
%TO.N,/FB*%
X159860000Y-103500000D03*
%TD*%
D21*
%TO.P,Q8,1,E*%
%TO.N,Net-(Q8-E)*%
X145200000Y-103200000D03*
D22*
%TO.P,Q8,2,B*%
%TO.N,Net-(Q8-B)*%
X145200000Y-105740000D03*
%TO.P,Q8,3,C*%
%TO.N,Net-(Q4-B)*%
X145200000Y-108280000D03*
%TD*%
D18*
%TO.P,J3,1,Pin_1*%
%TO.N,Net-(J3-Pin_1)*%
X222000000Y-116000000D03*
X226000000Y-116000000D03*
%TD*%
D19*
%TO.P,R9,1*%
%TO.N,+107*%
X138090000Y-80260000D03*
D23*
%TO.P,R9,2*%
%TO.N,/VE2*%
X138090000Y-90420000D03*
%TD*%
D18*
%TO.P,J4,1,Pin_1*%
%TO.N,/FB*%
X222000000Y-101000000D03*
X226000000Y-101000000D03*
%TD*%
%TO.P,J7,1,Pin_1*%
%TO.N,-107*%
X136000000Y-123500000D03*
X132000000Y-123500000D03*
%TD*%
D21*
%TO.P,Q112,1,E*%
%TO.N,/vdb*%
X163400000Y-97200000D03*
D22*
%TO.P,Q112,2,B*%
%TO.N,Net-(Q112-B)*%
X163400000Y-94660000D03*
%TO.P,Q112,3,C*%
%TO.N,/vdt*%
X163400000Y-92120000D03*
%TD*%
D24*
%TO.P,R105,1*%
%TO.N,Net-(Q10-E)*%
X213500000Y-85000000D03*
D25*
%TO.P,R105,2*%
%TO.N,/FB*%
X213500000Y-112940000D03*
%TD*%
D18*
%TO.P,J2,1,Pin_1*%
%TO.N,Net-(J2-Pin_1)*%
X222000000Y-86000000D03*
X226000000Y-86000000D03*
%TD*%
D19*
%TO.P,R12,1*%
%TO.N,/gndv*%
X157700000Y-94700000D03*
D23*
%TO.P,R12,2*%
%TO.N,GND*%
X147540000Y-94700000D03*
%TD*%
D21*
%TO.P,Q9,1,E*%
%TO.N,Net-(Q9-E)*%
X172800000Y-97800000D03*
D22*
%TO.P,Q9,2,B*%
%TO.N,Net-(Q4-C)*%
X170260000Y-97800000D03*
%TO.P,Q9,3,C*%
%TO.N,/vdb*%
X167720000Y-97800000D03*
%TD*%
D19*
%TO.P,R18,1*%
%TO.N,/VC2*%
X141300000Y-90900000D03*
D23*
%TO.P,R18,2*%
%TO.N,Net-(Q7-E)*%
X141300000Y-101060000D03*
%TD*%
D29*
%TO.P,Q101,1,B*%
%TO.N,Net-(J3-Pin_1)*%
X214750000Y-124725000D03*
D30*
%TO.P,Q101,2,C*%
%TO.N,-107*%
X209300000Y-124725000D03*
%TO.P,Q101,3,E*%
%TO.N,Net-(Q101-E)*%
X203850000Y-124725000D03*
%TD*%
D31*
%TO.P,Q103,1,E*%
%TO.N,Net-(J2-Pin_1)*%
X181500000Y-78750000D03*
D32*
%TO.P,Q103,2,C*%
%TO.N,+107*%
X184040000Y-78750000D03*
%TO.P,Q103,3,B*%
%TO.N,/vdt*%
X186580000Y-78750000D03*
%TD*%
D31*
%TO.P,Q104,1,E*%
%TO.N,Net-(J3-Pin_1)*%
X186000000Y-123250000D03*
D32*
%TO.P,Q104,2,C*%
%TO.N,-107*%
X183460000Y-123250000D03*
%TO.P,Q104,3,B*%
%TO.N,/vdb*%
X180920000Y-123250000D03*
%TD*%
D29*
%TO.P,Q10,1,B*%
%TO.N,Net-(J2-Pin_1)*%
X203850000Y-77275000D03*
D30*
%TO.P,Q10,2,C*%
%TO.N,+107*%
X209300000Y-77275000D03*
%TO.P,Q10,3,E*%
%TO.N,Net-(Q10-E)*%
X214750000Y-77275000D03*
%TD*%
D33*
%TO.N,/vdb*%
X176000000Y-101000000D03*
X176000000Y-112250000D03*
%TO.N,/vdt*%
X186580000Y-89400000D03*
X186580000Y-83170000D03*
%TD*%
D34*
%TO.N,/vdb*%
X176000000Y-112250000D02*
X176000000Y-101000000D01*
%TO.N,/vdt*%
X186580000Y-89400000D02*
X186580000Y-83170000D01*
%TD*%
D35*
X229000000Y-131000000D02*
X229000000Y-71000000D01*
X229000000Y-71000000D02*
X129000000Y-71000000D01*
X129000000Y-131000000D02*
X229000000Y-131000000D01*
X129000000Y-71000000D02*
X129000000Y-131000000D01*
M02*
